SplineFontDB: 3.2
FontName: Oversimplifont
FullName: Oversimplifont
FamilyName: Oversimplifont
Weight: Regular
Copyright: Created with the help of MyScriptFont.com\nCopyright belongs to the Creator.
Version: 1.0
ItalicAngle: 0
UnderlinePosition: -150
UnderlineWidth: 50
Ascent: 800
Descent: 200
InvalidEm: 0
sfntRevision: 0x00010000
LayerCount: 2
Layer: 0 1 "Back" 1
Layer: 1 1 "Fore" 0
XUID: [1021 115 -1297045107 19238]
StyleMap: 0x0040
FSType: 0
OS2Version: 3
OS2_WeightWidthSlopeOnly: 0
OS2_UseTypoMetrics: 0
CreationTime: 1408665720
ModificationTime: 1635560998
PfmFamily: 17
TTFWeight: 500
TTFWidth: 5
LineGap: 90
VLineGap: 0
Panose: 2 0 6 3 0 0 0 0 0 0
OS2TypoAscent: 800
OS2TypoAOffset: 0
OS2TypoDescent: -200
OS2TypoDOffset: 0
OS2TypoLinegap: 90
OS2WinAscent: 783
OS2WinAOffset: 0
OS2WinDescent: 200
OS2WinDOffset: 0
HheadAscent: 800
HheadAOffset: 0
HheadDescent: -200
HheadDOffset: 0
OS2SubXSize: 650
OS2SubYSize: 699
OS2SubXOff: 0
OS2SubYOff: 140
OS2SupXSize: 650
OS2SupYSize: 699
OS2SupXOff: 0
OS2SupYOff: 479
OS2StrikeYSize: 49
OS2StrikeYPos: 258
OS2CapHeight: 583
OS2XHeight: 495
OS2Vendor: 'PfEd'
OS2CodePages: 00000001.00000000
OS2UnicodeRanges: 80000007.00000002.00000000.00000000
MarkAttachClasses: 1
DEI: 91125
ShortTable: maxp 16
  1
  0
  143
  74
  3
  0
  0
  1
  0
  0
  0
  0
  0
  0
  0
  0
EndShort
LangName: 1033
GaspTable: 1 65535 2 0
Encoding: UnicodeBmp
UnicodeInterp: none
NameList: AGL For New Fonts
DisplaySize: -48
AntiAlias: 1
FitToEm: 0
WinInfo: 0 39 14
BeginPrivate: 0
EndPrivate
BeginChars: 65539 123

StartChar: .notdef
Encoding: 65536 -1 0
Width: 364
Flags: W
LayerCount: 2
Fore
SplineSet
33 0 m 1,0,-1
 33 666 l 1,1,-1
 298 666 l 1,2,-1
 298 0 l 1,3,-1
 33 0 l 1,0,-1
66 33 m 1,4,-1
 265 33 l 1,5,-1
 265 633 l 1,6,-1
 66 633 l 1,7,-1
 66 33 l 1,4,-1
EndSplineSet
Validated: 1
EndChar

StartChar: exclam
Encoding: 33 33 4
Width: 194
Flags: W
LayerCount: 2
Fore
SplineSet
11 135 m 128,-1,1
 10 173 10 173 10 234.5 c 128,-1,2
 10 296 10 296 11 334.5 c 128,-1,3
 12 373 12 373 15.5 404.5 c 128,-1,4
 19 436 19 436 24.5 452 c 128,-1,5
 30 468 30 468 40.5 479 c 128,-1,6
 51 490 51 490 63.5 493 c 128,-1,7
 76 496 76 496 97 496 c 128,-1,8
 118 496 118 496 130.5 493 c 128,-1,9
 143 490 143 490 153.5 479 c 128,-1,10
 164 468 164 468 169.5 452 c 128,-1,11
 175 436 175 436 178.5 404.5 c 128,-1,12
 182 373 182 373 183 334.5 c 128,-1,13
 184 296 184 296 184 234.5 c 128,-1,14
 184 173 184 173 183 135 c 128,-1,15
 182 97 182 97 178.5 65 c 128,-1,16
 175 33 175 33 169.5 17.5 c 128,-1,17
 164 2 164 2 153.5 -9 c 128,-1,18
 143 -20 143 -20 130.5 -23 c 128,-1,19
 118 -26 118 -26 97 -26 c 128,-1,20
 76 -26 76 -26 63.5 -23 c 128,-1,21
 51 -20 51 -20 40.5 -9 c 128,-1,22
 30 2 30 2 24.5 17.5 c 128,-1,23
 19 33 19 33 15.5 65 c 128,-1,0
 12 97 12 97 11 135 c 128,-1,1
35 -187 m 0,24,25
 10 -174 10 -174 10 -156.5 c 128,-1,26
 10 -139 10 -139 35.5 -126 c 128,-1,27
 61 -113 61 -113 97 -113 c 128,-1,28
 133 -113 133 -113 158.5 -126 c 128,-1,29
 184 -139 184 -139 184 -156.5 c 128,-1,30
 184 -174 184 -174 158.5 -187 c 128,-1,31
 133 -200 133 -200 97 -200 c 128,-1,32
 61 -200 61 -200 35 -187 c 0,24,25
EndSplineSet
Validated: 1
EndChar

StartChar: numbersign
Encoding: 35 35 5
Width: 572
Flags: W
LayerCount: 2
Fore
SplineSet
330 191 m 0,0,1
 301 238 301 238 284 231 c 128,-1,2
 267 224 267 224 267 165 c 0,3,4
 267 139 267 139 280 127.5 c 128,-1,5
 293 116 293 116 310 126 c 0,6,7
 330 138 330 138 335.5 156 c 128,-1,8
 341 174 341 174 330 191 c 0,0,1
286 539 m 0,9,10
 345 539 345 539 323 452 c 0,11,12
 314 416 314 416 320.5 390.5 c 128,-1,13
 327 365 327 365 345 365 c 128,-1,14
 363 365 363 365 382.5 390.5 c 128,-1,15
 402 416 402 416 411 452 c 0,16,17
 434 540 434 540 475 543 c 0,18,19
 511 546 511 546 537 482 c 0,20,21
 556 434 556 434 560 365 c 0,22,23
 564 311 564 311 560.5 273 c 128,-1,24
 557 235 557 235 547.5 217 c 128,-1,25
 538 199 538 199 523 202 c 0,26,27
 487 210 487 210 462 173 c 0,28,29
 439 139 439 139 453 117 c 0,30,31
 461 104 461 104 480 104 c 128,-1,32
 499 104 499 104 513.5 78.5 c 128,-1,33
 528 53 528 53 528 17.5 c 128,-1,34
 528 -18 528 -18 510 -44 c 128,-1,35
 492 -70 492 -70 467 -70 c 128,-1,36
 442 -70 442 -70 416.5 -89.5 c 128,-1,37
 391 -109 391 -109 381.5 -135 c 128,-1,38
 372 -161 372 -161 345.5 -180.5 c 128,-1,39
 319 -200 319 -200 293 -200 c 0,40,41
 263 -200 263 -200 252 -182 c 128,-1,42
 241 -164 241 -164 251 -135 c 0,43,44
 261 -109 261 -109 254 -89.5 c 128,-1,45
 247 -70 247 -70 227.5 -70 c 128,-1,46
 208 -70 208 -70 194 -89.5 c 128,-1,47
 180 -109 180 -109 180 -135 c 0,48,49
 180 -191 180 -191 140 -197 c 0,50,51
 102 -204 102 -204 66 -162 c 0,52,53
 44 -136 44 -136 34 -100 c 0,54,55
 4 14 4 14 12 59 c 128,-1,56
 20 104 20 104 71 104 c 0,57,58
 99 104 99 104 117.5 123 c 128,-1,59
 136 142 136 142 136 171.5 c 128,-1,60
 136 201 136 201 124 212.5 c 128,-1,61
 112 224 112 224 93 213 c 0,62,63
 75 203 75 203 62 221.5 c 128,-1,64
 49 240 49 240 49 276 c 128,-1,65
 49 312 49 312 68 338.5 c 128,-1,66
 87 365 87 365 112 365 c 0,67,68
 138 365 138 365 164.5 390.5 c 128,-1,69
 191 416 191 416 201.5 452 c 128,-1,70
 212 488 212 488 237 513.5 c 128,-1,71
 262 539 262 539 286 539 c 0,9,10
EndSplineSet
Validated: 33
EndChar

StartChar: dollar
Encoding: 36 36 6
Width: 483
Flags: W
LayerCount: 2
Fore
SplineSet
174 537 m 0,0,1
 174 555 174 555 193.5 569 c 128,-1,2
 213 583 213 583 239 583 c 0,3,4
 267 583 267 583 285.5 564 c 128,-1,5
 304 545 304 545 304 515.5 c 128,-1,6
 304 486 304 486 322.5 460 c 128,-1,7
 341 434 341 434 369 423 c 0,8,9
 439 397 439 397 437 354 c 0,10,11
 436 314 436 314 378 291 c 0,12,13
 341 275 341 275 291 274 c 2,14,-1
 152 270 l 1,15,-1
 291 209 l 2,16,17
 356 181 356 181 399.5 138.5 c 128,-1,18
 443 96 443 96 460 51 c 128,-1,19
 477 6 477 6 471 -39.5 c 128,-1,20
 465 -85 465 -85 438 -120 c 128,-1,21
 411 -155 411 -155 359 -177.5 c 128,-1,22
 307 -200 307 -200 239 -200 c 0,23,24
 123 -200 123 -200 53 -144 c 0,25,26
 -6 -97 -6 -97 15 -46 c 0,27,28
 21 -31 21 -31 35 -17 c 0,29,30
 64 12 64 12 87 12 c 128,-1,31
 110 12 110 12 139 -17 c 0,32,33
 173 -51 173 -51 212 -62.5 c 128,-1,34
 251 -74 251 -74 277.5 -59.5 c 128,-1,35
 304 -45 304 -45 304 -9 c 0,36,37
 304 16 304 16 264.5 43 c 128,-1,38
 225 70 225 70 169 82 c 0,39,40
 39 111 39 111 17 180.5 c 128,-1,41
 -5 250 -5 250 80 365 c 0,42,43
 119 417 119 417 146.5 467.5 c 128,-1,44
 174 518 174 518 174 537 c 0,0,1
EndSplineSet
Validated: 33
EndChar

StartChar: percent
Encoding: 37 37 7
Width: 741
Flags: W
LayerCount: 2
Fore
SplineSet
530.215039578 111 m 128,-1,1
 546.716425833 111 546.716425833 111 558.160323734 119.455078125 c 128,-1,2
 569.604221636 127.91015625 569.604221636 127.91015625 569.604221636 140.158203125 c 128,-1,3
 569.604221636 152.407226562 569.604221636 152.407226562 558.082337875 161.204101562 c 128,-1,4
 546.560454114 170 546.560454114 170 530.215039578 170 c 128,-1,5
 513.869625041 170 513.869625041 170 502.347741281 161.204101562 c 128,-1,6
 490.82585752 152.407226562 490.82585752 152.407226562 490.82585752 140.158203125 c 128,-1,7
 490.82585752 127.91015625 490.82585752 127.91015625 502.269755421 119.455078125 c 128,-1,0
 513.713653323 111 513.713653323 111 530.215039578 111 c 128,-1,1
379.792963597 63.1083984375 m 128,-1,9
 355.931398417 98.4189453125 355.931398417 98.4189453125 355.931398417 140.5 c 128,-1,10
 355.931398417 182.581054688 355.931398417 182.581054688 379.792963597 217.891601562 c 128,-1,11
 403.529119084 253.017578125 403.529119084 253.017578125 443.310338164 273.475585938 c 128,-1,12
 483.220128525 294 483.220128525 294 530.187639141 294 c 128,-1,13
 576.997070312 294 576.997070312 294 614.446289062 273.521484375 c 128,-1,14
 651.944335938 253.017578125 651.944335938 253.017578125 673.473632812 217.754882812 c 128,-1,15
 695 182.49609375 695 182.49609375 695 140.5 c 128,-1,16
 695 98.50390625 695 98.50390625 673.473632812 63.2451171875 c 128,-1,17
 651.944335938 27.982421875 651.944335938 27.982421875 614.446289062 7.478515625 c 128,-1,18
 576.997070312 -13 576.997070312 -13 530.187639141 -13 c 128,-1,19
 483.220128525 -13 483.220128525 -13 443.310338164 7.5244140625 c 128,-1,8
 403.529119084 27.982421875 403.529119084 27.982421875 379.792963597 63.1083984375 c 128,-1,9
210.784960422 487 m 128,-1,21
 227.286346677 487 227.286346677 487 238.730244579 495.42578125 c 128,-1,22
 250.17414248 503.850585938 250.17414248 503.850585938 250.17414248 516 c 128,-1,23
 250.17414248 528.149414062 250.17414248 528.149414062 238.730244579 536.57421875 c 128,-1,24
 227.286346677 545 227.286346677 545 210.784960422 545 c 128,-1,25
 194.283574167 545 194.283574167 545 182.839676266 536.57421875 c 128,-1,26
 171.395778364 528.149414062 171.395778364 528.149414062 171.395778364 516 c 128,-1,27
 171.395778364 503.850585938 171.395778364 503.850585938 182.839676266 495.42578125 c 128,-1,20
 194.283574167 487 194.283574167 487 210.784960422 487 c 128,-1,21
153.3125 11.201171875 m 0,28,29
 136 28.40234375 136 28.40234375 136 51.40625 c 0,30,31
 135.999023438 67.46484375 135.999023438 67.46484375 144.783203125 83.072265625 c 2,32,-1
 488.475743115 636.155273438 l 2,33,34
 497.239667505 650.401367188 497.239667505 650.401367188 513.01178059 658.028320312 c 0,35,36
 528.783893676 666 528.783893676 666 545.862796834 666 c 0,37,38
 573.240048854 666 573.240048854 666 591.184570312 648.323242188 c 128,-1,39
 609 630.647460938 609 630.647460938 609 607.63671875 c 0,40,41
 609 591.478515625 609 591.478515625 602.124023438 579.63671875 c 2,42,-1
 256.939942695 24.9609375 l 2,43,44
 248.186556934 9.6533203125 248.186556934 9.6533203125 232.359642975 2 c 0,45,46
 216.532729016 -6 216.532729016 -6 199.453825858 -6 c 0,47,48
 170.990041124 -6 170.990041124 -6 153.3125 11.201171875 c 0,28,29
68.0302734375 439.202148438 m 128,-1,50
 46 474.389648438 46 474.389648438 46 516 c 128,-1,51
 46 557.610351562 46 557.610351562 68.0302734375 592.797851562 c 128,-1,52
 90.060546875 627.985351562 90.060546875 627.985351562 126.961914062 648.9921875 c 128,-1,53
 163.86328125 670 163.86328125 670 210.784960422 670 c 128,-1,54
 257.875773005 670 257.875773005 670 297.69809274 648.9921875 c 128,-1,55
 337.520412475 627.985351562 337.520412475 627.985351562 361.294507029 592.797851562 c 128,-1,56
 385.068601583 557.610351562 385.068601583 557.610351562 385.068601583 516 c 128,-1,57
 385.068601583 474.389648438 385.068601583 474.389648438 361.294507029 439.202148438 c 128,-1,58
 337.520412475 404.014648438 337.520412475 404.014648438 297.69809274 383.0078125 c 128,-1,59
 257.875773005 362 257.875773005 362 210.784960422 362 c 128,-1,60
 163.86328125 362 163.86328125 362 126.961914062 383.0078125 c 128,-1,49
 90.060546875 404.014648438 90.060546875 404.014648438 68.0302734375 439.202148438 c 128,-1,50
EndSplineSet
Validated: 526369
EndChar

StartChar: ampersand
Encoding: 38 38 8
Width: 625
Flags: W
LayerCount: 2
Fore
SplineSet
172 181 m 0,0,1
 172 160.892451475 172 160.892451475 184.169723573 146.356392763 c 128,-1,2
 196.339447146 131.820334051 196.339447146 131.820334051 216.218023751 123.410167025 c 128,-1,3
 236.096600356 115 236.096600356 115 255 115 c 0,4,5
 298.134322655 115 298.134322655 115 335.147376114 154.7443155 c 1,6,-1
 241.262949589 267.25660443 l 1,7,8
 208.506617418 246.925558451 208.506617418 246.925558451 190.253308709 228.334225506 c 128,-1,9
 172 209.742892562 172 209.742892562 172 181 c 0,0,1
316 515 m 0,10,11
 316 523.621080765 316 523.621080765 305.760316426 532.810540383 c 128,-1,12
 295.520632852 542 295.520632852 542 283.769999768 542 c 128,-1,13
 272.019366684 542 272.019366684 542 261.509683342 533.066769159 c 128,-1,14
 251 524.133538319 251 524.133538319 251 513.550856349 c 0,15,16
 251 496.996684263 251 496.996684263 275.590812768 462.754193029 c 1,17,18
 301.051614423 478.288309888 301.051614423 478.288309888 307.426740127 487.969056327 c 0,19,20
 316 500.987710208 316 500.987710208 316 515 c 0,10,11
531.70904375 323.70904375 m 128,-1,22
 554 301.4180875 554 301.4180875 554 267.613557056 c 128,-1,23
 554 233.809026613 554 233.809026613 524.269630371 168.27808467 c 1,24,-1
 588.446044157 89.9328522555 l 2,25,26
 597.37336433 80.4311225528 597.37336433 80.4311225528 602.186682165 66.7933886865 c 128,-1,27
 607 53.1556548203 607 53.1556548203 607 41 c 0,28,29
 607 9.90030827278 607 9.90030827278 584.869494226 -13.0498458636 c 128,-1,30
 562.738988451 -36 562.738988451 -36 528.293852166 -36 c 128,-1,31
 493.848715882 -36 493.848715882 -36 470.89014073 -8.12173017292 c 2,32,-1
 434.646421866 35.6206891455 l 1,33,34
 404.804108541 7.03438836303 404.804108541 7.03438836303 369.071696661 -11.997004921 c 0,35,36
 316.494644676 -40 316.494644676 -40 256.670279755 -40 c 128,-1,37
 196.845914834 -40 196.845914834 -40 142.804869651 -12.6950508551 c 128,-1,38
 88.7638244687 14.6098982899 88.7638244687 14.6098982899 53.3819122343 65.0726255749 c 128,-1,39
 18 115.53535286 18 115.53535286 18 181 c 0,40,41
 18 262.516185132 18 262.516185132 60.5627473971 315.719619379 c 0,42,43
 91.5051688468 354.397646191 91.5051688468 354.397646191 139.147772223 386.557896184 c 1,44,45
 97 452 97 452 97 515 c 0,46,47
 97 562.643741664 97 562.643741664 123.261562952 604.423500907 c 128,-1,48
 149.523125905 646.203260149 149.523125905 646.203260149 192.206045777 671.101630074 c 128,-1,49
 234.888965649 696 234.888965649 696 283 696 c 128,-1,50
 331.111034351 696 331.111034351 696 373.749080958 671.127806145 c 128,-1,51
 416.387127566 646.255612291 416.387127566 646.255612291 442.693563783 605.002337314 c 128,-1,52
 469 563.749062338 469 563.749062338 469 517 c 0,53,54
 469 452.822680945 469 452.822680945 437.879342879 406.740169439 c 0,55,56
 415.628318545 373.791537252 415.628318545 373.791537252 376.345091431 345.301935353 c 1,57,-1
 409.433548838 305.069379188 l 1,58,59
 415.703632123 318.132909883 415.703632123 318.132909883 424.221374501 327.123860172 c 0,60,61
 442.104033286 346 442.104033286 346 475.761060393 346 c 128,-1,21
 509.4180875 346 509.4180875 346 531.70904375 323.70904375 c 128,-1,22
EndSplineSet
Validated: 524289
EndChar

StartChar: quotesingle
Encoding: 39 39 9
Width: 206
Flags: W
LayerCount: 2
Fore
SplineSet
30 496 m 2,0,-1
 30 618 l 2,1,2
 30 650.4180875 30 650.4180875 52.79095625 673.20904375 c 128,-1,3
 75.5819125 696 75.5819125 696 107.5 696 c 128,-1,4
 139.4180875 696 139.4180875 696 162.70904375 672.70904375 c 128,-1,5
 186 649.4180875 186 649.4180875 186 618 c 2,6,-1
 186 496 l 2,7,8
 186 463.272312111 186 463.272312111 162.5554098 440.636156055 c 128,-1,9
 139.1108196 418 139.1108196 418 107.423183025 418 c 128,-1,10
 75.5819125 418 75.5819125 418 52.79095625 440.79095625 c 128,-1,11
 30 463.5819125 30 463.5819125 30 496 c 2,0,-1
EndSplineSet
Validated: 524289
EndChar

StartChar: parenleft
Encoding: 40 40 10
Width: 357
VWidth: 950
Flags: W
LayerCount: 2
Fore
SplineSet
217.375976562 715.778320312 m 0,0,1
 245.0546875 742 245.0546875 742 275.236328125 742 c 128,-1,2
 305.41796875 742 305.41796875 742 328.708984375 718.708984375 c 128,-1,3
 352 695.41796875 352 695.41796875 352 663 c 0,4,5
 352 625.334960938 352 625.334960938 322.674804688 602.526367188 c 0,6,7
 264.469726562 556.14453125 264.469726562 556.14453125 225.234375 467.399414062 c 128,-1,8
 186 378.654296875 186 378.654296875 186 282.953125 c 128,-1,9
 186 187.159179688 186 187.159179688 225.19921875 95.537109375 c 128,-1,10
 264.397460938 3.916015625 264.397460938 3.916015625 316.366210938 -49.94921875 c 0,11,12
 340 -73.837890625 340 -73.837890625 340 -106.43359375 c 128,-1,13
 340 -139.028320312 340 -139.028320312 315.908203125 -161.514648438 c 128,-1,14
 291.81640625 -184 291.81640625 -184 262 -184 c 0,15,16
 223.845703125 -184 223.845703125 -184 197.80859375 -153.022460938 c 0,17,18
 30 47 30 47 30 286 c 0,19,20
 30 410.458007812 30 410.458007812 80.5458984375 522.606445312 c 128,-1,21
 131.091796875 634.755859375 131.091796875 634.755859375 217.375976562 715.778320312 c 0,0,1
EndSplineSet
EndChar

StartChar: parenright
Encoding: 41 41 11
Width: 357
VWidth: 950
Flags: W
LayerCount: 2
Fore
SplineSet
95 -184 m 0,0,1
 65.18359375 -184 65.18359375 -184 41.091796875 -161.5 c 128,-1,2
 17 -139 17 -139 17 -106.37109375 c 128,-1,3
 17 -73.7421875 17 -73.7421875 40.580078125 -50.0029296875 c 0,4,5
 92.6328125 3.98828125 92.6328125 3.98828125 131.81640625 95.57421875 c 128,-1,6
 171 187.159179688 171 187.159179688 171 282.953125 c 128,-1,7
 171 378.654296875 171 378.654296875 131.764648438 467.401367188 c 128,-1,8
 92.5283203125 556.1484375 92.5283203125 556.1484375 34.6044921875 602.306640625 c 0,9,10
 5 625.333007812 5 625.333007812 5 663 c 0,11,12
 5 695.41796875 5 695.41796875 28.291015625 718.708984375 c 128,-1,13
 51.58203125 742 51.58203125 742 81.763671875 742 c 128,-1,14
 111.9453125 742 111.9453125 742 139.526367188 715.870117188 c 0,15,16
 225.907226562 634.756835938 225.907226562 634.756835938 276.454101562 522.607421875 c 128,-1,17
 327 410.458007812 327 410.458007812 327 286 c 0,18,19
 327 51.265625 327 51.265625 158.758789062 -153.549804688 c 0,20,21
 131.353515625 -184 131.353515625 -184 95 -184 c 0,0,1
EndSplineSet
EndChar

StartChar: asterisk
Encoding: 42 42 12
Width: 379
Flags: W
LayerCount: 2
Fore
SplineSet
44 439 m 0,0,1
 44 472.605844737 44 472.605844737 69.3195541501 498.266560217 c 1,2,3
 43.9649366817 506.282306946 43.9649366817 506.282306946 29.4824683408 525.024324114 c 128,-1,4
 15 543.766341281 15 543.766341281 15 570.713732844 c 128,-1,5
 15 597.661124407 15 597.661124407 34.4053179803 618.830562203 c 128,-1,6
 53.8106359606 640 53.8106359606 640 83.8966006317 640 c 0,7,8
 101.501203909 640 101.501203909 640 120.044016984 632.281503173 c 1,9,10
 120.931657056 665.131323884 120.931657056 665.131323884 140.042389479 687.565661942 c 128,-1,11
 159.153121902 710 159.153121902 710 192.163806184 710 c 128,-1,12
 225.174490467 710 225.174490467 710 245.139375859 685.694922131 c 0,13,14
 262.719232961 664.293356963 262.719232961 664.293356963 263.915600047 632.524721899 c 1,15,16
 279.331781645 638 279.331781645 638 294.235665031 638 c 0,17,18
 322.661124407 638 322.661124407 638 343.830562203 618.59468202 c 128,-1,19
 365 599.189364039 365 599.189364039 365 571.290288803 c 128,-1,20
 365 543.391213566 365 543.391213566 349.009514916 521.004534448 c 0,21,22
 336.021314931 502.82105447 336.021314931 502.82105447 314.670837429 495.554159433 c 1,23,24
 337 471.840043853 337 471.840043853 337 443.763908026 c 128,-1,25
 337 415.6877722 337 415.6877722 317.777380232 393.8438861 c 128,-1,26
 298.554760464 372 298.554760464 372 268 372 c 0,27,28
 219.189969298 372 219.189969298 372 192.567285479 420.808253667 c 0,29,30
 191.407895011 422.961407393 191.407895011 422.961407393 190.250575566 425.156014968 c 1,31,32
 176.590966387 399.847454535 176.590966387 399.847454535 156.556189093 385.977224101 c 128,-1,33
 136.366865392 372 136.366865392 372 113 372 c 0,34,35
 83.5819125 372 83.5819125 372 63.79095625 391.79095625 c 128,-1,36
 44 411.5819125 44 411.5819125 44 439 c 0,0,1
EndSplineSet
Validated: 524289
EndChar

StartChar: plus
Encoding: 43 43 13
Width: 440
Flags: W
LayerCount: 2
Fore
SplineSet
297 167 m 1,0,-1
 297 118 l 2,1,2
 297 86.9003082728 297 86.9003082728 274.869494226 63.9501541364 c 128,-1,3
 252.738988451 41 252.738988451 41 220.580225238 41 c 128,-1,4
 188.5819125 41 188.5819125 41 165.79095625 63.79095625 c 128,-1,5
 143 86.5819125 143 86.5819125 143 118 c 2,6,-1
 143 167 l 1,7,-1
 93 167 l 2,8,9
 60.5819125 167 60.5819125 167 37.79095625 189.79095625 c 128,-1,10
 15 212.5819125 15 212.5819125 15 245.160450476 c 128,-1,11
 15 277.738988451 15 277.738988451 37.9501541364 299.869494226 c 128,-1,12
 60.9003082728 322 60.9003082728 322 93 322 c 2,13,-1
 143 322 l 1,14,-1
 143 362 l 2,15,16
 143 394.738988451 143 394.738988451 165.950154136 416.869494226 c 128,-1,17
 188.900308273 439 188.900308273 439 220.579598943 439 c 128,-1,18
 252.4180875 439 252.4180875 439 274.70904375 416.70904375 c 128,-1,19
 297 394.4180875 297 394.4180875 297 362 c 2,20,-1
 297 322 l 1,21,-1
 348 322 l 2,22,23
 380.4180875 322 380.4180875 322 402.70904375 299.70904375 c 128,-1,24
 425 277.4180875 425 277.4180875 425 245.159197886 c 128,-1,25
 425 212.900308273 425 212.900308273 402.869494226 189.950154136 c 128,-1,26
 380.738988451 167 380.738988451 167 348 167 c 2,27,-1
 297 167 l 1,0,-1
EndSplineSet
Validated: 524321
EndChar

StartChar: comma
Encoding: 44 44 14
Width: 191
Flags: W
LayerCount: 2
Fore
SplineSet
10 46 m 0,0,1
 10 82.9457426429 10 82.9457426429 36.5520166428 110.972871321 c 128,-1,2
 63.1040332857 139 63.1040332857 139 98.2610603928 139 c 128,-1,3
 133.4180875 139 133.4180875 139 157.20904375 115.20904375 c 128,-1,4
 181 91.4180875 181 91.4180875 181 57.6826732955 c 128,-1,5
 181 23.947259091 181 23.947259091 144.662687752 -62.6210436174 c 0,6,7
 134.383156021 -87.0349314793 134.383156021 -87.0349314793 117.90062176 -103.51746574 c 128,-1,8
 101.4180875 -120 101.4180875 -120 70.5 -120 c 128,-1,9
 39.5819125 -120 39.5819125 -120 18.29095625 -98.70904375 c 128,-1,10
 -3 -77.4180875 -3 -77.4180875 -3 -48 c 0,11,12
 -3 -34.5467989283 -3 -34.5467989283 1.97311335173 -21.2851633237 c 2,13,-1
 15.5015187445 14.0390063131 l 1,14,15
 10 29.1998065988 10 29.1998065988 10 46 c 0,0,1
EndSplineSet
Validated: 524289
EndChar

StartChar: hyphen
Encoding: 45 45 15
Width: 409
Flags: W
LayerCount: 2
Fore
SplineSet
92 321 m 2,0,-1
 317 321 l 2,1,2
 349.4180875 321 349.4180875 321 371.70904375 298.70904375 c 128,-1,3
 394 276.4180875 394 276.4180875 394 244.5 c 128,-1,4
 394 212.5819125 394 212.5819125 371.20904375 189.79095625 c 128,-1,5
 348.4180875 167 348.4180875 167 317 167 c 2,6,-1
 92 167 l 2,7,8
 61.8891804002 167 61.8891804002 167 38.4445902001 189.636156055 c 128,-1,9
 15 212.272312111 15 212.272312111 15 244 c 128,-1,10
 15 275.727687889 15 275.727687889 38.4445902001 298.363843945 c 128,-1,11
 61.8891804002 321 61.8891804002 321 92 321 c 2,0,-1
EndSplineSet
Validated: 524321
EndChar

StartChar: period
Encoding: 46 46 16
Width: 181
Flags: W
LayerCount: 2
Fore
SplineSet
88.5340789334 145 m 128,-1,1
 124.263495793 145 124.263495793 145 147.631747897 119.294922686 c 128,-1,2
 171 93.5898453725 171 93.5898453725 171 56.9110256824 c 128,-1,3
 171 20.0542573571 171 20.0542573571 144.447983357 -7.97287132144 c 128,-1,4
 117.895966714 -36 117.895966714 -36 81.6644193511 -36 c 128,-1,5
 45.4328719878 -36 45.4328719878 -36 22.7164359939 -10.1502624897 c 128,-1,6
 -8.66240317901e-16 15.6994750206 -8.66240317901e-16 15.6994750206 -4.33120158951e-16 51.7102933759 c 128,-1,7
 0 87.7211117312 0 87.7211117312 26.4364099702 116.360555866 c 128,-1,0
 52.8728199404 145 52.8728199404 145 88.5340789334 145 c 128,-1,1
EndSplineSet
Validated: 524289
EndChar

StartChar: slash
Encoding: 47 47 17
Width: 438
Flags: W
LayerCount: 2
Fore
SplineSet
369 713 m 0,0,1
 399.4180875 713 399.4180875 713 420.70904375 691.70904375 c 128,-1,2
 442 670.4180875 442 670.4180875 442 642 c 0,3,4
 442 625.83357492 442 625.83357492 430.681579228 599.423926451 c 2,5,-1
 132.497081329 -112.016268199 l 2,6,7
 124.666361373 -129.6353881 124.666361373 -129.6353881 106.599315126 -140.81769405 c 128,-1,8
 88.5322688789 -152 88.5322688789 -152 68 -152 c 0,9,10
 37.307645001 -152 37.307645001 -152 15.6538225005 -132 c 128,-1,11
 -6 -112 -6 -112 -6 -82 c 0,12,13
 -6 -62.8068930049 -6 -62.8068930049 3.40728789728 -41.212291283 c 2,14,-1
 302.294332843 670.518432694 l 2,15,16
 312.052570849 693.938203908 312.052570849 693.938203908 333.18773126 704.9056385 c 0,17,18
 348.786240401 713 348.786240401 713 369 713 c 0,0,1
EndSplineSet
Validated: 524289
EndChar

StartChar: zero
Encoding: 48 48 18
Width: 542
VWidth: 1100
Flags: W
LayerCount: 2
Fore
SplineSet
358 202 m 0,0,1
 358 297 358 297 351.5 341.5 c 128,-1,2
 345 386 345 386 329 404 c 128,-1,3
 313 422 313 422 280 422 c 0,4,5
 235 422 235 422 209.5 413.5 c 128,-1,6
 184 405 184 405 167.5 380 c 128,-1,7
 151 355 151 355 145.5 315.5 c 128,-1,8
 140 276 140 276 140 209 c 0,9,10
 140 62 140 62 179 -4.5 c 128,-1,11
 218 -71 218 -71 288 -44 c 0,12,13
 326 -29 326 -29 342 26.5 c 128,-1,14
 358 82 358 82 358 202 c 0,0,1
106 528 m 0,15,16
 175 577 175 577 222 588 c 128,-1,17
 269 599 269 599 314 577 c 128,-1,18
 359 555 359 555 423 491 c 0,19,20
 482 432 482 432 507 367.5 c 128,-1,21
 532 303 532 303 532 209 c 0,22,23
 532 151 532 151 530.5 114 c 128,-1,24
 529 77 529 77 523.5 41.5 c 128,-1,25
 518 6 518 6 510.5 -13.5 c 128,-1,26
 503 -33 503 -33 486.5 -51 c 128,-1,27
 470 -69 470 -69 451.5 -77 c 128,-1,28
 433 -85 433 -85 400 -91 c 128,-1,29
 367 -97 367 -97 332.5 -98.5 c 128,-1,30
 298 -100 298 -100 245 -100 c 2,31,-1
 10 -100 l 1,32,-1
 10 180 l 2,33,34
 10 305 10 305 17.5 366.5 c 128,-1,35
 25 428 25 428 44 463 c 128,-1,36
 63 498 63 498 106 528 c 0,15,16
EndSplineSet
EndChar

StartChar: one
Encoding: 49 49 19
Width: 455
VWidth: 1100
Flags: W
LayerCount: 2
Fore
SplineSet
84 550 m 0,0,1
 88 552 88 552 96 556 c 0,2,3
 152 589 152 589 169.5 591.5 c 128,-1,4
 187 594 187 594 235 575 c 0,5,6
 241 572 241 572 245 571 c 0,7,8
 285 555 285 555 299.5 486.5 c 128,-1,9
 314 418 314 418 314 246 c 0,10,11
 314 27 314 27 334 -13 c 0,12,13
 347 -40 347 -40 380 -28 c 0,14,15
 406 -19 406 -19 425.5 -26 c 128,-1,16
 445 -33 445 -33 445 -52 c 0,17,18
 445 -74 445 -74 385 -87 c 128,-1,19
 325 -100 325 -100 227.5 -100 c 128,-1,20
 130 -100 130 -100 70 -87 c 128,-1,21
 10 -74 10 -74 10 -52 c 0,22,23
 10 -33 10 -33 29.5 -26 c 128,-1,24
 49 -19 49 -19 75 -28.5 c 128,-1,25
 101 -38 101 -38 122 -29.5 c 128,-1,26
 143 -21 143 -21 145 0 c 0,27,28
 148 39 148 39 153 86 c 128,-1,29
 158 133 158 133 161 160 c 128,-1,30
 164 187 164 187 166.5 218.5 c 128,-1,31
 169 250 169 250 168 267.5 c 128,-1,32
 167 285 167 285 163 304 c 128,-1,33
 159 323 159 323 150 333 c 128,-1,34
 141 343 141 343 127 352 c 128,-1,35
 113 361 113 361 93 367 c 0,36,37
 42 380 42 380 22 412.5 c 128,-1,38
 2 445 2 445 18.5 483 c 128,-1,39
 35 521 35 521 84 550 c 0,0,1
EndSplineSet
EndChar

StartChar: two
Encoding: 50 50 20
Width: 512
VWidth: 1100
Flags: W
LayerCount: 2
Fore
SplineSet
133 543 m 0,0,1
 221 593 221 593 271 590 c 128,-1,2
 321 587 321 587 407 527 c 0,3,4
 472 482 472 482 493 410 c 128,-1,5
 514 338 514 338 488 260 c 128,-1,6
 462 182 462 182 394 118 c 0,7,8
 348 76 348 76 316.5 38 c 128,-1,9
 285 0 285 0 285 -13 c 128,-1,10
 285 -26 285 -26 316.5 -29 c 128,-1,11
 348 -32 348 -32 394 -24 c 0,12,13
 443 -15 443 -15 472.5 -23 c 128,-1,14
 502 -31 502 -31 502 -52 c 0,15,16
 502 -75 502 -75 437.5 -87.5 c 128,-1,17
 373 -100 373 -100 259 -100 c 2,18,-1
 15 -100 l 1,19,-1
 172 91 l 2,20,21
 236 170 236 170 282 247 c 128,-1,22
 328 324 328 324 328 352 c 0,23,24
 328 375 328 375 312 392 c 128,-1,25
 296 409 296 409 271.5 415.5 c 128,-1,26
 247 422 247 422 221.5 421.5 c 128,-1,27
 196 421 196 421 174.5 408 c 128,-1,28
 153 395 153 395 146 374 c 0,29,30
 128 322 128 322 55 363 c 0,31,32
 -5 396 -5 396 15 442 c 128,-1,33
 35 488 35 488 133 543 c 0,0,1
EndSplineSet
EndChar

StartChar: three
Encoding: 51 51 21
Width: 469
VWidth: 1100
Flags: W
LayerCount: 2
Fore
SplineSet
84 548 m 0,0,1
 139 580 139 580 193.5 588 c 128,-1,2
 248 596 248 596 293 580.5 c 128,-1,3
 338 565 338 565 373 531 c 128,-1,4
 408 497 408 497 427 442.5 c 128,-1,5
 446 388 446 388 446 322 c 0,6,7
 445 183 445 183 456 52 c 0,8,9
 458 28 458 28 459 16.5 c 128,-1,10
 460 5 460 5 458.5 -11 c 128,-1,11
 457 -27 457 -27 456.5 -33.5 c 128,-1,12
 456 -40 456 -40 448.5 -50 c 128,-1,13
 441 -60 441 -60 436.5 -63 c 128,-1,14
 432 -66 432 -66 415.5 -72 c 128,-1,15
 399 -78 399 -78 387.5 -79 c 128,-1,16
 376 -80 376 -80 348 -83.5 c 128,-1,17
 320 -87 320 -87 300 -88 c 128,-1,18
 280 -89 280 -89 238 -91 c 0,19,20
 134 -97 134 -97 72 -88.5 c 128,-1,21
 10 -80 10 -80 10 -59 c 0,22,23
 10 -39 10 -39 50 -29 c 128,-1,24
 90 -19 90 -19 149 -24 c 0,25,26
 227 -30 227 -30 261 -15.5 c 128,-1,27
 295 -1 295 -1 303 41 c 0,28,29
 312 83 312 83 290 100 c 128,-1,30
 268 117 268 117 206 117 c 0,31,32
 163 117 163 117 135.5 130 c 128,-1,33
 108 143 108 143 101.5 163 c 128,-1,34
 95 183 95 183 102.5 206.5 c 128,-1,35
 110 230 110 230 138.5 253.5 c 128,-1,36
 167 277 167 277 210 293 c 0,37,38
 290 323 290 323 294 361 c 0,39,40
 296 388 296 388 254 400 c 0,41,42
 208 413 208 413 136 397.5 c 128,-1,43
 64 382 64 382 37 390.5 c 128,-1,44
 10 399 10 399 10 437 c 0,45,46
 10 464 10 464 32.5 497 c 128,-1,47
 55 530 55 530 84 548 c 0,0,1
EndSplineSet
EndChar

StartChar: four
Encoding: 52 52 22
Width: 498
VWidth: 1100
Flags: W
LayerCount: 2
Fore
SplineSet
158 563 m 0,0,1
 224 609 224 609 248 587.5 c 128,-1,2
 272 566 272 566 251 478 c 2,3,-1
 199 259 l 2,4,5
 185 200 185 200 198.5 180.5 c 128,-1,6
 212 161 212 161 267 161 c 0,7,8
 292 161 292 161 307 165.5 c 128,-1,9
 322 170 322 170 333 181.5 c 128,-1,10
 344 193 344 193 349 219.5 c 128,-1,11
 354 246 354 246 356 281.5 c 128,-1,12
 358 317 358 317 358 378 c 0,13,14
 358 502 358 502 372 549 c 128,-1,15
 386 596 386 596 423 596 c 0,16,17
 443 596 443 596 455 581 c 128,-1,18
 467 566 467 566 475 525.5 c 128,-1,19
 483 485 483 485 485.5 420.5 c 128,-1,20
 488 356 488 356 488 248 c 128,-1,21
 488 140 488 140 485.5 75.5 c 128,-1,22
 483 11 483 11 475 -30 c 128,-1,23
 467 -71 467 -71 455 -85.5 c 128,-1,24
 443 -100 443 -100 423 -100 c 0,25,26
 397 -100 397 -100 377.5 -80.5 c 128,-1,27
 358 -61 358 -61 358 -35 c 0,28,29
 358 1 358 1 318 15.5 c 128,-1,30
 278 30 278 30 184 30 c 0,31,32
 112 30 112 30 61 44.5 c 128,-1,33
 10 59 10 59 10 78 c 0,34,35
 10 130 10 130 38 242.5 c 128,-1,36
 66 355 66 355 102 452 c 128,-1,37
 138 549 138 549 158 563 c 0,0,1
EndSplineSet
EndChar

StartChar: five
Encoding: 53 53 23
Width: 498
VWidth: 1100
Flags: W
LayerCount: 2
Fore
SplineSet
73 539 m 0,0,1
 84 566 84 566 168.5 583 c 128,-1,2
 253 600 253 600 343.5 597 c 128,-1,3
 434 594 434 594 458 570 c 0,4,5
 475 553 475 553 476.5 532 c 128,-1,6
 478 511 478 511 465 492 c 128,-1,7
 452 473 452 473 430 457 c 128,-1,8
 408 441 408 441 376 431.5 c 128,-1,9
 344 422 344 422 310 422 c 0,10,11
 251 422 251 422 217.5 405.5 c 128,-1,12
 184 389 184 389 184 361 c 0,13,14
 184 337 184 337 206 322 c 128,-1,15
 228 307 228 307 258 312 c 0,16,17
 318 321 318 321 371 287 c 128,-1,18
 424 253 424 253 456 187.5 c 128,-1,19
 488 122 488 122 488 43 c 2,20,-1
 488 -100 l 1,21,-1
 249 -100 l 2,22,23
 145 -100 145 -100 77.5 -87 c 128,-1,24
 10 -74 10 -74 10 -54 c 0,25,26
 10 -35 10 -35 51.5 -25.5 c 128,-1,27
 93 -16 93 -16 151 -22 c 0,28,29
 239 -30 239 -30 268.5 -14 c 128,-1,30
 298 2 298 2 306 63 c 0,31,32
 309 91 309 91 308.5 106 c 128,-1,33
 308 121 308 121 301 133.5 c 128,-1,34
 294 146 294 146 279 148.5 c 128,-1,35
 264 151 264 151 238.5 153 c 128,-1,36
 213 155 213 155 175 150 c 0,37,38
 148 148 148 148 136 147 c 128,-1,39
 124 146 124 146 105.5 146.5 c 128,-1,40
 87 147 87 147 81 147 c 128,-1,41
 75 147 75 147 64 153 c 128,-1,42
 53 159 53 159 50.5 162 c 128,-1,43
 48 165 48 165 43.5 178 c 128,-1,44
 39 191 39 191 39 198.5 c 128,-1,45
 39 206 39 206 38.5 228.5 c 128,-1,46
 38 251 38 251 39.5 265.5 c 128,-1,47
 41 280 41 280 43 313 c 0,48,49
 47 385 47 385 56 451.5 c 128,-1,50
 65 518 65 518 73 539 c 0,0,1
EndSplineSet
EndChar

StartChar: six
Encoding: 54 54 24
Width: 536
VWidth: 1100
Flags: W
LayerCount: 2
Fore
SplineSet
359 74 m 0,0,1
 359 114 359 114 334.5 138.5 c 128,-1,2
 310 163 310 163 275 161 c 128,-1,3
 240 159 240 159 211 130 c 0,4,5
 183 102 183 102 182.5 68 c 128,-1,6
 182 34 182 34 207 10.5 c 128,-1,7
 232 -13 232 -13 272 -13 c 0,8,9
 314 -13 314 -13 336.5 9.5 c 128,-1,10
 359 32 359 32 359 74 c 0,0,1
79 500 m 0,11,12
 130 572 130 572 196 586.5 c 128,-1,13
 262 601 262 601 389 567 c 0,14,15
 479 543 479 543 489 500 c 0,16,17
 498 463 498 463 445 440 c 0,18,19
 403 422 403 422 337 422 c 0,20,21
 259 422 259 422 222 406 c 128,-1,22
 185 390 185 390 185 357 c 0,23,24
 185 326 185 326 212.5 308.5 c 128,-1,25
 240 291 240 291 289 291 c 0,26,27
 357 291 357 291 410 265 c 128,-1,28
 463 239 463 239 491 195 c 128,-1,29
 519 151 519 151 525.5 93 c 128,-1,30
 532 35 532 35 506 -30 c 0,31,32
 493 -65 493 -65 422.5 -84 c 128,-1,33
 352 -103 352 -103 271.5 -103 c 128,-1,34
 191 -103 191 -103 120.5 -84 c 128,-1,35
 50 -65 50 -65 37 -30 c 0,36,37
 12 33 12 33 10 141 c 128,-1,38
 8 249 8 249 27 351 c 128,-1,39
 46 453 46 453 79 500 c 0,11,12
EndSplineSet
EndChar

StartChar: seven
Encoding: 55 55 25
Width: 420
VWidth: 1100
Flags: W
LayerCount: 2
Fore
SplineSet
10 509 m 0,0,1
 10 547 10 547 23 564.5 c 128,-1,2
 36 582 36 582 68.5 589 c 128,-1,3
 101 596 101 596 171 596 c 0,4,5
 215 596 215 596 245 595 c 128,-1,6
 275 594 275 594 303.5 589.5 c 128,-1,7
 332 585 332 585 349.5 580 c 128,-1,8
 367 575 367 575 381 563 c 128,-1,9
 395 551 395 551 401 538.5 c 128,-1,10
 407 526 407 526 409 502.5 c 128,-1,11
 411 479 411 479 407 455.5 c 128,-1,12
 403 432 403 432 394 394.5 c 128,-1,13
 385 357 385 357 373 319 c 128,-1,14
 361 281 361 281 343 226 c 0,15,16
 294 83 294 83 249 -1 c 128,-1,17
 204 -85 204 -85 171 -92 c 0,18,19
 120 -102 120 -102 110 -94 c 0,20,21
 97 -82 97 -82 123 1 c 0,22,23
 133 30 133 30 164 117 c 0,24,25
 182 170 182 170 195 211 c 128,-1,26
 208 252 208 252 216 286.5 c 128,-1,27
 224 321 224 321 226.5 346 c 128,-1,28
 229 371 229 371 227 390.5 c 128,-1,29
 225 410 225 410 216.5 420.5 c 128,-1,30
 208 431 208 431 195 438 c 128,-1,31
 182 445 182 445 162.5 444.5 c 128,-1,32
 143 444 143 444 119 440 c 0,33,34
 53 429 53 429 31.5 443 c 128,-1,35
 10 457 10 457 10 509 c 0,0,1
EndSplineSet
EndChar

StartChar: eight
Encoding: 56 56 26
Width: 497
VWidth: 1100
Flags: W
LayerCount: 2
Fore
SplineSet
305 50 m 0,0,1
 331 69 331 69 331 96 c 128,-1,2
 331 123 331 123 305.5 142 c 128,-1,3
 280 161 280 161 244 161 c 128,-1,4
 208 161 208 161 182.5 142 c 128,-1,5
 157 123 157 123 157 96 c 128,-1,6
 157 69 157 69 182.5 49.5 c 128,-1,7
 208 30 208 30 244 30 c 128,-1,8
 280 30 280 30 305 50 c 0,0,1
316 439 m 0,9,10
 300 482 300 482 274.5 497.5 c 128,-1,11
 249 513 249 513 223.5 497.5 c 128,-1,12
 198 482 198 482 182 439 c 0,13,14
 171 410 171 410 182 385 c 128,-1,15
 193 360 193 360 222 349 c 0,16,17
 287 324 287 324 314 350 c 128,-1,18
 341 376 341 376 316 439 c 0,9,10
100 592 m 0,19,20
 185 641 185 641 277.5 635.5 c 128,-1,21
 370 630 370 630 417 574 c 0,22,23
 450 534 450 534 470.5 397.5 c 128,-1,24
 491 261 491 261 487.5 126 c 128,-1,25
 484 -9 484 -9 456 -43 c 0,26,27
 436 -67 436 -67 372.5 -83.5 c 128,-1,28
 309 -100 309 -100 237 -100 c 0,29,30
 133 -100 133 -100 92 -81 c 128,-1,31
 51 -62 51 -62 29 -2 c 0,32,33
 14 37 14 37 10.5 78.5 c 128,-1,34
 7 120 7 120 18 137 c 0,35,36
 28 154 28 154 33 221 c 128,-1,37
 38 288 38 288 33 363 c 0,38,39
 27 467 27 467 41.5 517 c 128,-1,40
 56 567 56 567 100 592 c 0,19,20
EndSplineSet
EndChar

StartChar: nine
Encoding: 57 57 27
Width: 515
VWidth: 1100
Flags: W
LayerCount: 2
Fore
SplineSet
345 348 m 0,0,1
 340 384 340 384 319.5 415 c 128,-1,2
 299 446 299 446 276 454 c 0,3,4
 252 462 252 462 231 447.5 c 128,-1,5
 210 433 210 433 198.5 404.5 c 128,-1,6
 187 376 187 376 184.5 340 c 128,-1,7
 182 304 182 304 196 270 c 0,8,9
 215 219 215 219 264 226 c 0,10,11
 307 232 307 232 332 276 c 0,12,13
 351 309 351 309 345 348 c 0,0,1
79 517 m 0,14,15
 108 549 108 549 165.5 572.5 c 128,-1,16
 223 596 223 596 272 596 c 0,17,18
 350 596 350 596 399 562.5 c 128,-1,19
 448 529 448 529 475 453 c 128,-1,20
 502 377 502 377 504 254.5 c 128,-1,21
 506 132 506 132 491 -48 c 0,22,23
 489 -68 489 -68 443 -82 c 128,-1,24
 397 -96 397 -96 332.5 -99.5 c 128,-1,25
 268 -103 268 -103 204 -100.5 c 128,-1,26
 140 -98 140 -98 95 -85 c 128,-1,27
 50 -72 50 -72 50 -52 c 128,-1,28
 50 -32 50 -32 89 -22.5 c 128,-1,29
 128 -13 128 -13 187 -20 c 0,30,31
 249 -26 249 -26 291.5 -15.5 c 128,-1,32
 334 -5 334 -5 343 20 c 0,33,34
 352 44 352 44 330.5 59 c 128,-1,35
 309 74 309 74 263 74 c 0,36,37
 209 74 209 74 162 95 c 128,-1,38
 115 116 115 116 83 151 c 128,-1,39
 51 186 51 186 31.5 232.5 c 128,-1,40
 12 279 12 279 10 327.5 c 128,-1,41
 8 376 8 376 25.5 426 c 128,-1,42
 43 476 43 476 79 517 c 0,14,15
EndSplineSet
EndChar

StartChar: colon
Encoding: 58 58 28
Width: 207
Flags: W
LayerCount: 2
Fore
SplineSet
88.6103515625 130 m 128,-1,1
 117.783203125 130 117.783203125 130 136.391601562 108.825195312 c 128,-1,2
 155 87.650390625 155 87.650390625 155 56.8994140625 c 128,-1,3
 155 26.1484375 155 26.1484375 133.287109375 2.57421875 c 128,-1,4
 111.573242188 -21 111.573242188 -21 81.31640625 -21 c 128,-1,5
 51.05859375 -21 51.05859375 -21 33.029296875 0.2490234375 c 128,-1,6
 15 21.498046875 15 21.498046875 15 51.6787109375 c 128,-1,7
 15 81.8603515625 15 81.8603515625 37.2177734375 105.930664062 c 128,-1,0
 59.4365234375 130 59.4365234375 130 88.6103515625 130 c 128,-1,1
41 376.60546875 m 128,-1,9
 41 406.860351562 41 406.860351562 63.2177734375 430.930664062 c 128,-1,10
 85.4365234375 455 85.4365234375 455 114.465820312 455 c 128,-1,11
 143.494140625 455 143.494140625 455 162.747070312 434.463867188 c 128,-1,12
 182 413.927734375 182 413.927734375 182 383.09375 c 128,-1,13
 182 352.260742188 182 352.260742188 160.344726562 328.129882812 c 128,-1,14
 138.689453125 304 138.689453125 304 108.453125 304 c 128,-1,15
 78.216796875 304 78.216796875 304 59.6083984375 325.174804688 c 128,-1,8
 41 346.349609375 41 346.349609375 41 376.60546875 c 128,-1,9
EndSplineSet
EndChar

StartChar: semicolon
Encoding: 59 59 29
Width: 223
Flags: W
LayerCount: 2
Fore
SplineSet
25 46 m 0,0,1
 25 76.97265625 25 76.97265625 47.2763671875 100.486328125 c 128,-1,2
 69.5517578125 124 69.5517578125 124 98.380859375 124 c 128,-1,3
 127.208984375 124 127.208984375 124 146.604492188 104.604492188 c 128,-1,4
 166 85.208984375 166 85.208984375 166 56.091796875 c 128,-1,5
 166 26.9736328125 166 26.9736328125 130.831054688 -56.810546875 c 0,6,7
 121.69140625 -78.517578125 121.69140625 -78.517578125 108.450195312 -91.7587890625 c 128,-1,8
 95.208984375 -105 95.208984375 -105 70.5 -105 c 128,-1,9
 45.791015625 -105 45.791015625 -105 28.8955078125 -88.1044921875 c 128,-1,10
 12 -71.208984375 12 -71.208984375 12 -48 c 0,11,12
 12 -37.2734375 12 -37.2734375 15.986328125 -26.642578125 c 2,13,-1
 31.6181640625 14.1728515625 l 1,14,15
 25 28.99609375 25 28.99609375 25 46 c 0,0,1
58 376.678710938 m 128,-1,17
 58 406.860351562 58 406.860351562 80.2177734375 430.930664062 c 128,-1,18
 102.436523438 455 102.436523438 455 131.541015625 455 c 128,-1,19
 160.645507812 455 160.645507812 455 179.323242188 434.390625 c 128,-1,20
 198 413.78125 198 413.78125 198 383.020507812 c 128,-1,21
 198 352.260742188 198 352.260742188 176.344726562 328.129882812 c 128,-1,22
 154.689453125 304 154.689453125 304 124.374023438 304 c 128,-1,23
 94.05859375 304 94.05859375 304 76.029296875 325.249023438 c 128,-1,16
 58 346.498046875 58 346.498046875 58 376.678710938 c 128,-1,17
EndSplineSet
EndChar

StartChar: less
Encoding: 60 60 30
Width: 543
Flags: W
LayerCount: 2
Fore
SplineSet
92.6943359375 188.510742188 m 2,0,1
 65 206.973632812 65 206.973632812 65 241.603515625 c 128,-1,2
 65 276.233398438 65 276.233398438 93.9443359375 294.65234375 c 2,3,-1
 401.153320312 490.786132812 l 2,4,5
 417.75390625 501.001953125 417.75390625 501.001953125 435 501 c 0,6,7
 461.208984375 501 461.208984375 501 479.604492188 482.604492188 c 128,-1,8
 498 464.208984375 498 464.208984375 498 437 c 0,9,10
 498 422.3203125 498 422.3203125 490.201171875 407.372070312 c 128,-1,11
 482.401367188 392.422851562 482.401367188 392.422851562 468.88671875 384.239257812 c 2,12,-1
 243.473632812 240.7109375 l 1,13,-1
 452.58984375 101.299804688 l 2,14,15
 465.360351562 92.3603515625 465.360351562 92.3603515625 473.1796875 78.6728515625 c 128,-1,16
 481 64.984375 481 64.984375 481 49 c 0,17,18
 481 23.791015625 481 23.791015625 462.104492188 4.8955078125 c 128,-1,19
 443.208984375 -14 443.208984375 -14 418 -14 c 0,20,21
 399.154296875 -14 399.154296875 -14 382.734375 -3.5166015625 c 2,22,-1
 92.6943359375 188.510742188 l 2,0,1
EndSplineSet
EndChar

StartChar: equal
Encoding: 61 61 31
Width: 465
Flags: W
LayerCount: 2
Fore
SplineSet
57.8955078125 108.895507812 m 128,-1,1
 40 126.791015625 40 126.791015625 40 152.344726562 c 128,-1,2
 40 177.897460938 40 177.897460938 57.7373046875 196.94921875 c 128,-1,3
 75.474609375 216 75.474609375 216 102 216 c 2,4,-1
 362 216 l 2,5,6
 387.208984375 216 387.208984375 216 406.104492188 197.104492188 c 128,-1,7
 425 178.208984375 425 178.208984375 425 153 c 128,-1,8
 425 127.635742188 425 127.635742188 406.02734375 109.318359375 c 128,-1,9
 387.055664062 91 387.055664062 91 362 91 c 2,10,-1
 102 91 l 2,11,0
 75.791015625 91 75.791015625 91 57.8955078125 108.895507812 c 128,-1,1
57.8955078125 288.895507812 m 128,-1,13
 40 306.791015625 40 306.791015625 40 332.344726562 c 128,-1,14
 40 357.897460938 40 357.897460938 57.7373046875 376.94921875 c 128,-1,15
 75.474609375 396 75.474609375 396 102 396 c 2,16,-1
 362 396 l 2,17,18
 387.208984375 396 387.208984375 396 406.104492188 377.104492188 c 128,-1,19
 425 358.208984375 425 358.208984375 425 333 c 128,-1,20
 425 307.635742188 425 307.635742188 406.02734375 289.318359375 c 128,-1,21
 387.055664062 271 387.055664062 271 362 271 c 2,22,-1
 102 271 l 2,23,12
 75.791015625 271 75.791015625 271 57.8955078125 288.895507812 c 128,-1,13
EndSplineSet
EndChar

StartChar: greater
Encoding: 62 62 32
Width: 543
Flags: W
LayerCount: 2
Fore
SplineSet
62 49 m 0,0,1
 62 81.9248046875 62 81.9248046875 90.6943359375 101.489257812 c 2,2,-1
 299.526367188 240.7109375 l 1,3,-1
 74.11328125 384.239257812 l 2,4,5
 60.5986328125 392.422851562 60.5986328125 392.422851562 52.798828125 407.372070312 c 128,-1,6
 45 422.3203125 45 422.3203125 45 437 c 0,7,8
 45 464.208984375 45 464.208984375 63.3955078125 482.604492188 c 128,-1,9
 81.791015625 501 81.791015625 501 108 501 c 0,10,11
 125.24609375 501.001953125 125.24609375 501.001953125 141.846679688 490.786132812 c 2,12,-1
 449.037109375 294.6640625 l 2,13,14
 478 276.233398438 478 276.233398438 478 241.603515625 c 128,-1,15
 478 206.973632812 478 206.973632812 450.265625 188.483398438 c 2,16,-1
 159.845703125 -3.7841796875 l 2,17,18
 143.245117188 -14 143.245117188 -14 125 -14 c 0,19,20
 99.791015625 -14 99.791015625 -14 80.8955078125 4.8955078125 c 128,-1,21
 62 23.791015625 62 23.791015625 62 49 c 0,0,1
EndSplineSet
EndChar

StartChar: question
Encoding: 63 63 33
Width: 488
VWidth: 1100
Flags: W
LayerCount: 2
Fore
SplineSet
65 535 m 0,0,1
 99 560 99 560 149 578 c 128,-1,2
 199 596 199 596 234 596 c 0,3,4
 285 596 285 596 342.5 562.5 c 128,-1,5
 400 529 400 529 439 479.5 c 128,-1,6
 478 430 478 430 478 387 c 0,7,8
 478 351 478 351 421 270.5 c 128,-1,9
 364 190 364 190 292 120.5 c 128,-1,10
 220 51 220 51 182 43 c 0,11,12
 135 33 135 33 131 82 c 0,13,14
 125 142 125 142 178 222 c 0,15,16
 196 250 196 250 219 274 c 0,17,18
 291 351 291 351 286 404 c 0,19,20
 281 444 281 444 234 440 c 0,21,22
 204 438 204 438 165 417 c 0,23,24
 90 377 90 377 40 403 c 0,25,26
 1 424 1 424 12 466 c 0,27,28
 21 502 21 502 65 535 c 0,0,1
149 -87 m 0,29,30
 130 -74 130 -74 130 -56.5 c 128,-1,31
 130 -39 130 -39 149.5 -26 c 128,-1,32
 169 -13 169 -13 195 -13 c 128,-1,33
 221 -13 221 -13 241 -26 c 128,-1,34
 261 -39 261 -39 261 -56.5 c 128,-1,35
 261 -74 261 -74 241 -87 c 128,-1,36
 221 -100 221 -100 195 -100 c 128,-1,37
 169 -100 169 -100 149 -87 c 0,29,30
EndSplineSet
EndChar

StartChar: at
Encoding: 64 64 34
Width: 889
VWidth: 1100
Flags: W
LayerCount: 2
Fore
SplineSet
531 296 m 0,0,1
 531 311 531 311 511.5 323 c 128,-1,2
 492 335 492 335 466 335 c 128,-1,3
 440 335 440 335 420.5 323 c 128,-1,4
 401 311 401 311 401 296 c 0,5,6
 401 257 401 257 375 187 c 0,7,8
 362 154 362 154 372.5 135.5 c 128,-1,9
 383 117 383 117 414 117 c 0,10,11
 459 117 459 117 495 172 c 128,-1,12
 531 227 531 227 531 296 c 0,0,1
183 564 m 0,13,14
 252 625 252 625 332.5 657 c 128,-1,15
 413 689 413 689 489 689 c 128,-1,16
 565 689 565 689 636.5 662 c 128,-1,17
 708 635 708 635 761.5 585.5 c 128,-1,18
 815 536 815 536 847 462 c 128,-1,19
 879 388 879 388 879 300 c 0,20,21
 879 135 879 135 790 51.5 c 128,-1,22
 701 -32 701 -32 518 -38 c 0,23,24
 352 -44 352 -44 289.5 -2 c 128,-1,25
 227 40 227 40 227 157 c 0,26,27
 227 297 227 297 305 382.5 c 128,-1,28
 383 468 383 468 501 457 c 0,29,30
 534 453 534 453 554.5 449.5 c 128,-1,31
 575 446 575 446 592.5 437.5 c 128,-1,32
 610 429 610 429 619 418.5 c 128,-1,33
 628 408 628 408 635.5 387 c 128,-1,34
 643 366 643 366 646.5 342 c 128,-1,35
 650 318 650 318 653 278 c 0,36,37
 662 169 662 169 696 146 c 0,38,39
 720 130 720 130 736 175 c 0,40,41
 748 211 748 211 748 274 c 0,42,43
 748 424 748 424 688 488 c 128,-1,44
 628 552 628 552 488 552 c 0,45,46
 390 552 390 552 335 528 c 128,-1,47
 280 504 280 504 229 439 c 0,48,49
 147 335 147 335 142 198 c 128,-1,50
 137 61 137 61 212 -22 c 0,51,52
 231 -42 231 -42 240.5 -53 c 128,-1,53
 250 -64 250 -64 254.5 -74.5 c 128,-1,54
 259 -85 259 -85 256.5 -89 c 128,-1,55
 254 -93 254 -93 242 -96 c 128,-1,56
 230 -99 230 -99 214 -99.5 c 128,-1,57
 198 -100 198 -100 168 -100 c 0,58,59
 103 -100 103 -100 72 -75.5 c 128,-1,60
 41 -51 41 -51 25 13 c 0,61,62
 -10 160 -10 160 34 314.5 c 128,-1,63
 78 469 78 469 183 564 c 0,13,14
EndSplineSet
EndChar

StartChar: A
Encoding: 65 65 35
Width: 720
VWidth: 1100
Flags: W
LayerCount: 2
Fore
SplineSet
374 293 m 0,0,1
 374 312 374 312 362.5 323.5 c 128,-1,2
 351 335 351 335 331 335 c 0,3,4
 312 335 312 335 300 316 c 128,-1,5
 288 297 288 297 288 267 c 0,6,7
 288 220 288 220 316 221 c 0,8,9
 342 223 342 223 363 256 c 0,10,11
 374 275 374 275 374 293 c 0,0,1
140 348 m 0,12,13
 179 466 179 466 209.5 538.5 c 128,-1,14
 240 611 240 611 270.5 649.5 c 128,-1,15
 301 688 301 688 327.5 686.5 c 128,-1,16
 354 685 354 685 384.5 642 c 128,-1,17
 415 599 415 599 446 522.5 c 128,-1,18
 477 446 477 446 518 322 c 0,19,20
 635 -39 635 -39 635 -65 c 0,21,22
 635 -95 635 -95 575 -77 c 0,23,24
 509 -58 509 -58 467 -17 c 0,25,26
 451 -1 451 -1 445 13 c 0,27,28
 431 51 431 51 396 65.5 c 128,-1,29
 361 80 361 80 317.5 66.5 c 128,-1,30
 274 53 274 53 235 15 c 0,31,32
 167 -53 167 -53 93 -71 c 1,33,34
 32 -80 32 -80 27 -43 c 0,35,36
 27 -22 27 -22 60 93 c 128,-1,37
 93 208 93 208 140 348 c 0,12,13
EndSplineSet
EndChar

StartChar: B
Encoding: 66 66 36
Width: 568
VWidth: 1100
Flags: W
LayerCount: 2
Fore
SplineSet
351 191 m 0,0,1
 316 233 316 233 276.5 244 c 128,-1,2
 237 255 237 255 210.5 232 c 128,-1,3
 184 209 184 209 184 161 c 0,4,5
 184 118 184 118 204 96 c 128,-1,6
 224 74 224 74 262 74 c 0,7,8
 347 74 347 74 371.5 106 c 128,-1,9
 396 138 396 138 351 191 c 0,0,1
349 474 m 0,10,11
 342 495 342 495 322.5 510 c 128,-1,12
 303 525 303 525 280 529.5 c 128,-1,13
 257 534 257 534 235 532 c 128,-1,14
 213 530 213 530 198.5 516.5 c 128,-1,15
 184 503 184 503 184 483 c 0,16,17
 184 457 184 457 210 439.5 c 128,-1,18
 236 422 236 422 275 422 c 128,-1,19
 314 422 314 422 335.5 437 c 128,-1,20
 357 452 357 452 349 474 c 0,10,11
10 313 m 2,21,-1
 10 683 l 1,22,-1
 227 683 l 2,23,24
 410 683 410 683 479.5 609.5 c 128,-1,25
 549 536 549 536 517 378 c 0,26,27
 507 329 507 329 514 281 c 128,-1,28
 521 233 521 233 540 213 c 0,29,30
 557 197 557 197 558 169.5 c 128,-1,31
 559 142 559 142 547 112.5 c 128,-1,32
 535 83 535 83 513.5 52 c 128,-1,33
 492 21 492 21 465 -4 c 128,-1,34
 438 -29 438 -29 406 -46 c 128,-1,35
 374 -63 374 -63 345 -65 c 0,36,37
 267 -70 267 -70 174 -69 c 128,-1,38
 81 -68 81 -68 45 -62 c 0,39,40
 30 -60 30 -60 20 50 c 128,-1,41
 10 160 10 160 10 313 c 2,21,-1
EndSplineSet
EndChar

StartChar: C
Encoding: 67 67 37
Width: 559
VWidth: 1100
Flags: W
LayerCount: 2
Fore
SplineSet
96 596 m 0,0,1
 147 653 147 653 194.5 667.5 c 128,-1,2
 242 682 242 682 330 667 c 0,3,4
 463 645 463 645 506.5 610 c 128,-1,5
 550 575 550 575 513 517 c 0,6,7
 494 487 494 487 460.5 483.5 c 128,-1,8
 427 480 427 480 369 503 c 0,9,10
 258 545 258 545 209 493.5 c 128,-1,11
 160 442 160 442 160 283 c 0,12,13
 160 139 160 139 222 97.5 c 128,-1,14
 284 56 284 56 404 119 c 0,15,16
 446 141 446 141 484.5 149.5 c 128,-1,17
 523 158 523 158 534 148 c 0,18,19
 548 134 548 134 549 108 c 128,-1,20
 550 82 550 82 539.5 54 c 128,-1,21
 529 26 529 26 512.5 0 c 128,-1,22
 496 -26 496 -26 473.5 -43.5 c 128,-1,23
 451 -61 451 -61 430 -62 c 0,24,25
 356 -65 356 -65 280 -78 c 0,26,27
 247 -84 247 -84 199 -66.5 c 128,-1,28
 151 -49 151 -49 112 -18 c 0,29,30
 66 19 66 19 39 102.5 c 128,-1,31
 12 186 12 186 9.5 277 c 128,-1,32
 7 368 7 368 29.5 457.5 c 128,-1,33
 52 547 52 547 96 596 c 0,0,1
EndSplineSet
EndChar

StartChar: D
Encoding: 68 68 38
Width: 588
VWidth: 1100
Flags: W
LayerCount: 2
Fore
SplineSet
374 513 m 0,0,1
 344 517 344 517 294 526 c 0,2,3
 217 539 217 539 195 531 c 0,4,5
 160 519 160 519 150 445 c 0,6,7
 143 394 143 394 143 283 c 0,8,9
 143 245 143 245 143 225.5 c 128,-1,10
 143 206 143 206 144.5 181 c 128,-1,11
 146 156 146 156 147 144.5 c 128,-1,12
 148 133 148 133 152 118.5 c 128,-1,13
 156 104 156 104 159 99 c 128,-1,14
 162 94 162 94 170.5 87.5 c 128,-1,15
 179 81 179 81 185.5 80.5 c 128,-1,16
 192 80 192 80 206 79 c 128,-1,17
 220 78 220 78 231 79 c 128,-1,18
 242 80 242 80 263 83 c 0,19,20
 292 86 292 86 309.5 89.5 c 128,-1,21
 327 93 327 93 342.5 103.5 c 128,-1,22
 358 114 358 114 365.5 126.5 c 128,-1,23
 373 139 373 139 379.5 165 c 128,-1,24
 386 191 386 191 389 221 c 128,-1,25
 392 251 392 251 396 302 c 0,26,27
 401 387 401 387 394.5 449 c 128,-1,28
 388 511 388 511 374 513 c 0,0,1
39 652 m 0,29,30
 52 665 52 665 115 674 c 128,-1,31
 178 683 178 683 256 683 c 0,32,33
 428 683 428 683 503 595.5 c 128,-1,34
 578 508 578 508 578 309 c 0,35,36
 578 87 578 87 457.5 -0.5 c 128,-1,37
 337 -88 337 -88 69 -61 c 0,38,39
 43 -58 43 -58 25 108.5 c 128,-1,40
 7 275 7 275 10 451 c 128,-1,41
 13 627 13 627 39 652 c 0,29,30
EndSplineSet
EndChar

StartChar: E
Encoding: 69 69 39
Width: 498
VWidth: 1100
Flags: W
LayerCount: 2
Fore
SplineSet
10 -100 m 1,0,-1
 10 639 l 1,1,-1
 227 639 l 2,2,3
 319 639 319 639 382 626.5 c 128,-1,4
 445 614 445 614 445 596 c 2,5,-1
 445 520 l 2,6,7
 445 506 445 506 419.5 495 c 128,-1,8
 394 484 394 484 358 481 c 0,9,10
 305 478 305 478 277.5 475 c 128,-1,11
 250 472 250 472 228 467.5 c 128,-1,12
 206 463 206 463 198.5 455 c 128,-1,13
 191 447 191 447 187.5 437 c 128,-1,14
 184 427 184 427 184 409 c 0,15,16
 184 385 184 385 217 369 c 128,-1,17
 250 353 250 353 299 354 c 0,18,19
 414 357 414 357 425 280 c 0,20,21
 431 237 431 237 406.5 220.5 c 128,-1,22
 382 204 382 204 310 204 c 128,-1,23
 238 204 238 204 211 185.5 c 128,-1,24
 184 167 184 167 184 117 c 0,25,26
 184 65 184 65 214.5 47.5 c 128,-1,27
 245 30 245 30 336 30 c 0,28,29
 414 30 414 30 451 14.5 c 128,-1,30
 488 -1 488 -1 488 -35 c 0,31,32
 488 -72 488 -72 437 -86 c 128,-1,33
 386 -100 386 -100 249 -100 c 2,34,-1
 10 -100 l 1,0,-1
EndSplineSet
EndChar

StartChar: F
Encoding: 70 70 40
Width: 455
VWidth: 1100
Flags: W
LayerCount: 2
Fore
SplineSet
10 270 m 2,0,-1
 10 639 l 1,1,-1
 227 639 l 2,2,3
 319 639 319 639 364 632.5 c 128,-1,4
 409 626 409 626 427 610 c 128,-1,5
 445 594 445 594 445 561 c 0,6,7
 445 517 445 517 418.5 501.5 c 128,-1,8
 392 486 392 486 323 489 c 0,9,10
 212 495 212 495 178 477 c 128,-1,11
 144 459 144 459 166 404 c 0,12,13
 175 382 175 382 213.5 368 c 128,-1,14
 252 354 252 354 295 359 c 0,15,16
 353 365 353 365 377 348.5 c 128,-1,17
 401 332 401 332 401 287 c 128,-1,18
 401 242 401 242 376 223 c 128,-1,19
 351 204 351 204 293 204 c 0,20,21
 247 204 247 204 214 188.5 c 128,-1,22
 181 173 181 173 180 150 c 0,23,24
 176 108 176 108 163.5 48.5 c 128,-1,25
 151 -11 151 -11 147 -46 c 0,26,27
 144 -67 144 -67 122.5 -83.5 c 128,-1,28
 101 -100 101 -100 75 -100 c 0,29,30
 55 -100 55 -100 43 -85 c 128,-1,31
 31 -70 31 -70 23 -27 c 128,-1,32
 15 16 15 16 12.5 84.5 c 128,-1,33
 10 153 10 153 10 270 c 2,0,-1
EndSplineSet
EndChar

StartChar: G
Encoding: 71 71 41
Width: 581
VWidth: 1100
Flags: W
LayerCount: 2
Fore
SplineSet
114 623 m 0,0,1
 155 652 155 652 210.5 666.5 c 128,-1,2
 266 681 266 681 320 678 c 128,-1,3
 374 675 374 675 421.5 661 c 128,-1,4
 469 647 469 647 498 618 c 128,-1,5
 527 589 527 589 527 552 c 0,6,7
 527 518 527 518 514.5 504.5 c 128,-1,8
 502 491 502 491 462.5 488.5 c 128,-1,9
 423 486 423 486 351 498 c 2,10,-1
 175 522 l 1,11,-1
 188 309 l 2,12,13
 194 216 194 216 204 172 c 128,-1,14
 214 128 214 128 233.5 108 c 128,-1,15
 253 88 253 88 293 83 c 0,16,17
 332 77 332 77 365.5 92.5 c 128,-1,18
 399 108 399 108 410 137 c 0,19,20
 423 170 423 170 412.5 187 c 128,-1,21
 402 204 402 204 371 204 c 0,22,23
 314 204 314 204 311 245 c 0,24,25
 309 285 309 285 356 326 c 0,26,27
 398 363 398 363 453 369 c 0,28,29
 485 373 485 373 501 374 c 128,-1,30
 517 375 517 375 533 369.5 c 128,-1,31
 549 364 549 364 554.5 356.5 c 128,-1,32
 560 349 560 349 565 327 c 128,-1,33
 570 305 570 305 570.5 281.5 c 128,-1,34
 571 258 571 258 571 213 c 0,35,36
 571 70 571 70 516 4.5 c 128,-1,37
 461 -61 461 -61 327 -77 c 0,38,39
 210 -91 210 -91 103 15 c 0,40,41
 74 44 74 44 57 67 c 128,-1,42
 40 90 40 90 28.5 115 c 128,-1,43
 17 140 17 140 13.5 172.5 c 128,-1,44
 10 205 10 205 10.5 244 c 128,-1,45
 11 283 11 283 16 343 c 0,46,47
 36 565 36 565 114 623 c 0,0,1
EndSplineSet
EndChar

StartChar: H
Encoding: 72 72 42
Width: 612
VWidth: 1100
Flags: W
LayerCount: 2
Fore
SplineSet
11 307 m 0,0,1
 8 573 8 573 22 631 c 0,2,3
 33 674 33 674 64 681 c 0,4,5
 73 683 73 683 87 683 c 0,6,7
 133 683 133 683 150 653 c 128,-1,8
 167 623 167 623 167 541 c 0,9,10
 167 507 167 507 168.5 486.5 c 128,-1,11
 170 466 170 466 175.5 448.5 c 128,-1,12
 181 431 181 431 188.5 423 c 128,-1,13
 196 415 196 415 212.5 409 c 128,-1,14
 229 403 229 403 247.5 401.5 c 128,-1,15
 266 400 266 400 297.5 400 c 128,-1,16
 329 400 329 400 348 401.5 c 128,-1,17
 367 403 367 403 383 409 c 128,-1,18
 399 415 399 415 407 423 c 128,-1,19
 415 431 415 431 420.5 448.5 c 128,-1,20
 426 466 426 466 427 486.5 c 128,-1,21
 428 507 428 507 428 541 c 0,22,23
 428 626 428 626 445.5 654.5 c 128,-1,24
 463 683 463 683 515 683 c 0,25,26
 561 683 561 683 576 658 c 0,27,28
 598 623 598 623 601 458 c 0,29,30
 602 407 602 407 602 317 c 0,31,32
 602 112 602 112 589 27 c 128,-1,33
 576 -58 576 -58 541 -71 c 0,34,35
 477 -95 477 -95 452.5 -57.5 c 128,-1,36
 428 -20 428 -20 428 104 c 0,37,38
 428 140 428 140 427 160.5 c 128,-1,39
 426 181 426 181 420.5 199 c 128,-1,40
 415 217 415 217 407.5 225 c 128,-1,41
 400 233 400 233 384 239 c 128,-1,42
 368 245 368 245 349 246.5 c 128,-1,43
 330 248 330 248 298 248 c 0,44,45
 263 248 263 248 245 247 c 128,-1,46
 227 246 227 246 209.5 239 c 128,-1,47
 192 232 192 232 185.5 224 c 128,-1,48
 179 216 179 216 174 193.5 c 128,-1,49
 169 171 169 171 168 147.5 c 128,-1,50
 167 124 167 124 167 78 c 0,51,52
 167 -23 167 -23 152 -55 c 128,-1,53
 137 -87 137 -87 91 -80 c 0,54,55
 71 -77 71 -77 58.5 -66.5 c 128,-1,56
 46 -56 46 -56 36.5 -33.5 c 128,-1,57
 27 -11 27 -11 22 35 c 128,-1,58
 17 81 17 81 14.5 143 c 128,-1,59
 12 205 12 205 11 307 c 0,0,1
EndSplineSet
EndChar

StartChar: I
Encoding: 73 73 43
Width: 194
VWidth: 1100
Flags: W
LayerCount: 2
Fore
SplineSet
10 317 m 0,0,1
 10 573 10 573 24 629 c 0,2,3
 36 673 36 673 67 680 c 0,4,5
 78 683 78 683 97 683 c 0,6,7
 142 683 142 683 158 658 c 0,8,9
 180 623 180 623 183 460 c 0,10,11
 184 409 184 409 184 322 c 0,12,13
 184 33 184 33 164 -33 c 0,14,15
 149 -84 149 -84 111 -81 c 0,16,17
 95 -80 95 -80 71 -71 c 0,18,19
 37 -58 37 -58 23.5 27 c 128,-1,20
 10 112 10 112 10 317 c 0,0,1
EndSplineSet
EndChar

StartChar: J
Encoding: 74 74 44
Width: 429
VWidth: 1100
Flags: W
LayerCount: 2
Fore
SplineSet
273.5 378 m 0,0,1
 273.5 473 273.5 473 276.5 529 c 128,-1,2
 279.5 585 279.5 585 287 621 c 128,-1,3
 294.5 657 294.5 657 306.5 670 c 128,-1,4
 318.5 683 318.5 683 339.5 683 c 0,5,6
 359.5 683 359.5 683 371.5 669 c 128,-1,7
 383.5 655 383.5 655 391.5 614.5 c 128,-1,8
 399.5 574 399.5 574 402 510.5 c 128,-1,9
 404.5 447 404.5 447 404.5 339 c 0,10,11
 404.5 253 404.5 253 401 191.5 c 128,-1,12
 397.5 130 397.5 130 390.5 79.5 c 128,-1,13
 383.5 29 383.5 29 369.5 -2.5 c 128,-1,14
 355.5 -34 355.5 -34 337 -55 c 128,-1,15
 318.5 -76 318.5 -76 290.5 -83.5 c 128,-1,16
 262.5 -91 262.5 -91 228.5 -90 c 128,-1,17
 194.5 -89 194.5 -89 147.5 -79 c 0,18,19
 103.5 -69 103.5 -69 75 -50 c 128,-1,20
 46.5 -31 46.5 -31 42 -10 c 128,-1,21
 37.5 11 37.5 11 47.5 30 c 128,-1,22
 57.5 49 57.5 49 90.5 61.5 c 128,-1,23
 123.5 74 123.5 74 169.5 74 c 0,24,25
 226.5 74 226.5 74 244.5 91 c 0,26,27
 268.5 115 268.5 115 272.5 223 c 0,28,29
 273.5 269 273.5 269 273.5 378 c 0,0,1
EndSplineSet
EndChar

StartChar: K
Encoding: 75 75 45
Width: 569
VWidth: 1100
Flags: W
LayerCount: 2
Fore
SplineSet
11 270 m 0,0,1
 12 355 12 355 13.5 409 c 128,-1,2
 15 463 15 463 18.5 507.5 c 128,-1,3
 22 552 22 552 27.5 575.5 c 128,-1,4
 33 599 33 599 42 614.5 c 128,-1,5
 51 630 51 630 62.5 634.5 c 128,-1,6
 74 639 74 639 91 639 c 0,7,8
 134 639 134 639 150.5 608.5 c 128,-1,9
 167 578 167 578 167 500 c 2,10,-1
 167 361 l 1,11,-1
 319 509 l 2,12,13
 408 594 408 594 451 614.5 c 128,-1,14
 494 635 494 635 524 604 c 0,15,16
 554 575 554 575 542.5 540 c 128,-1,17
 531 505 531 505 472 443 c 2,18,-1
 367 335 l 1,19,-1
 463 165 l 2,20,21
 502 97 502 97 530.5 32 c 128,-1,22
 559 -33 559 -33 559 -52 c 0,23,24
 559 -105 559 -105 518 -103 c 0,25,26
 469 -99 469 -99 402 -23 c 0,27,28
 371 13 371 13 345 57 c 0,29,30
 268 187 268 187 217.5 178.5 c 128,-1,31
 167 170 167 170 167 26 c 0,32,33
 167 -46 167 -46 150 -73 c 128,-1,34
 133 -100 133 -100 87 -100 c 0,35,36
 68 -100 68 -100 56.5 -95.5 c 128,-1,37
 45 -91 45 -91 34.5 -77.5 c 128,-1,38
 24 -64 24 -64 20.5 -39 c 128,-1,39
 17 -14 17 -14 13 27 c 128,-1,40
 9 68 9 68 10 127.5 c 128,-1,41
 11 187 11 187 11 270 c 0,0,1
EndSplineSet
EndChar

StartChar: L
Encoding: 76 76 46
Width: 478
VWidth: 1100
Flags: W
LayerCount: 2
Fore
SplineSet
36 676 m 0,0,1
 38 682 38 682 55 681 c 128,-1,2
 72 680 72 680 95 672 c 0,3,4
 121 662 121 662 138.5 581 c 128,-1,5
 156 500 156 500 162 363 c 0,6,7
 165 296 165 296 168 253.5 c 128,-1,8
 171 211 171 211 176.5 176 c 128,-1,9
 182 141 182 141 188 122.5 c 128,-1,10
 194 104 194 104 205 91 c 128,-1,11
 216 78 216 78 229 74 c 128,-1,12
 242 70 242 70 262 68 c 0,13,14
 312 65 312 65 339 63 c 128,-1,15
 366 61 366 61 391 56 c 128,-1,16
 416 51 416 51 427 46.5 c 128,-1,17
 438 42 438 42 447.5 31.5 c 128,-1,18
 457 21 457 21 460 9.5 c 128,-1,19
 463 -2 463 -2 467 -22 c 0,20,21
 467 -34 467 -34 468.5 -44 c 128,-1,22
 470 -54 470 -54 464.5 -62 c 128,-1,23
 459 -70 459 -70 454 -76 c 128,-1,24
 449 -82 449 -82 435 -86 c 128,-1,25
 421 -90 421 -90 405.5 -93 c 128,-1,26
 390 -96 390 -96 365 -97.5 c 128,-1,27
 340 -99 340 -99 312 -99.5 c 128,-1,28
 284 -100 284 -100 245 -100 c 2,29,-1
 10 -100 l 1,30,-1
 21 280 l 2,31,32
 32 661 32 661 36 676 c 0,0,1
EndSplineSet
EndChar

StartChar: M
Encoding: 77 77 47
Width: 672
VWidth: 1100
Flags: W
LayerCount: 2
Fore
SplineSet
67 653 m 0,0,1
 135 680 135 680 159.5 674.5 c 128,-1,2
 184 669 184 669 184 626 c 0,3,4
 184 604 184 604 208 552 c 128,-1,5
 232 500 232 500 267 448 c 2,6,-1
 349 322 l 1,7,-1
 440 500 l 2,8,9
 563 741 563 741 615 673 c 0,10,11
 662 613 662 613 662 291 c 0,12,13
 662 17 662 17 648 -43 c 0,14,15
 637 -90 637 -90 605 -97 c 0,16,17
 594 -100 594 -100 575 -100 c 0,18,19
 552 -100 552 -100 537.5 -95.5 c 128,-1,20
 523 -91 523 -91 512.5 -80.5 c 128,-1,21
 502 -70 502 -70 497 -47.5 c 128,-1,22
 492 -25 492 -25 489.5 5 c 128,-1,23
 487 35 487 35 486 85 c 2,24,-1
 484 270 l 1,25,-1
 419 150 l 2,26,27
 392 101 392 101 367.5 65.5 c 128,-1,28
 343 30 343 30 336 30 c 128,-1,29
 329 30 329 30 304.5 65.5 c 128,-1,30
 280 101 280 101 253 150 c 2,31,-1
 188 270 l 1,32,-1
 186 85 l 2,33,34
 186 35 186 35 183.5 5 c 128,-1,35
 181 -25 181 -25 175.5 -47.5 c 128,-1,36
 170 -70 170 -70 159.5 -80.5 c 128,-1,37
 149 -91 149 -91 134.5 -95.5 c 128,-1,38
 120 -100 120 -100 97 -100 c 0,39,40
 52 -100 52 -100 36 -76 c 0,41,42
 14 -40 14 -40 11 124 c 0,43,44
 10 175 10 175 10 265 c 0,45,46
 10 454 10 454 23.5 547.5 c 128,-1,47
 37 641 37 641 67 653 c 0,0,1
EndSplineSet
EndChar

StartChar: N
Encoding: 78 78 48
Width: 585
VWidth: 1100
Flags: W
LayerCount: 2
Fore
SplineSet
62 651 m 0,0,1
 102 667 102 667 123 657 c 0,2,3
 152 643 152 643 215 551 c 0,4,5
 238 518 238 518 287 443 c 0,6,7
 368 320 368 320 390 319 c 0,8,9
 403 318 403 318 405 357 c 0,10,11
 408 431 408 431 411 475 c 128,-1,12
 414 519 414 519 419 557.5 c 128,-1,13
 424 596 424 596 429 614 c 128,-1,14
 434 632 434 632 444.5 646.5 c 128,-1,15
 455 661 455 661 466.5 666 c 128,-1,16
 478 671 478 671 497 674 c 0,17,18
 537 681 537 681 551 653 c 0,19,20
 573 612 573 612 575 407 c 0,21,22
 575 362 575 362 575 296 c 0,23,24
 575 -49 575 -49 523 -95 c 0,25,26
 478 -134 478 -134 375 17 c 0,27,28
 352 51 352 51 324 96 c 0,29,30
 275 177 275 177 232.5 234 c 128,-1,31
 190 291 190 291 179.5 291 c 128,-1,32
 169 291 169 291 165.5 234 c 128,-1,33
 162 177 162 177 169 96 c 0,34,35
 172 32 172 32 173.5 -6.5 c 128,-1,36
 175 -45 175 -45 166 -66 c 128,-1,37
 157 -87 157 -87 142 -93.5 c 128,-1,38
 127 -100 127 -100 97 -100 c 0,39,40
 52 -100 52 -100 36 -76 c 0,41,42
 14 -40 14 -40 11 124 c 0,43,44
 10 175 10 175 10 265 c 0,45,46
 10 454 10 454 22.5 547 c 128,-1,47
 35 640 35 640 62 651 c 0,0,1
EndSplineSet
EndChar

StartChar: O
Encoding: 79 79 49
Width: 629
VWidth: 1100
Flags: W
LayerCount: 2
Fore
SplineSet
393 457 m 0,0,1
 297 552 297 552 240.5 500 c 128,-1,2
 184 448 184 448 184 265 c 0,3,4
 184 125 184 125 223.5 81.5 c 128,-1,5
 263 38 263 38 367 65 c 0,6,7
 399 74 399 74 420.5 125 c 128,-1,8
 442 176 442 176 446 238.5 c 128,-1,9
 450 301 450 301 436.5 363.5 c 128,-1,10
 423 426 423 426 393 457 c 0,0,1
119 577 m 0,11,12
 186 643 186 643 239 663.5 c 128,-1,13
 292 684 292 684 350 665.5 c 128,-1,14
 408 647 408 647 493 585 c 0,15,16
 548 543 548 543 573.5 509 c 128,-1,17
 599 475 599 475 609 427.5 c 128,-1,18
 619 380 619 380 619 291 c 0,19,20
 619 86 619 86 546.5 -7 c 128,-1,21
 474 -100 474 -100 314 -100 c 0,22,23
 156 -100 156 -100 83 -8 c 128,-1,24
 10 84 10 84 10 283 c 0,25,26
 10 387 10 387 34 452 c 128,-1,27
 58 517 58 517 119 577 c 0,11,12
EndSplineSet
EndChar

StartChar: P
Encoding: 80 80 50
Width: 542
VWidth: 1100
Flags: W
LayerCount: 2
Fore
SplineSet
335 357 m 0,0,1
 358 379 358 379 358 421.5 c 128,-1,2
 358 464 358 464 335.5 486.5 c 128,-1,3
 313 509 313 509 270.5 509 c 128,-1,4
 228 509 228 509 206 486.5 c 128,-1,5
 184 464 184 464 184 421.5 c 128,-1,6
 184 379 184 379 206 357 c 128,-1,7
 228 335 228 335 270.5 335 c 128,-1,8
 313 335 313 335 335 357 c 0,0,1
84 634 m 0,9,10
 140 667 140 667 204 675 c 128,-1,11
 268 683 268 683 325 666.5 c 128,-1,12
 382 650 382 650 429 617.5 c 128,-1,13
 476 585 476 585 504 533 c 128,-1,14
 532 481 532 481 532 422 c 0,15,16
 532 308 532 308 463.5 234.5 c 128,-1,17
 395 161 395 161 288 161 c 0,18,19
 223 161 223 161 203.5 136.5 c 128,-1,20
 184 112 184 112 184 30 c 0,21,22
 184 -45 184 -45 165.5 -72.5 c 128,-1,23
 147 -100 147 -100 97 -100 c 0,24,25
 51 -100 51 -100 36 -76 c 0,26,27
 13 -42 13 -42 11 116 c 0,28,29
 10 163 10 163 10 246 c 0,30,31
 10 392 10 392 16 466.5 c 128,-1,32
 22 541 22 541 37.5 578.5 c 128,-1,33
 53 616 53 616 84 634 c 0,9,10
EndSplineSet
EndChar

StartChar: Q
Encoding: 81 81 51
Width: 624
VWidth: 1100
Flags: W
LayerCount: 2
Fore
SplineSet
421 320 m 0,0,1
 413 417 413 417 392.5 454.5 c 128,-1,2
 372 492 372 492 321 500 c 0,3,4
 290 502 290 502 266.5 503 c 128,-1,5
 243 504 243 504 226 495 c 128,-1,6
 209 486 209 486 198 472 c 128,-1,7
 187 458 187 458 180.5 431 c 128,-1,8
 174 404 174 404 171.5 370.5 c 128,-1,9
 169 337 169 337 169 287 c 0,10,11
 169 152 169 152 213 101 c 0,12,13
 250 60 250 60 290 109 c 0,14,15
 299 120 299 120 308 135 c 0,16,17
 324 164 324 164 348 176.5 c 128,-1,18
 372 189 372 189 390 178 c 0,19,20
 411 166 411 166 419 206 c 0,21,22
 427 244 427 244 421 320 c 0,0,1
356 665 m 0,23,24
 415 653 415 653 456 634 c 128,-1,25
 497 615 497 615 526.5 584.5 c 128,-1,26
 556 554 556 554 572.5 505.5 c 128,-1,27
 589 457 589 457 596 393.5 c 128,-1,28
 603 330 603 330 603 239 c 0,29,30
 603 -13 603 -13 613 -43 c 0,31,32
 620 -63 620 -63 538 -78.5 c 128,-1,33
 456 -94 456 -94 359 -95 c 128,-1,34
 262 -96 262 -96 190 -82 c 0,35,36
 131 -67 131 -67 96.5 -28 c 128,-1,37
 62 11 62 11 42.5 84.5 c 128,-1,38
 23 158 23 158 13 287 c 0,39,40
 5 401 5 401 23 458.5 c 128,-1,41
 41 516 41 516 107.5 582.5 c 128,-1,42
 174 649 174 649 222.5 665 c 128,-1,43
 271 681 271 681 356 665 c 0,23,24
EndSplineSet
EndChar

StartChar: R
Encoding: 82 82 52
Width: 529
VWidth: 1100
Flags: W
LayerCount: 2
Fore
SplineSet
349 367 m 0,0,1
 344 398 344 398 310.5 424.5 c 128,-1,2
 277 451 277 451 238 457 c 0,3,4
 183 464 183 464 161.5 447.5 c 128,-1,5
 140 431 140 431 140 380 c 0,6,7
 140 331 140 331 164.5 311 c 128,-1,8
 189 291 189 291 251 291 c 128,-1,9
 313 291 313 291 334.5 308 c 128,-1,10
 356 325 356 325 349 367 c 0,0,1
10 270 m 2,11,-1
 10 639 l 1,12,-1
 184 639 l 2,13,14
 295 639 295 639 377.5 599.5 c 128,-1,15
 460 560 460 560 496 491 c 128,-1,16
 532 422 532 422 510 339 c 0,17,18
 449 104 449 104 507 -26 c 0,19,20
 537 -95 537 -95 496 -106 c 0,21,22
 456 -116 456 -116 392 -68 c 0,23,24
 339 -28 339 -28 306 30 c 0,25,26
 236 154 236 154 188 154 c 128,-1,27
 140 154 140 154 140 30 c 0,28,29
 140 -100 140 -100 75 -100 c 0,30,31
 55 -100 55 -100 43 -85 c 128,-1,32
 31 -70 31 -70 23 -27 c 128,-1,33
 15 16 15 16 12.5 84.5 c 128,-1,34
 10 153 10 153 10 270 c 2,11,-1
EndSplineSet
EndChar

StartChar: S
Encoding: 83 83 53
Width: 572
VWidth: 1100
Flags: W
LayerCount: 2
Fore
SplineSet
130 552 m 0,0,1
 175 597 175 597 243 613 c 128,-1,2
 311 629 311 629 380 612 c 128,-1,3
 449 595 449 595 496 550 c 0,4,5
 541 506 541 506 507 470 c 0,6,7
 472 432 472 432 388 437 c 0,8,9
 366 439 366 439 343 444 c 0,10,11
 234 468 234 468 221 434 c 0,12,13
 209 404 209 404 283 353 c 0,14,15
 319 328 319 328 370 304 c 0,16,17
 441 270 441 270 487.5 225.5 c 128,-1,18
 534 181 534 181 550.5 137 c 128,-1,19
 567 93 567 93 558 49.5 c 128,-1,20
 549 6 549 6 516.5 -26.5 c 128,-1,21
 484 -59 484 -59 424.5 -79.5 c 128,-1,22
 365 -100 365 -100 287 -100 c 0,23,24
 148 -100 148 -100 60 -50 c 0,25,26
 -4 -15 -4 -15 13 21 c 0,27,28
 23 42 23 42 61 56 c 0,29,30
 90 67 90 67 129 59.5 c 128,-1,31
 168 52 168 52 196 29 c 0,32,33
 230 1 230 1 277 -1.5 c 128,-1,34
 324 -4 324 -4 357.5 17 c 128,-1,35
 391 38 391 38 391 74 c 0,36,37
 391 94 391 94 340 129.5 c 128,-1,38
 289 165 289 165 217 195 c 0,39,40
 67 258 67 258 44.5 351 c 128,-1,41
 22 444 22 444 130 552 c 0,0,1
EndSplineSet
EndChar

StartChar: T
Encoding: 84 84 54
Width: 522
VWidth: 1100
Flags: W
LayerCount: 2
Fore
SplineSet
20 535 m 0,0,1
 42 596 42 596 277 596 c 0,2,3
 343 596 343 596 381 594 c 128,-1,4
 419 592 419 592 447.5 587 c 128,-1,5
 476 582 476 582 488.5 571.5 c 128,-1,6
 501 561 501 561 506.5 547 c 128,-1,7
 512 533 512 533 512 509 c 0,8,9
 512 466 512 466 489.5 444 c 128,-1,10
 467 422 467 422 425 422 c 0,11,12
 404 422 404 422 391.5 419 c 128,-1,13
 379 416 379 416 368.5 405 c 128,-1,14
 358 394 358 394 352.5 378.5 c 128,-1,15
 347 363 347 363 343.5 330.5 c 128,-1,16
 340 298 340 298 339 260 c 128,-1,17
 338 222 338 222 338 159 c 0,18,19
 338 123 338 123 337.5 96 c 128,-1,20
 337 69 337 69 336.5 44.5 c 128,-1,21
 336 20 336 20 334.5 2.5 c 128,-1,22
 333 -15 333 -15 330.5 -30 c 128,-1,23
 328 -45 328 -45 325 -55 c 128,-1,24
 322 -65 322 -65 317 -73 c 128,-1,25
 312 -81 312 -81 307 -85 c 128,-1,26
 302 -89 302 -89 295 -91 c 128,-1,27
 288 -93 288 -93 280 -93 c 128,-1,28
 272 -93 272 -93 262 -91 c 0,29,30
 230 -86 230 -86 214.5 -62.5 c 128,-1,31
 199 -39 199 -39 193.5 13.5 c 128,-1,32
 188 66 188 66 190 172 c 0,33,34
 192 280 192 280 187 331 c 128,-1,35
 182 382 182 382 167.5 402 c 128,-1,36
 153 422 153 422 121 422 c 0,37,38
 -23 422 -23 422 20 535 c 0,0,1
EndSplineSet
EndChar

StartChar: U
Encoding: 85 85 55
Width: 560
VWidth: 1100
Flags: W
LayerCount: 2
Fore
SplineSet
10 326 m 0,0,1
 10 587 10 587 40 622 c 0,2,3
 50 634 50 634 64 628 c 0,4,5
 89 619 89 619 109.5 538.5 c 128,-1,6
 130 458 130 458 140 330 c 0,7,8
 145 276 145 276 147.5 243 c 128,-1,9
 150 210 150 210 155 177 c 128,-1,10
 160 144 160 144 163.5 127 c 128,-1,11
 167 110 167 110 175 93.5 c 128,-1,12
 183 77 183 77 190 71 c 128,-1,13
 197 65 197 65 210.5 59.5 c 128,-1,14
 224 54 224 54 237 53 c 128,-1,15
 250 52 250 52 271 52 c 128,-1,16
 292 52 292 52 305 53 c 128,-1,17
 318 54 318 54 331.5 59.5 c 128,-1,18
 345 65 345 65 352 71.5 c 128,-1,19
 359 78 359 78 366.5 94.5 c 128,-1,20
 374 111 374 111 378 128.5 c 128,-1,21
 382 146 382 146 386.5 179.5 c 128,-1,22
 391 213 391 213 394 246 c 128,-1,23
 397 279 397 279 401 335 c 0,24,25
 414 495 414 495 432.5 556 c 128,-1,26
 451 617 451 617 488 617 c 0,27,28
 515 617 515 617 528 592 c 128,-1,29
 541 567 541 567 546 506.5 c 128,-1,30
 551 446 551 446 550 330 c 0,31,32
 549 265 549 265 548 221 c 128,-1,33
 547 177 547 177 544 132.5 c 128,-1,34
 541 88 541 88 537.5 61 c 128,-1,35
 534 34 534 34 525.5 6.5 c 128,-1,36
 517 -21 517 -21 509 -35 c 128,-1,37
 501 -49 501 -49 485 -63 c 128,-1,38
 469 -77 469 -77 454 -83 c 128,-1,39
 439 -89 439 -89 413.5 -93.5 c 128,-1,40
 388 -98 388 -98 363 -99 c 128,-1,41
 338 -100 338 -100 301 -100 c 0,42,43
 223 -100 223 -100 153.5 -85 c 128,-1,44
 84 -70 84 -70 62 -48 c 0,45,46
 39 -25 39 -25 24.5 79 c 128,-1,47
 10 183 10 183 10 326 c 0,0,1
EndSplineSet
EndChar

StartChar: V
Encoding: 86 86 56
Width: 618
VWidth: 1100
Flags: W
LayerCount: 2
Fore
SplineSet
10 583 m 0,0,1
 10 605 10 605 21.5 622 c 128,-1,2
 33 639 33 639 49 639 c 0,3,4
 145 639 145 639 230 348 c 0,5,6
 270 209 270 209 298 184 c 0,7,8
 304 179 304 179 308 183 c 0,9,10
 318 192 318 192 344.5 257 c 128,-1,11
 371 322 371 322 399 407 c 0,12,13
 431 501 431 501 468.5 558 c 128,-1,14
 506 615 506 615 540 621 c 0,15,16
 589 629 589 629 595 627 c 0,17,18
 615 622 615 622 603 568 c 0,19,20
 594 527 594 527 507 248 c 0,21,22
 477 151 477 151 456.5 94 c 128,-1,23
 436 37 436 37 418 -5.5 c 128,-1,24
 400 -48 400 -48 383 -65.5 c 128,-1,25
 366 -83 366 -83 348.5 -89 c 128,-1,26
 331 -95 331 -95 306 -91 c 0,27,28
 252 -84 252 -84 212 -18 c 128,-1,29
 172 48 172 48 112 224 c 0,30,31
 70 348 70 348 40 453.5 c 128,-1,32
 10 559 10 559 10 583 c 0,0,1
EndSplineSet
EndChar

StartChar: W
Encoding: 87 87 57
Width: 755
VWidth: 1100
Flags: W
LayerCount: 2
Fore
SplineSet
10 609 m 0,0,1
 10 623 10 623 32.5 629.5 c 128,-1,2
 55 636 55 636 84 630 c 0,3,4
 158 617 158 617 206 400 c 0,5,6
 241 240 241 240 253 231 c 0,7,8
 260 225 260 225 268 245 c 0,9,10
 274 260 274 260 285 304 c 0,11,12
 300 359 300 359 329 387.5 c 128,-1,13
 358 416 358 416 388.5 414 c 128,-1,14
 419 412 419 412 448 380 c 128,-1,15
 477 348 477 348 491 291 c 0,16,17
 509 221 509 221 517 220 c 0,18,19
 523 219 523 219 531 247 c 0,20,21
 537 269 537 269 551 335 c 0,22,23
 568 419 568 419 580 469 c 128,-1,24
 592 519 592 519 604 556 c 128,-1,25
 616 593 616 593 628.5 609 c 128,-1,26
 641 625 641 625 654.5 632 c 128,-1,27
 668 639 668 639 688 639 c 0,28,29
 732 639 732 639 741 602 c 0,30,31
 755 547 755 547 704 312 c 0,32,33
 694 264 694 264 679 200 c 0,34,35
 650 75 650 75 629 12.5 c 128,-1,36
 608 -50 608 -50 585 -75 c 128,-1,37
 562 -100 562 -100 527 -100 c 0,38,39
 445 -100 445 -100 417 20 c 2,40,-1
 388 139 l 1,41,-1
 347 20 l 2,42,43
 329 -33 329 -33 296 -66.5 c 128,-1,44
 263 -100 263 -100 230 -100 c 0,45,46
 199 -100 199 -100 176.5 -70 c 128,-1,47
 154 -40 154 -40 132.5 30.5 c 128,-1,48
 111 101 111 101 82 237 c 0,49,50
 10 574 10 574 10 609 c 0,0,1
EndSplineSet
EndChar

StartChar: X
Encoding: 88 88 58
Width: 533
VWidth: 1100
Flags: W
LayerCount: 2
Fore
SplineSet
90 639 m 0,0,1
 123 639 123 639 163 603.5 c 128,-1,2
 203 568 203 568 225 520 c 2,3,-1
 280 400 l 1,4,-1
 343 520 l 2,5,6
 368 568 368 568 397 603.5 c 128,-1,7
 426 639 426 639 440 639 c 0,8,9
 500 639 500 639 504 588 c 128,-1,10
 508 537 508 537 458 413 c 0,11,12
 432 347 432 347 421 314 c 128,-1,13
 410 281 410 281 410 243.5 c 128,-1,14
 410 206 410 206 421 176.5 c 128,-1,15
 432 147 432 147 458 91 c 0,16,17
 521 -40 521 -40 523 -68 c 0,18,19
 525 -93 525 -93 497 -98 c 0,20,21
 483 -100 483 -100 445 -100 c 0,22,23
 411 -100 411 -100 378.5 -74.5 c 128,-1,24
 346 -49 346 -49 335 -13 c 0,25,26
 309 68 309 68 270.5 68 c 128,-1,27
 232 68 232 68 207 -13 c 0,28,29
 196 -49 196 -49 163.5 -74.5 c 128,-1,30
 131 -100 131 -100 97 -100 c 0,31,32
 31 -100 31 -100 21 -80 c 0,33,34
 8 -54 8 -54 58 47 c 0,35,36
 72 74 72 74 94.5 117 c 128,-1,37
 117 160 117 160 127.5 181 c 128,-1,38
 138 202 138 202 146 230 c 128,-1,39
 154 258 154 258 154 271 c 128,-1,40
 154 284 154 284 146 312.5 c 128,-1,41
 138 341 138 341 127 363 c 128,-1,42
 116 385 116 385 93 430 c 0,43,44
 59 496 59 496 34.5 551 c 128,-1,45
 10 606 10 606 10 615.5 c 128,-1,46
 10 625 10 625 34 632 c 128,-1,47
 58 639 58 639 90 639 c 0,0,1
EndSplineSet
EndChar

StartChar: Y
Encoding: 89 89 59
Width: 534
VWidth: 1100
Flags: W
LayerCount: 2
Fore
SplineSet
14 600 m 0,0,1
 82 709 82 709 188 504 c 0,2,3
 232 419 232 419 280 404 c 0,4,5
 321 392 321 392 334 441 c 0,6,7
 339 459 339 459 339 483 c 0,8,9
 339 512 339 512 356 541 c 128,-1,10
 373 570 373 570 398.5 587.5 c 128,-1,11
 424 605 424 605 452.5 611 c 128,-1,12
 481 617 481 617 504 602 c 0,13,14
 533 584 533 584 520 531 c 128,-1,15
 507 478 507 478 448 367 c 0,16,17
 402 283 402 283 370.5 185.5 c 128,-1,18
 339 88 339 88 339 33 c 0,19,20
 339 -100 339 -100 274 -100 c 0,21,22
 248 -100 248 -100 227 -90 c 128,-1,23
 206 -80 206 -80 204 -67 c 2,24,-1
 185 80 l 2,25,26
 178 128 178 128 147 214.5 c 128,-1,27
 116 301 116 301 78 376 c 128,-1,28
 40 451 40 451 21.5 516.5 c 128,-1,29
 3 582 3 582 14 600 c 0,0,1
EndSplineSet
EndChar

StartChar: Z
Encoding: 90 90 60
Width: 518
VWidth: 1100
Flags: W
LayerCount: 2
Fore
SplineSet
53 552 m 0,0,1
 53 606 53 606 86 622.5 c 128,-1,2
 119 639 119 639 223 639 c 0,3,4
 276 639 276 639 310 638.5 c 128,-1,5
 344 638 344 638 377.5 634.5 c 128,-1,6
 411 631 411 631 429.5 626.5 c 128,-1,7
 448 622 448 622 464 611.5 c 128,-1,8
 480 601 480 601 485 590 c 128,-1,9
 490 579 490 579 489.5 558 c 128,-1,10
 489 537 489 537 482 516.5 c 128,-1,11
 475 496 475 496 459.5 461.5 c 128,-1,12
 444 427 444 427 426.5 393.5 c 128,-1,13
 409 360 409 360 380 309 c 2,14,-1
 227 30 l 1,15,-1
 353 30 l 2,16,17
 406 30 406 30 450 11 c 128,-1,18
 494 -8 494 -8 503 -35 c 0,19,20
 507 -45 507 -45 507.5 -53 c 128,-1,21
 508 -61 508 -61 504.5 -67.5 c 128,-1,22
 501 -74 501 -74 494 -79 c 128,-1,23
 487 -84 487 -84 473.5 -87.5 c 128,-1,24
 460 -91 460 -91 442 -93.5 c 128,-1,25
 424 -96 424 -96 398 -97.5 c 128,-1,26
 372 -99 372 -99 341 -99.5 c 128,-1,27
 310 -100 310 -100 269 -100 c 0,28,29
 161 -100 161 -100 85.5 -90.5 c 128,-1,30
 10 -81 10 -81 10 -67.5 c 128,-1,31
 10 -54 10 -54 48 18.5 c 128,-1,32
 86 91 86 91 140 183 c 0,33,34
 248 362 248 362 260 408 c 0,35,36
 271 450 271 450 235 460 c 0,37,38
 215 465 215 465 162 465 c 0,39,40
 103 465 103 465 78 485 c 128,-1,41
 53 505 53 505 53 552 c 0,0,1
EndSplineSet
EndChar

StartChar: bracketleft
Encoding: 91 91 61
Width: 335
VWidth: 950
Flags: W
LayerCount: 2
Fore
SplineSet
50 -120 m 2,0,-1
 50 673 l 2,1,2
 50 705.110351562 50 705.110351562 72.6357421875 728.555664062 c 128,-1,3
 95.2724609375 752 95.2724609375 752 128 752 c 2,4,-1
 252 752 l 2,5,6
 283.41796875 752 283.41796875 752 306.708984375 728.708984375 c 128,-1,7
 330 705.41796875 330 705.41796875 330 673 c 128,-1,8
 330 640.58203125 330 640.58203125 307.208984375 617.791015625 c 128,-1,9
 284.41796875 595 284.41796875 595 252 595 c 2,10,-1
 206 595 l 1,11,-1
 206 -42 l 1,12,-1
 238 -42 l 2,13,14
 269.41796875 -42 269.41796875 -42 292.708984375 -65.291015625 c 128,-1,15
 316 -88.58203125 316 -88.58203125 316 -121.077148438 c 128,-1,16
 316 -153.727539062 316 -153.727539062 292.555664062 -176.364257812 c 128,-1,17
 269.110351562 -199 269.110351562 -199 238 -199 c 2,18,-1
 128 -199 l 2,19,20
 95.58203125 -199 95.58203125 -199 72.791015625 -176.208984375 c 128,-1,21
 50 -153.41796875 50 -153.41796875 50 -120 c 2,0,-1
EndSplineSet
EndChar

StartChar: backslash
Encoding: 92 92 62
Width: 571
VWidth: 950
Flags: W
LayerCount: 2
Fore
SplineSet
35 572 m 0,0,1
 35 601.110351562 35 601.110351562 57.6357421875 624.555664062 c 128,-1,2
 80.2724609375 648 80.2724609375 648 113 648 c 0,3,4
 159.868164062 648 159.868164062 648 181.266601562 608.495117188 c 2,5,-1
 502.048828125 28.888671875 l 2,6,7
 512 11.9775390625 512 11.9775390625 512 -9 c 0,8,9
 512 -40.1103515625 512 -40.1103515625 489.364257812 -63.5556640625 c 128,-1,10
 466.727539062 -87 466.727539062 -87 433 -87 c 0,11,12
 388.415039062 -87 388.415039062 -87 365.762695312 -46.548828125 c 2,13,-1
 48.1494140625 524.612304688 l 2,14,15
 35 550.912109375 35 550.912109375 35 572 c 0,0,1
EndSplineSet
EndChar

StartChar: bracketright
Encoding: 93 93 63
Width: 335
VWidth: 950
Flags: W
LayerCount: 2
Fore
SplineSet
5 -120 m 128,-1,1
 5 -87.58203125 5 -87.58203125 27.791015625 -64.791015625 c 128,-1,2
 50.58203125 -42 50.58203125 -42 83 -42 c 2,3,-1
 129 -42 l 1,4,-1
 129 595 l 1,5,-1
 97 595 l 2,6,7
 65.58203125 595 65.58203125 595 42.291015625 618.291015625 c 128,-1,8
 19 641.58203125 19 641.58203125 19 674.077148438 c 128,-1,9
 19 706.727539062 19 706.727539062 42.4443359375 729.364257812 c 128,-1,10
 65.8896484375 752 65.8896484375 752 97 752 c 2,11,-1
 207 752 l 2,12,13
 239.41796875 752 239.41796875 752 262.208984375 729.208984375 c 128,-1,14
 285 706.41796875 285 706.41796875 285 673 c 2,15,-1
 285 -120 l 2,16,17
 285 -152.110351562 285 -152.110351562 262.364257812 -175.555664062 c 128,-1,18
 239.727539062 -199 239.727539062 -199 207 -199 c 2,19,-1
 83 -199 l 2,20,21
 51.58203125 -199 51.58203125 -199 28.291015625 -175.708984375 c 128,-1,0
 5 -152.41796875 5 -152.41796875 5 -120 c 128,-1,1
EndSplineSet
EndChar

StartChar: a
Encoding: 97 97 64
Width: 451
VWidth: 1100
Flags: W
LayerCount: 2
Fore
SplineSet
264 42 m 128,-1,1
 276 54 276 54 276 73.5 c 128,-1,2
 276 93 276 93 264 105 c 128,-1,3
 252 117 252 117 232.5 117 c 128,-1,4
 213 117 213 117 201 105 c 128,-1,5
 189 93 189 93 189 73.5 c 128,-1,6
 189 54 189 54 201 42 c 128,-1,7
 213 30 213 30 232.5 30 c 128,-1,0
 252 30 252 30 264 42 c 128,-1,1
115 438 m 0,8,9
 144 451 144 451 189.5 449 c 128,-1,10
 235 447 235 447 280 437 c 128,-1,11
 325 427 325 427 363.5 407 c 128,-1,12
 402 387 402 387 416 365 c 128,-1,13
 430 343 430 343 436.5 271 c 128,-1,14
 443 199 443 199 439 117 c 0,15,16
 437 78 437 78 435 55 c 128,-1,17
 433 32 433 32 429 8 c 128,-1,18
 425 -16 425 -16 421.5 -27.5 c 128,-1,19
 418 -39 418 -39 408.5 -52 c 128,-1,20
 399 -65 399 -65 390 -69 c 128,-1,21
 381 -73 381 -73 362.5 -78.5 c 128,-1,22
 344 -84 344 -84 327 -85.5 c 128,-1,23
 310 -87 310 -87 280 -90 c 0,24,25
 212 -95 212 -95 156 -82 c 128,-1,26
 100 -69 100 -69 66.5 -43.5 c 128,-1,27
 33 -18 33 -18 19 16.5 c 128,-1,28
 5 51 5 51 13.5 87 c 128,-1,29
 22 123 22 123 58 158.5 c 128,-1,30
 94 194 94 194 154 220 c 2,31,-1
 298 283 l 1,32,-1
 176 287 l 2,33,34
 141 288 141 288 113 300 c 128,-1,35
 85 312 85 312 72 329.5 c 128,-1,36
 59 347 59 347 57 367 c 128,-1,37
 55 387 55 387 70 406.5 c 128,-1,38
 85 426 85 426 115 438 c 0,8,9
EndSplineSet
EndChar

StartChar: b
Encoding: 98 98 65
Width: 497
VWidth: 1100
Flags: W
LayerCount: 2
Fore
SplineSet
336 135 m 0,0,1
 336 223 336 223 304.5 256.5 c 128,-1,2
 273 290 273 290 223 255 c 0,3,4
 190 232 190 232 184 183 c 128,-1,5
 178 134 178 134 199 91 c 128,-1,6
 220 48 220 48 258 41 c 0,7,8
 300 33 300 33 318 54.5 c 128,-1,9
 336 76 336 76 336 135 c 0,0,1
25 272 m 2,10,11
 29 357 29 357 32 411.5 c 128,-1,12
 35 466 35 466 40 510 c 128,-1,13
 45 554 45 554 50.5 576.5 c 128,-1,14
 56 599 56 599 65 613.5 c 128,-1,15
 74 628 74 628 85 630.5 c 128,-1,16
 96 633 96 633 112 630 c 0,17,18
 146 624 146 624 164 594.5 c 128,-1,19
 182 565 182 565 180 520 c 0,20,21
 177 464 177 464 196 443 c 128,-1,22
 215 422 215 422 267 422 c 0,23,24
 306 422 306 422 347 412 c 128,-1,25
 388 402 388 402 410 388 c 0,26,27
 445 365 445 365 466.5 297 c 128,-1,28
 488 229 488 229 487.5 147.5 c 128,-1,29
 487 66 487 66 463 4 c 0,30,31
 452 -24 452 -24 440.5 -41 c 128,-1,32
 429 -58 429 -58 413 -71 c 128,-1,33
 397 -84 397 -84 369.5 -89.5 c 128,-1,34
 342 -95 342 -95 307.5 -97.5 c 128,-1,35
 273 -100 273 -100 217 -100 c 2,36,-1
 10 -100 l 1,37,-1
 25 272 l 2,10,11
EndSplineSet
EndChar

StartChar: c
Encoding: 99 99 66
Width: 432
VWidth: 1100
Flags: W
LayerCount: 2
Fore
SplineSet
80 399 m 0,0,1
 113 432 113 432 165 445.5 c 128,-1,2
 217 459 217 459 265 453.5 c 128,-1,3
 313 448 313 448 350.5 423.5 c 128,-1,4
 388 399 388 399 395 361 c 0,5,6
 404 316 404 316 385.5 302.5 c 128,-1,7
 367 289 367 289 308 298 c 0,8,9
 244 307 244 307 222 286 c 128,-1,10
 200 265 200 265 190 187 c 0,11,12
 187 156 187 156 186 138 c 128,-1,13
 185 120 185 120 187.5 105.5 c 128,-1,14
 190 91 190 91 195.5 85 c 128,-1,15
 201 79 201 79 213.5 76 c 128,-1,16
 226 73 226 73 242 75 c 128,-1,17
 258 77 258 77 284 82 c 0,18,19
 323 90 323 90 350 86 c 128,-1,20
 377 82 377 82 396 71.5 c 128,-1,21
 415 61 415 61 419.5 44 c 128,-1,22
 424 27 424 27 418.5 9 c 128,-1,23
 413 -9 413 -9 391.5 -28.5 c 128,-1,24
 370 -48 370 -48 336 -64 c 0,25,26
 287 -84 287 -84 240 -85.5 c 128,-1,27
 193 -87 193 -87 151.5 -65.5 c 128,-1,28
 110 -44 110 -44 78.5 -10 c 128,-1,29
 47 24 47 24 28.5 74.5 c 128,-1,30
 10 125 10 125 10 183 c 0,31,32
 10 245 10 245 30 307.5 c 128,-1,33
 50 370 50 370 80 399 c 0,0,1
EndSplineSet
EndChar

StartChar: d
Encoding: 100 100 67
Width: 483
VWidth: 1100
Flags: W
LayerCount: 2
Fore
SplineSet
303 143 m 0,0,1
 294 220 294 220 248 269 c 0,2,3
 212 308 212 308 190 286 c 0,4,5
 180 276 180 276 178 252 c 0,6,7
 167 174 167 174 170 128.5 c 128,-1,8
 173 83 173 83 188 64.5 c 128,-1,9
 203 46 203 46 238 39 c 0,10,11
 286 28 286 28 298.5 48 c 128,-1,12
 311 68 311 68 303 143 c 0,0,1
312 541 m 0,13,14
 312 597 312 597 329.5 617.5 c 128,-1,15
 347 638 347 638 388 630 c 0,16,17
 409 627 409 627 421.5 616 c 128,-1,18
 434 605 434 605 443.5 583 c 128,-1,19
 453 561 453 561 457.5 517 c 128,-1,20
 462 473 462 473 464.5 414 c 128,-1,21
 467 355 467 355 469 259 c 2,22,-1
 473 -100 l 1,23,-1
 262 -100 l 2,24,25
 202 -100 202 -100 167.5 -97.5 c 128,-1,26
 133 -95 133 -95 105.5 -90 c 128,-1,27
 78 -85 78 -85 64 -72 c 128,-1,28
 50 -59 50 -59 41.5 -42 c 128,-1,29
 33 -25 33 -25 25 4 c 0,30,31
 14 48 14 48 11 114 c 128,-1,32
 8 180 8 180 14 233 c 0,33,34
 23 307 23 307 54.5 340 c 128,-1,35
 86 373 86 373 171 398 c 0,36,37
 252 422 252 422 282 452 c 128,-1,38
 312 482 312 482 312 541 c 0,13,14
EndSplineSet
EndChar

StartChar: e
Encoding: 101 101 68
Width: 443
VWidth: 1100
Flags: W
LayerCount: 2
Fore
SplineSet
271 335 m 128,-1,1
 271 354 271 354 259.5 366 c 128,-1,2
 248 378 248 378 230 378 c 0,3,4
 195 378 195 378 169 346 c 0,5,6
 144 314 144 314 168 299 c 0,7,8
 180 291 180 291 203 291 c 0,9,10
 233 291 233 291 252 303.5 c 128,-1,0
 271 316 271 316 271 335 c 128,-1,1
84 461 m 0,11,12
 192 523 192 523 280 504 c 128,-1,13
 368 485 368 485 404 391 c 0,14,15
 452 270 452 270 419 215 c 128,-1,16
 386 160 386 160 262 154 c 2,17,-1
 119 148 l 1,18,-1
 262 130 l 2,19,20
 322 122 322 122 358 100 c 128,-1,21
 394 78 394 78 399.5 52.5 c 128,-1,22
 405 27 405 27 378.5 1.5 c 128,-1,23
 352 -24 352 -24 297 -38 c 0,24,25
 157 -72 157 -72 83.5 -4.5 c 128,-1,26
 10 63 10 63 10 226 c 0,27,28
 10 327 10 327 27.5 382.5 c 128,-1,29
 45 438 45 438 84 461 c 0,11,12
EndSplineSet
EndChar

StartChar: f
Encoding: 102 102 69
Width: 438
VWidth: 1100
Flags: W
LayerCount: 2
Fore
SplineSet
140 587 m 0,0,1
 162 609 162 609 213 624 c 128,-1,2
 264 639 264 639 316 639 c 0,3,4
 388 639 388 639 411 623 c 128,-1,5
 434 607 434 607 425 563 c 0,6,7
 418 530 418 530 392.5 512 c 128,-1,8
 367 494 367 494 336 500 c 0,9,10
 306 505 306 505 284 495.5 c 128,-1,11
 262 486 262 486 262 467 c 128,-1,12
 262 448 262 448 274.5 435 c 128,-1,13
 287 422 287 422 305 422 c 128,-1,14
 323 422 323 422 336 395 c 128,-1,15
 349 368 349 368 349 332.5 c 128,-1,16
 349 297 349 297 336 278 c 128,-1,17
 323 259 323 259 305 269 c 0,18,19
 276 287 276 287 266 273 c 0,20,21
 252 253 252 253 246 99 c 0,22,23
 246 82 246 82 245 61 c 0,24,25
 242 -11 242 -11 222.5 -48 c 128,-1,26
 203 -85 203 -85 164 -91 c 0,27,28
 118 -99 118 -99 103 -70.5 c 128,-1,29
 88 -42 88 -42 88 52 c 0,30,31
 88 117 88 117 73.5 190 c 128,-1,32
 59 263 59 263 38 302 c 0,33,34
 10 354 10 354 10 378.5 c 128,-1,35
 10 403 10 403 38 413 c 0,36,37
 60 421 60 421 74 440.5 c 128,-1,38
 88 460 88 460 88 482.5 c 128,-1,39
 88 505 88 505 102.5 534.5 c 128,-1,40
 117 564 117 564 140 587 c 0,0,1
EndSplineSet
EndChar

StartChar: g
Encoding: 103 103 70
Width: 479
VWidth: 1100
Flags: W
LayerCount: 2
Fore
SplineSet
314 311 m 0,0,1
 314 363 314 363 298 392.5 c 128,-1,2
 282 422 282 422 253 422 c 0,3,4
 219 422 219 422 194 402.5 c 128,-1,5
 169 383 169 383 161.5 355 c 128,-1,6
 154 327 154 327 158 297.5 c 128,-1,7
 162 268 162 268 184 244.5 c 128,-1,8
 206 221 206 221 240 214 c 0,9,10
 282 206 282 206 298 227.5 c 128,-1,11
 314 249 314 249 314 311 c 0,0,1
86 550 m 0,12,13
 117 569 117 569 184.5 579 c 128,-1,14
 252 589 252 589 314 585 c 2,15,-1
 467 574 l 1,16,-1
 468 313 l 2,17,18
 470 71 470 71 456 5 c 0,19,20
 441 -65 441 -65 394 -85 c 0,21,22
 358 -100 358 -100 245 -100 c 0,23,24
 163 -100 163 -100 108 -87 c 128,-1,25
 53 -74 53 -74 53 -54.5 c 128,-1,26
 53 -35 53 -35 86.5 -25.5 c 128,-1,27
 120 -16 120 -16 169 -21.5 c 128,-1,28
 218 -27 218 -27 256.5 -15.5 c 128,-1,29
 295 -4 295 -4 303 20 c 0,30,31
 323 74 323 74 193 74 c 0,32,33
 137 74 137 74 103 86.5 c 128,-1,34
 69 99 69 99 47.5 132.5 c 128,-1,35
 26 166 26 166 18 218.5 c 128,-1,36
 10 271 10 271 10 357 c 0,37,38
 10 504 10 504 86 550 c 0,12,13
EndSplineSet
EndChar

StartChar: h
Encoding: 104 104 71
Width: 498
VWidth: 1100
Flags: W
LayerCount: 2
Fore
SplineSet
10 270 m 0,0,1
 10 529 10 529 24 585 c 0,2,3
 36 629 36 629 67 637 c 0,4,5
 78 639 78 639 97 639 c 0,6,7
 144 639 144 639 164 614 c 128,-1,8
 184 589 184 589 184 530 c 0,9,10
 184 465 184 465 205.5 443.5 c 128,-1,11
 227 422 227 422 293 422 c 0,12,13
 488 422 488 422 488 78 c 0,14,15
 488 2 488 2 481.5 -34.5 c 128,-1,16
 475 -71 475 -71 457.5 -85.5 c 128,-1,17
 440 -100 440 -100 403 -100 c 0,18,19
 352 -100 352 -100 333 -64 c 128,-1,20
 314 -28 314 -28 306 83 c 0,21,22
 301 140 301 140 292 181.5 c 128,-1,23
 283 223 283 223 272.5 242.5 c 128,-1,24
 262 262 262 262 249.5 262 c 128,-1,25
 237 262 237 262 226 242.5 c 128,-1,26
 215 223 215 223 206 181.5 c 128,-1,27
 197 140 197 140 193 83 c 0,28,29
 185 -28 185 -28 165.5 -64 c 128,-1,30
 146 -100 146 -100 95 -100 c 0,31,32
 74 -100 74 -100 61.5 -96.5 c 128,-1,33
 49 -93 49 -93 38.5 -78 c 128,-1,34
 28 -63 28 -63 23.5 -41.5 c 128,-1,35
 19 -20 19 -20 15.5 26 c 128,-1,36
 12 72 12 72 11 125.5 c 128,-1,37
 10 179 10 179 10 270 c 0,0,1
EndSplineSet
EndChar

StartChar: i
Encoding: 105 105 72
Width: 181
VWidth: 1100
Flags: W
LayerCount: 2
Fore
SplineSet
10 574 m 0,0,1
 10 603 10 603 29 619.5 c 128,-1,2
 48 636 48 636 75 630 c 0,3,4
 121 620 121 620 140.5 596.5 c 128,-1,5
 160 573 160 573 144.5 549.5 c 128,-1,6
 129 526 129 526 84 518 c 0,7,8
 48 511 48 511 29 525.5 c 128,-1,9
 10 540 10 540 10 574 c 0,0,1
88 411 m 0,10,11
 128 403 128 403 150 326.5 c 128,-1,12
 172 250 172 250 171.5 160.5 c 128,-1,13
 171 71 171 71 147.5 -6 c 128,-1,14
 124 -83 124 -83 84 -90 c 0,15,16
 74 -92 74 -92 66.5 -92.5 c 128,-1,17
 59 -93 59 -93 52 -91 c 128,-1,18
 45 -89 45 -89 40 -85 c 128,-1,19
 35 -81 35 -81 30.5 -73.5 c 128,-1,20
 26 -66 26 -66 23 -56 c 128,-1,21
 20 -46 20 -46 17.5 -30.5 c 128,-1,22
 15 -15 15 -15 13.5 2.5 c 128,-1,23
 12 20 12 20 11.5 45 c 128,-1,24
 11 70 11 70 10.5 97.5 c 128,-1,25
 10 125 10 125 10 161 c 128,-1,26
 10 197 10 197 10.5 224 c 128,-1,27
 11 251 11 251 12 276.5 c 128,-1,28
 13 302 13 302 14 319.5 c 128,-1,29
 15 337 15 337 18 352.5 c 128,-1,30
 21 368 21 368 24 377.5 c 128,-1,31
 27 387 27 387 31.5 395 c 128,-1,32
 36 403 36 403 41.5 406.5 c 128,-1,33
 47 410 47 410 54 412 c 128,-1,34
 61 414 61 414 69.5 413.5 c 128,-1,35
 78 413 78 413 88 411 c 0,10,11
EndSplineSet
EndChar

StartChar: j
Encoding: 106 106 73
Width: 297
VWidth: 1050
Flags: W
LayerCount: 2
Fore
SplineSet
133 659 m 0,0,1
 133 690 133 690 162.5 707.5 c 128,-1,2
 192 725 192 725 228 719 c 128,-1,3
 264 713 264 713 281 685 c 0,4,5
 290 671 290 671 286 643.5 c 128,-1,6
 282 616 282 616 268 593 c 0,7,8
 247 560 247 560 214.5 558.5 c 128,-1,9
 182 557 182 557 157.5 586 c 128,-1,10
 133 615 133 615 133 659 c 0,0,1
133 202 m 0,11,12
 133 420 133 420 151 465 c 0,13,14
 166 504 166 504 201 495 c 0,15,16
 205 494 205 494 209 493 c 0,17,18
 235 489 235 489 248.5 476 c 128,-1,19
 262 463 262 463 271 426 c 128,-1,20
 280 389 280 389 282.5 333 c 128,-1,21
 285 277 285 277 285 176 c 2,22,-1
 285 -128 l 1,23,-1
 281 -176 l 0,24,-1
 109 -179 l 2,25,26
 -47.8665048544 -181.736043689 -47.8665048544 -181.736043689 -4 -95 c 0,27,28
 2 -83 2 -83 41 -88 c 0,29,30
 74 -92 74 -92 77 -96.5 c 0,31,32
 93 -122 93 -122 120 -90 c 0,33,34
 133 -75 133 -75 138 -58 c 128,-1,35
 143 -41 143 -41 137.5 -2 c 128,-1,36
 132 37 132 37 132.5 80.5 c 128,-1,37
 133 124 133 124 133 202 c 0,11,12
EndSplineSet
EndChar

StartChar: k
Encoding: 107 107 74
Width: 508
VWidth: 1100
Flags: W
LayerCount: 2
Fore
SplineSet
86 639 m 0,0,1
 133 639 133 639 149 604.5 c 128,-1,2
 165 570 165 570 165 465 c 0,3,4
 165 415 165 415 167 383.5 c 128,-1,5
 169 352 169 352 175 331 c 128,-1,6
 181 310 181 310 190 303.5 c 128,-1,7
 199 297 199 297 215.5 302.5 c 128,-1,8
 232 308 232 308 252.5 323.5 c 128,-1,9
 273 339 273 339 304 367 c 0,10,11
 349 409 349 409 377 412.5 c 128,-1,12
 405 416 405 416 436 385 c 0,13,14
 468 353 468 353 462.5 329.5 c 128,-1,15
 457 306 457 306 408 269 c 0,16,17
 364 237 364 237 355 207 c 128,-1,18
 346 177 346 177 366.5 131.5 c 128,-1,19
 387 86 387 86 449 0 c 0,20,21
 464 -20 464 -20 472 -31.5 c 128,-1,22
 480 -43 480 -43 487 -55.5 c 128,-1,23
 494 -68 494 -68 496.5 -74 c 128,-1,24
 499 -80 499 -80 498 -86 c 128,-1,25
 497 -92 497 -92 493 -94 c 128,-1,26
 489 -96 489 -96 479 -98 c 128,-1,27
 469 -100 469 -100 458.5 -100 c 128,-1,28
 448 -100 448 -100 430 -100 c 0,29,30
 391 -100 391 -100 349 -75 c 128,-1,31
 307 -50 307 -50 284 -13 c 0,32,33
 233 68 233 68 199 68 c 128,-1,34
 165 68 165 68 165 -13 c 0,35,36
 165 -52 165 -52 144 -76 c 128,-1,37
 123 -100 123 -100 88 -100 c 0,38,39
 71 -100 71 -100 59.5 -96 c 128,-1,40
 48 -92 48 -92 39 -76 c 128,-1,41
 30 -60 30 -60 25 -38 c 128,-1,42
 20 -16 20 -16 16.5 29 c 128,-1,43
 13 74 13 74 12 128 c 128,-1,44
 11 182 11 182 10.5 269.5 c 128,-1,45
 10 357 10 357 10.5 411 c 128,-1,46
 11 465 11 465 14 510 c 128,-1,47
 17 555 17 555 21.5 577.5 c 128,-1,48
 26 600 26 600 35.5 615.5 c 128,-1,49
 45 631 45 631 56.5 635 c 128,-1,50
 68 639 68 639 86 639 c 0,0,1
EndSplineSet
EndChar

StartChar: l
Encoding: 108 108 75
Width: 172
VWidth: 1100
Flags: W
LayerCount: 2
Fore
SplineSet
10 270 m 0,0,1
 10 537 10 537 25 592 c 0,2,3
 37 632 37 632 68 632 c 0,4,5
 75 632 75 632 86 630 c 0,6,7
 107 627 107 627 119 616.5 c 128,-1,8
 131 606 131 606 140.5 584.5 c 128,-1,9
 150 563 150 563 154 520.5 c 128,-1,10
 158 478 158 478 160 420.5 c 128,-1,11
 162 363 162 363 162 269.5 c 128,-1,12
 162 176 162 176 160 119 c 128,-1,13
 158 62 158 62 154 19 c 128,-1,14
 150 -24 150 -24 140.5 -45.5 c 128,-1,15
 131 -67 131 -67 119 -77.5 c 128,-1,16
 107 -88 107 -88 86 -91 c 0,17,18
 47 -98 47 -98 33 -72 c 0,19,20
 12 -33 12 -33 10 164 c 0,21,22
 10 207 10 207 10 270 c 0,0,1
EndSplineSet
EndChar

StartChar: m
Encoding: 109 109 76
Width: 794
VWidth: 1100
Flags: W
LayerCount: 2
Fore
SplineSet
10 200 m 2,0,-1
 10 461 l 1,1,-1
 358 459 l 2,2,3
 501 458 501 458 609.5 447 c 128,-1,4
 718 436 718 436 727 421.5 c 128,-1,5
 736 407 736 407 749.5 332 c 128,-1,6
 763 257 763 257 773 165 c 0,7,8
 779 111 779 111 781.5 79 c 128,-1,9
 784 47 784 47 783.5 19.5 c 128,-1,10
 783 -8 783 -8 779.5 -21 c 128,-1,11
 776 -34 776 -34 766 -43 c 128,-1,12
 756 -52 756 -52 743.5 -54.5 c 128,-1,13
 731 -57 731 -57 710 -57 c 0,14,15
 673 -57 673 -57 654 -41.5 c 128,-1,16
 635 -26 635 -26 625.5 12 c 128,-1,17
 616 50 616 50 610 128 c 0,18,19
 603 226 603 226 584.5 269.5 c 128,-1,20
 566 313 566 313 532 313 c 0,21,22
 495 313 495 313 481.5 273 c 128,-1,23
 468 233 468 233 471 128 c 0,24,25
 473 50 473 50 467 12 c 128,-1,26
 461 -26 461 -26 445 -41.5 c 128,-1,27
 429 -57 429 -57 395 -57 c 0,28,29
 347 -57 347 -57 330.5 -22.5 c 128,-1,30
 314 12 314 12 314 113 c 0,31,32
 314 243 314 243 271 305 c 0,33,34
 236 356 236 356 197 317 c 0,35,36
 188 308 188 308 179.5 253.5 c 128,-1,37
 171 199 171 199 169 130 c 0,38,39
 165 42 165 42 146 0.5 c 128,-1,40
 127 -41 127 -41 86 -48 c 0,41,42
 76 -50 76 -50 68 -50 c 128,-1,43
 60 -50 60 -50 53 -48 c 128,-1,44
 46 -46 46 -46 40.5 -42 c 128,-1,45
 35 -38 35 -38 30.5 -30.5 c 128,-1,46
 26 -23 26 -23 23 -13 c 128,-1,47
 20 -3 20 -3 17.5 12 c 128,-1,48
 15 27 15 27 14 44.5 c 128,-1,49
 13 62 13 62 12 86.5 c 128,-1,50
 11 111 11 111 10.5 137.5 c 128,-1,51
 10 164 10 164 10 200 c 2,0,-1
EndSplineSet
EndChar

StartChar: n
Encoding: 110 110 77
Width: 467
VWidth: 1100
Flags: W
LayerCount: 2
Fore
SplineSet
18 447 m 0,0,1
 38 467 38 467 123.5 467.5 c 128,-1,2
 209 468 209 468 295.5 452 c 128,-1,3
 382 436 382 436 405 413 c 0,4,5
 427 391 427 391 440.5 335.5 c 128,-1,6
 454 280 454 280 456 214.5 c 128,-1,7
 458 149 458 149 452.5 87.5 c 128,-1,8
 447 26 447 26 430.5 -15.5 c 128,-1,9
 414 -57 414 -57 392 -57 c 0,10,11
 331 -57 331 -57 318 128 c 0,12,13
 311 226 311 226 292.5 269.5 c 128,-1,14
 274 313 274 313 240 313 c 128,-1,15
 206 313 206 313 187 268.5 c 128,-1,16
 168 224 168 224 161 126 c 0,17,18
 149 -36 149 -36 107 -61 c 0,19,20
 77 -79 77 -79 50 -10 c 0,21,22
 23 60 23 60 15 187 c 0,23,24
 9 288 9 288 10 364 c 128,-1,25
 11 440 11 440 18 447 c 0,0,1
EndSplineSet
EndChar

StartChar: o
Encoding: 111 111 78
Width: 452
VWidth: 1100
Flags: W
LayerCount: 2
Fore
SplineSet
236 324 m 0,0,1
 209 334 209 334 195.5 303.5 c 128,-1,2
 182 273 182 273 182 204.5 c 128,-1,3
 182 136 182 136 195.5 105.5 c 128,-1,4
 209 75 209 75 236 85 c 0,5,6
 259 93 259 93 274.5 127.5 c 128,-1,7
 290 162 290 162 290 204.5 c 128,-1,8
 290 247 290 247 274.5 281.5 c 128,-1,9
 259 316 259 316 236 324 c 0,0,1
53 383 m 0,10,11
 78 429 78 429 143 451.5 c 128,-1,12
 208 474 208 474 279 463.5 c 128,-1,13
 350 453 350 453 390 413 c 0,14,15
 424 380 424 380 436.5 292 c 128,-1,16
 449 204 449 204 436.5 116.5 c 128,-1,17
 424 29 424 29 390 -4 c 0,18,19
 369 -25 369 -25 320 -41 c 128,-1,20
 271 -57 271 -57 225 -57 c 128,-1,21
 179 -57 179 -57 130 -41 c 128,-1,22
 81 -25 81 -25 60 -4 c 0,23,24
 29 27 29 27 16.5 97.5 c 128,-1,25
 4 168 4 168 14 248 c 128,-1,26
 24 328 24 328 53 383 c 0,10,11
EndSplineSet
EndChar

StartChar: p
Encoding: 112 112 79
Width: 498
VWidth: 1050
Flags: W
LayerCount: 2
Fore
SplineSet
314 232 m 0,0,1
 314 364 314 364 265 365 c 0,2,3
 243 366 243 366 214 337 c 0,4,5
 194 316 194 316 187 276 c 128,-1,6
 180 236 180 236 185.5 198 c 128,-1,7
 191 160 191 160 208.5 131 c 128,-1,8
 226 102 226 102 249 102 c 0,9,10
 314 102 314 102 314 232 c 0,0,1
10 124 m 2,11,-1
 10 493 l 1,12,-1
 206 493 l 2,13,14
 365 493 365 493 426.5 432.5 c 128,-1,15
 488 372 488 372 488 215 c 0,16,17
 488 166 488 166 463.5 113 c 128,-1,18
 439 60 439 60 403.5 21 c 128,-1,19
 368 -18 368 -18 325 -38 c 128,-1,20
 282 -58 282 -58 249 -45 c 0,21,22
 213 -31 213 -31 198.5 -51 c 128,-1,23
 184 -71 184 -71 184 -133 c 128,-1,24
 184 -195 184 -195 164.5 -220.5 c 128,-1,25
 145 -246 145 -246 97 -246 c 0,26,27
 52 -246 52 -246 36 -222 c 0,28,29
 14 -186 14 -186 11 -22 c 0,30,31
 10 30 10 30 10 124 c 2,11,-1
EndSplineSet
EndChar

StartChar: q
Encoding: 113 113 80
Width: 498
VWidth: 1050
Flags: W
LayerCount: 2
Fore
SplineSet
248 104 m 0,0,1
 314 104 314 104 314 234.5 c 128,-1,2
 314 365 314 365 248.5 365 c 128,-1,3
 183 365 183 365 183 234.5 c 128,-1,4
 183 104 183 104 248 104 c 0,0,1
57 413 m 0,5,6
 82 460 82 460 132.5 477.5 c 128,-1,7
 183 495 183 495 294 495 c 2,8,-1
 488 495 l 1,9,-1
 488 126 l 2,10,11
 488 -134 488 -134 473 -190 c 0,12,13
 462 -234 462 -234 430 -241 c 0,14,15
 419 -244 419 -244 401 -244 c 0,16,17
 353 -244 353 -244 333.5 -218.5 c 128,-1,18
 314 -193 314 -193 314 -131 c 0,19,20
 314 -72 314 -72 299.5 -50 c 128,-1,21
 285 -28 285 -28 253 -40 c 0,22,23
 227 -49 227 -49 183.5 -36.5 c 128,-1,24
 140 -24 140 -24 101 3 c 0,25,26
 52 38 52 38 28 107.5 c 128,-1,27
 4 177 4 177 11.5 259.5 c 128,-1,28
 19 342 19 342 57 413 c 0,5,6
EndSplineSet
EndChar

StartChar: r
Encoding: 114 114 81
Width: 360
VWidth: 1100
Flags: W
LayerCount: 2
Fore
SplineSet
11 204 m 2,0,-1
 15 465 l 1,1,-1
 180 465 l 2,2,3
 291 465 291 465 334 423 c 0,4,5
 368 389 368 389 331 356 c 0,6,7
 308 335 308 335 259 323 c 0,8,9
 206 309 206 309 189 269 c 128,-1,10
 172 229 172 229 172 122 c 0,11,12
 172 45 172 45 165 8.5 c 128,-1,13
 158 -28 158 -28 141 -42.5 c 128,-1,14
 124 -57 124 -57 89 -57 c 0,15,16
 66 -57 66 -57 52.5 -52 c 128,-1,17
 39 -47 39 -47 28.5 -31.5 c 128,-1,18
 18 -16 18 -16 15.5 13 c 128,-1,19
 13 42 13 42 10.5 89 c 128,-1,20
 8 136 8 136 11 204 c 2,0,-1
EndSplineSet
EndChar

StartChar: s
Encoding: 115 115 82
Width: 436
VWidth: 1100
Flags: W
LayerCount: 2
Fore
SplineSet
89 413 m 0,0,1
 118 442 118 442 165 452.5 c 128,-1,2
 212 463 212 463 256.5 455.5 c 128,-1,3
 301 448 301 448 336.5 424 c 128,-1,4
 372 400 372 400 378 365 c 0,5,6
 388 316 388 316 368 306.5 c 128,-1,7
 348 297 348 297 270 315 c 2,8,-1
 146 343 l 1,9,-1
 285 254 l 2,10,11
 399 181 399 181 420 121 c 128,-1,12
 441 61 441 61 376 -4 c 0,13,14
 341 -40 341 -40 272 -51 c 128,-1,15
 203 -62 203 -62 136 -45.5 c 128,-1,16
 69 -29 69 -29 37 9 c 0,17,18
 -4 57 -4 57 19 71 c 0,19,20
 45 87 45 87 189 79 c 0,21,22
 237 76 237 76 237 85 c 0,23,24
 237 95 237 95 154 141 c 0,25,26
 60 193 60 193 41.5 270 c 128,-1,27
 23 347 23 347 89 413 c 0,0,1
EndSplineSet
EndChar

StartChar: t
Encoding: 116 116 83
Width: 336
VWidth: 1100
Flags: W
LayerCount: 2
Fore
SplineSet
69 557 m 0,0,1
 140 601 140 601 167.5 590.5 c 128,-1,2
 195 580 195 580 195 509 c 0,3,4
 195 473 195 473 214 447.5 c 128,-1,5
 233 422 233 422 260 422 c 0,6,7
 286 422 286 422 305.5 402.5 c 128,-1,8
 325 383 325 383 325 356.5 c 128,-1,9
 325 330 325 330 305.5 310.5 c 128,-1,10
 286 291 286 291 260 291 c 0,11,12
 235 291 235 291 218 269 c 128,-1,13
 201 247 201 247 197 214.5 c 128,-1,14
 193 182 193 182 197 147.5 c 128,-1,15
 201 113 201 113 218 84.5 c 128,-1,16
 235 56 235 56 260 47 c 0,17,18
 298 32 298 32 314.5 6.5 c 128,-1,19
 331 -19 331 -19 325 -42 c 128,-1,20
 319 -65 319 -65 291 -82.5 c 128,-1,21
 263 -100 263 -100 221 -100 c 0,22,23
 188 -100 188 -100 166.5 -97 c 128,-1,24
 145 -94 145 -94 126 -84.5 c 128,-1,25
 107 -75 107 -75 95 -60.5 c 128,-1,26
 83 -46 83 -46 72 -19 c 128,-1,27
 61 8 61 8 53 41 c 128,-1,28
 45 74 45 74 36 126 c 0,29,30
 3 305 3 305 11.5 416 c 128,-1,31
 20 527 20 527 69 557 c 0,0,1
EndSplineSet
EndChar

StartChar: u
Encoding: 117 117 84
Width: 491
VWidth: 1150
Flags: W
LayerCount: 2
Fore
SplineSet
12 252 m 0,0,1
 11 322 11 322 10.5 365 c 128,-1,2
 10 408 10 408 19.5 432 c 128,-1,3
 29 456 29 456 43 464 c 128,-1,4
 57 472 57 472 84 472 c 0,5,6
 119 472 119 472 135 456 c 128,-1,7
 151 440 151 440 157.5 400 c 128,-1,8
 164 360 164 360 164 274 c 0,9,10
 164 191 164 191 170.5 151 c 128,-1,11
 177 111 177 111 192 97.5 c 128,-1,12
 207 84 207 84 238 89 c 0,13,14
 280 96 280 96 295 139.5 c 128,-1,15
 310 183 310 183 308 287 c 0,16,17
 306 366 306 366 312 403.5 c 128,-1,18
 318 441 318 441 334.5 456.5 c 128,-1,19
 351 472 351 472 386 472 c 0,20,21
 422 472 422 472 438.5 454.5 c 128,-1,22
 455 437 455 437 462 393 c 128,-1,23
 469 349 469 349 469 254 c 0,24,25
 469 37 469 37 480 2 c 0,26,27
 487 -20 487 -20 409 -33 c 0,28,29
 293 -53 293 -53 164 -39 c 0,30,31
 84 -31 84 -31 64 -11 c 0,32,33
 46 7 46 7 31 84 c 128,-1,34
 16 161 16 161 12 252 c 0,0,1
EndSplineSet
EndChar

StartChar: v
Encoding: 118 118 85
Width: 478
VWidth: 1100
Flags: W
LayerCount: 2
Fore
SplineSet
23 322 m 0,0,1
 4 384 4 384 14 403 c 128,-1,2
 24 422 24 422 77 422 c 0,3,4
 122 422 122 422 149.5 388.5 c 128,-1,5
 177 355 177 355 194 280 c 2,6,-1
 227 139 l 1,7,-1
 285 280 l 2,8,9
 310 339 310 339 346 380.5 c 128,-1,10
 382 422 382 422 409 422 c 0,11,12
 454 422 454 422 463 408 c 0,13,14
 477 386 477 386 445 277 c 0,15,16
 433 235 433 235 400 130 c 0,17,18
 356 -10 356 -10 324.5 -54.5 c 128,-1,19
 293 -99 293 -99 244 -92 c 0,20,21
 219 -89 219 -89 200 -76.5 c 128,-1,22
 181 -64 181 -64 162 -39 c 128,-1,23
 143 -14 143 -14 122.5 35.5 c 128,-1,24
 102 85 102 85 79 151 c 128,-1,25
 56 217 56 217 23 322 c 0,0,1
EndSplineSet
EndChar

StartChar: w
Encoding: 119 119 86
Width: 646
VWidth: 1100
Flags: W
LayerCount: 2
Fore
SplineSet
16 326 m 0,0,1
 -3 405 -3 405 35 423 c 0,2,3
 67 437 67 437 109 396 c 0,4,5
 145 362 145 362 164 304 c 0,6,7
 194 217 194 217 204 213 c 0,8,9
 210 211 210 211 217 226 c 0,10,11
 223 239 223 239 236 280 c 0,12,13
 248 320 248 320 274 349 c 128,-1,14
 300 378 300 378 322.5 378 c 128,-1,15
 345 378 345 378 376.5 349 c 128,-1,16
 408 320 408 320 427 280 c 2,17,-1
 475 183 l 1,18,-1
 477 283 l 2,19,20
 478 309 478 309 489.5 336 c 128,-1,21
 501 363 501 363 518.5 382 c 128,-1,22
 536 401 536 401 557 414.5 c 128,-1,23
 578 428 578 428 597 427 c 128,-1,24
 616 426 616 426 631 413 c 0,25,26
 640 404 640 404 631.5 324.5 c 128,-1,27
 623 245 623 245 603 143 c 0,28,29
 586 59 586 59 574 14.5 c 128,-1,30
 562 -30 562 -30 546 -57 c 128,-1,31
 530 -84 530 -84 512 -90 c 128,-1,32
 494 -96 494 -96 464 -91 c 0,33,34
 424 -85 424 -85 391.5 -51.5 c 128,-1,35
 359 -18 359 -18 347 30 c 2,36,-1
 318 139 l 1,37,-1
 286 22 l 2,38,39
 267 -44 267 -44 235 -75.5 c 128,-1,40
 203 -107 203 -107 171 -100.5 c 128,-1,41
 139 -94 139 -94 110 -50.5 c 128,-1,42
 81 -7 81 -7 68 65 c 0,43,44
 40 226 40 226 16 326 c 0,0,1
EndSplineSet
EndChar

StartChar: x
Encoding: 120 120 87
Width: 531
VWidth: 1100
Flags: W
LayerCount: 2
Fore
SplineSet
34 417 m 0,0,1
 34 453 34 453 81 450 c 0,2,3
 136 447 136 447 185 405 c 0,4,5
 201 390 201 390 212 374 c 0,6,7
 238 334 238 334 254 335.5 c 128,-1,8
 270 337 270 337 306 383 c 0,9,10
 330 414 330 414 367.5 425.5 c 128,-1,11
 405 437 405 437 441 424 c 0,12,13
 462 417 462 417 472.5 412 c 128,-1,14
 483 407 483 407 490 399 c 128,-1,15
 497 391 497 391 497 384 c 128,-1,16
 497 377 497 377 488.5 362 c 128,-1,17
 480 347 480 347 468.5 332 c 128,-1,18
 457 317 457 317 434 289 c 0,19,20
 415 266 415 266 405.5 254.5 c 128,-1,21
 396 243 396 243 386.5 225.5 c 128,-1,22
 377 208 377 208 373.5 201 c 128,-1,23
 370 194 370 194 370 178 c 128,-1,24
 370 162 370 162 373.5 153.5 c 128,-1,25
 377 145 377 145 386.5 124 c 128,-1,26
 396 103 396 103 405.5 88 c 128,-1,27
 415 73 415 73 434 41 c 2,28,-1
 521 -100 l 1,29,-1
 432 -100 l 2,30,31
 396 -100 396 -100 356 -77.5 c 128,-1,32
 316 -55 316 -55 297 -24 c 0,33,34
 284 -2 284 -2 278 7.5 c 128,-1,35
 272 17 272 17 263.5 24.5 c 128,-1,36
 255 32 255 32 251.5 32 c 128,-1,37
 248 32 248 32 239.5 24.5 c 128,-1,38
 231 17 231 17 225 7.5 c 128,-1,39
 219 -2 219 -2 206 -24 c 0,40,41
 187 -55 187 -55 148 -77.5 c 128,-1,42
 109 -100 109 -100 73 -100 c 0,43,44
 18 -100 18 -100 12 -90 c 0,45,46
 4 -77 4 -77 47 -15 c 0,47,48
 57 0 57 0 80 33 c 0,49,50
 105 68 105 68 117.5 87 c 128,-1,51
 130 106 130 106 139.5 128 c 128,-1,52
 149 150 149 150 150.5 161.5 c 128,-1,53
 152 173 152 173 146.5 192 c 128,-1,54
 141 211 141 211 131.5 226.5 c 128,-1,55
 122 242 122 242 104 270 c 0,56,57
 75 312 75 312 54.5 356 c 128,-1,58
 34 400 34 400 34 417 c 0,0,1
EndSplineSet
EndChar

StartChar: y
Encoding: 121 121 88
Width: 489
VWidth: 1050
Flags: W
LayerCount: 2
Fore
SplineSet
337 420 m 0,0,1
 358 475 358 475 387 510 c 128,-1,2
 416 545 416 545 435 539 c 0,3,4
 471 527 471 527 477 501 c 0,5,6
 486 460 486 460 432 292 c 0,7,8
 415 238 415 238 383 146 c 0,9,10
 350 48 350 48 328.5 -6 c 128,-1,11
 307 -60 307 -60 283.5 -94.5 c 128,-1,12
 260 -129 260 -129 238.5 -139.5 c 128,-1,13
 217 -150 217 -150 185 -150 c 0,14,15
 120 -150 120 -150 112 -136.5 c 128,-1,16
 104 -123 104 -123 137 -70 c 0,17,18
 167 -22 167 -22 162 33 c 128,-1,19
 157 88 157 88 111 202 c 2,20,-1
 13 448 l 2,21,22
 3 473 3 473 22 487.5 c 128,-1,23
 41 502 41 502 83 502 c 0,24,25
 174 502 174 502 202 393 c 0,26,27
 220 322 220 322 239.5 301.5 c 128,-1,28
 259 281 259 281 283 309.5 c 128,-1,29
 307 338 307 338 337 420 c 0,0,1
EndSplineSet
EndChar

StartChar: z
Encoding: 122 122 89
Width: 414
VWidth: 1100
Flags: W
LayerCount: 2
Fore
SplineSet
10 341 m 0,0,1
 10 364 10 364 11.5 377.5 c 128,-1,2
 13 391 13 391 20.5 401.5 c 128,-1,3
 28 412 28 412 38.5 416 c 128,-1,4
 49 420 49 420 71 421 c 128,-1,5
 93 422 93 422 119 419.5 c 128,-1,6
 145 417 145 417 188 411 c 0,7,8
 263 401 263 401 321 387 c 128,-1,9
 379 373 379 373 388 363 c 128,-1,10
 397 353 397 353 376.5 302 c 128,-1,11
 356 251 356 251 319 189 c 0,12,13
 255 84 255 84 251 61 c 128,-1,14
 247 38 247 38 277 28 c 0,15,16
 287 24 287 24 314 17 c 0,17,18
 406 -7 406 -7 403 -41 c 0,19,20
 401 -73 401 -73 318 -90 c 0,21,22
 270 -100 270 -100 206 -100 c 0,23,24
 124 -100 124 -100 67 -92 c 128,-1,25
 10 -84 10 -84 10 -72 c 128,-1,26
 10 -60 10 -60 37.5 -8.5 c 128,-1,27
 65 43 65 43 101 102 c 2,28,-1
 193 248 l 1,29,-1
 101 248 l 2,30,31
 54 248 54 248 32 270 c 128,-1,32
 10 292 10 292 10 341 c 0,0,1
EndSplineSet
EndChar

StartChar: braceleft
Encoding: 123 123 90
Width: 382
VWidth: 950
Flags: W
LayerCount: 2
Fore
SplineSet
112 -13 m 2,0,-1
 112 173 l 2,1,2
 112 189.735351562 112 189.735351562 103.637695312 200.9921875 c 128,-1,3
 95.2763671875 212.248046875 95.2763671875 212.248046875 82.134765625 217.614257812 c 0,4,5
 57.7001953125 226.3828125 57.7001953125 226.3828125 46.349609375 243.408203125 c 128,-1,6
 35 260.43359375 35 260.43359375 35 284.5 c 128,-1,7
 35 308.56640625 35 308.56640625 45.009765625 323.581054688 c 128,-1,8
 55.01953125 338.595703125 55.01953125 338.595703125 78.08984375 349.499023438 c 0,9,10
 99.5751953125 360.290039062 99.5751953125 360.290039062 105.784179688 370.223632812 c 128,-1,11
 112 380.168945312 112 380.168945312 112 396 c 2,12,-1
 112 568 l 2,13,14
 112 631.004882812 112 631.004882812 145.834960938 671.83984375 c 128,-1,15
 179.668945312 712.674804688 179.668945312 712.674804688 222.805664062 730.836914062 c 128,-1,16
 265.94140625 749 265.94140625 749 297.1953125 749 c 128,-1,17
 328.450195312 749 328.450195312 749 347.724609375 726.640625 c 128,-1,18
 367 704.28125 367 704.28125 367 674.17578125 c 128,-1,19
 367 644.069335938 367 644.069335938 346.133789062 624.495117188 c 0,20,21
 330.686523438 610.00390625 330.686523438 610.00390625 307.20703125 605.206054688 c 128,-1,22
 283.728515625 600.409179688 283.728515625 600.409179688 266.453125 588.758789062 c 0,23,24
 256 581.708007812 256 581.708007812 256 568 c 2,25,-1
 256 397 l 2,26,27
 256 331.227539062 256 331.227539062 220.807617188 283.263671875 c 1,28,29
 256 231.819335938 256 231.819335938 256 172 c 2,30,-1
 256 -13 l 2,31,32
 256 -26.7900390625 256 -26.7900390625 267.05859375 -34.330078125 c 0,33,34
 284.456054688 -46.1923828125 284.456054688 -46.1923828125 304.57421875 -49.4111328125 c 0,35,36
 331.967773438 -55.177734375 331.967773438 -55.177734375 349.483398438 -74.216796875 c 128,-1,37
 367 -93.2568359375 367 -93.2568359375 367 -121 c 0,38,39
 367 -153.625976562 367 -153.625976562 346.036132812 -173.8125 c 128,-1,40
 325.073242188 -194 325.073242188 -194 293.9453125 -194 c 128,-1,41
 262.817382812 -194 262.817382812 -194 220.650390625 -175.765625 c 128,-1,42
 178.483398438 -157.53125 178.483398438 -157.53125 145.2421875 -116.708007812 c 128,-1,43
 112 -75.884765625 112 -75.884765625 112 -13 c 2,0,-1
EndSplineSet
EndChar

StartChar: bar
Encoding: 124 124 91
Width: 219
VWidth: 950
Flags: W
LayerCount: 2
Fore
SplineSet
31 -160 m 2,0,-1
 31 704 l 2,1,2
 31 733.348632812 31 733.348632812 52.826171875 755.173828125 c 128,-1,3
 74.6513671875 777 74.6513671875 777 105 777 c 128,-1,4
 135.348632812 777 135.348632812 777 156.673828125 755.673828125 c 128,-1,5
 178 734.348632812 178 734.348632812 178 704 c 2,6,-1
 178 -160 l 2,7,8
 178 -191.348632812 178 -191.348632812 156.673828125 -212.673828125 c 128,-1,9
 135.348632812 -234 135.348632812 -234 105.127929688 -234 c 128,-1,10
 74.9072265625 -234 74.9072265625 -234 52.9541015625 -212.802734375 c 128,-1,11
 31 -191.606445312 31 -191.606445312 31 -160 c 2,0,-1
EndSplineSet
EndChar

StartChar: braceright
Encoding: 125 125 92
Width: 382
VWidth: 950
Flags: W
LayerCount: 2
Fore
SplineSet
270 -13 m 2,0,1
 270 -76.0048828125 270 -76.0048828125 236.165039062 -116.83984375 c 128,-1,2
 202.331054688 -157.674804688 202.331054688 -157.674804688 159.194335938 -175.836914062 c 128,-1,3
 116.05859375 -194 116.05859375 -194 84.8046875 -194 c 128,-1,4
 53.5498046875 -194 53.5498046875 -194 34.275390625 -171.640625 c 128,-1,5
 15 -149.28125 15 -149.28125 15 -119.17578125 c 128,-1,6
 15 -89.0693359375 15 -89.0693359375 35.8662109375 -69.4951171875 c 0,7,8
 51.3134765625 -55.00390625 51.3134765625 -55.00390625 74.79296875 -50.2060546875 c 128,-1,9
 98.271484375 -45.4091796875 98.271484375 -45.4091796875 115.546875 -33.7587890625 c 0,10,11
 126 -26.7080078125 126 -26.7080078125 126 -13 c 2,12,-1
 126 158 l 2,13,14
 126 223.772460938 126 223.772460938 161.192382812 271.736328125 c 1,15,16
 126 323 126 323 126 383 c 2,17,-1
 126 568 l 2,18,19
 126 581.790039062 126 581.790039062 114.94140625 589.330078125 c 0,20,21
 97.6083984375 601.147460938 97.6083984375 601.147460938 76.3623046875 604.416015625 c 0,22,23
 49.666015625 610.348632812 49.666015625 610.348632812 32.3330078125 629.942382812 c 128,-1,24
 15 649.536132812 15 649.536132812 15 676 c 0,25,26
 15 708.625976562 15 708.625976562 35.9638671875 728.8125 c 128,-1,27
 56.9267578125 749 56.9267578125 749 88.0546875 749 c 128,-1,28
 119.182617188 749 119.182617188 749 161.349609375 730.765625 c 128,-1,29
 203.516601562 712.53125 203.516601562 712.53125 236.7578125 671.708007812 c 128,-1,30
 270 630.884765625 270 630.884765625 270 568 c 2,31,-1
 270 382 l 2,32,33
 270 365.264648438 270 365.264648438 278.362304688 354.0078125 c 128,-1,34
 286.723632812 342.751953125 286.723632812 342.751953125 299.865234375 337.385742188 c 0,35,36
 324.299804688 328.6171875 324.299804688 328.6171875 335.650390625 311.591796875 c 128,-1,37
 347 294.56640625 347 294.56640625 347 270.5 c 128,-1,38
 347 246.43359375 347 246.43359375 336.990234375 231.418945312 c 128,-1,39
 326.98046875 216.404296875 326.98046875 216.404296875 303.91015625 205.500976562 c 0,40,41
 282.424804688 194.709960938 282.424804688 194.709960938 276.215820312 184.776367188 c 128,-1,42
 270 174.831054688 270 174.831054688 270 159 c 2,43,-1
 270 -13 l 2,0,1
EndSplineSet
EndChar

StartChar: asciitilde
Encoding: 126 126 93
Width: 606
Flags: W
LayerCount: 2
Fore
SplineSet
207 240 m 0,0,1
 196.053642762 240 196.053642762 240 186.074600979 227.454918901 c 0,2,3
 171.802492368 209.512839505 171.802492368 209.512839505 166.143348778 188.493163312 c 0,4,5
 159.288189234 166.421928839 159.288189234 166.421928839 143.355399428 152.602672374 c 0,6,7
 124.213494808 136 124.213494808 136 95.432544279 136 c 128,-1,8
 66.65159375 136 66.65159375 136 45.825796875 156.825796875 c 128,-1,9
 25 177.65159375 25 177.65159375 25 208 c 0,10,11
 25 222.875815268 25 222.875815268 30.8091074596 236.372070185 c 0,12,13
 54.7370104133 300.184323605 54.7370104133 300.184323605 96.0680707703 340.413225183 c 0,14,15
 140.849003802 384 140.849003802 384 207 384 c 0,16,17
 260.673182824 384 260.673182824 384 295.97268873 356.131969021 c 0,18,19
 327.269704964 331.423798311 327.269704964 331.423798311 358.309457053 287.575134314 c 0,20,21
 375.922068664 263.489196446 375.922068664 263.489196446 385.774142359 254.065472517 c 0,22,23
 390.024409082 250 390.024409082 250 393 250 c 0,24,25
 399.493937916 250 399.493937916 250 407.664409851 258.222513157 c 0,26,27
 423.384184649 274.04241391 423.384184649 274.04241391 438.690233888 313.048152293 c 0,28,29
 448.126022142 337.311607802 448.126022142 337.311607802 466.681267266 352.155803901 c 128,-1,30
 485.23651239 367 485.23651239 367 509 367 c 0,31,32
 539.34840625 367 539.34840625 367 560.174203125 346.174203125 c 128,-1,33
 581 325.34840625 581 325.34840625 581 295 c 0,34,35
 581 278.012229158 581 278.012229158 575.086461108 264.387045284 c 0,36,37
 512 105 512 105 393 105 c 0,38,39
 339.23651239 105 339.23651239 105 304.900317184 132.468956164 c 0,40,41
 274.716354772 156.616126094 274.716354772 156.616126094 241.698462521 202.415137927 c 0,42,43
 214.637361828 240 214.637361828 240 207 240 c 0,0,1
EndSplineSet
Validated: 524289
EndChar

StartChar: guillemotleft
Encoding: 171 171 94
Width: 580
Flags: W
LayerCount: 2
Fore
SplineSet
285.838656406 148.298295426 m 2,0,1
 305.00235107 130.332331679 305.00235107 130.332331679 305.001175535 105.544884525 c 128,-1,2
 305 80.7574373702 305 80.7574373702 287.443625664 63.8064552526 c 128,-1,3
 270.036939867 47 270.036939867 47 246.59128135 47 c 128,-1,4
 223.145622834 47 223.145622834 47 207.287269937 61.5899721468 c 2,5,-1
 59.1616274103 193.702031698 l 2,6,7
 39.9979327465 211.667995445 39.9979327465 211.667995445 40 238 c 0,8,9
 40 247.970570876 40 247.970570876 45.3517442813 261.052612453 c 128,-1,10
 50.7034885625 274.134654029 50.7034885625 274.134654029 60.7101158476 281.778971476 c 2,11,-1
 223.609197893 422.691674349 l 2,12,13
 241.494604956 437 241.494604956 437 262.765772411 437 c 128,-1,14
 284.036939867 437 284.036939867 437 301.443625664 420.193544747 c 128,-1,15
 319 403.24256263 319 403.24256263 319 379 c 0,16,17
 319 365.281448393 319 365.281448393 315.252695756 354.664086368 c 128,-1,18
 311.505391512 344.046724343 311.505391512 344.046724343 299.38553579 334.304391121 c 2,19,-1
 186.18592759 236.878498818 l 1,20,-1
 285.838656406 148.298295426 l 2,0,1
516.838656406 154.298295426 m 2,21,22
 536.00235107 136.332331679 536.00235107 136.332331679 536.001175535 111.544884525 c 128,-1,23
 536 86.7574373702 536 86.7574373702 518.443625664 69.8064552526 c 128,-1,24
 501.036939867 53 501.036939867 53 477.59128135 53 c 128,-1,25
 454.145622834 53 454.145622834 53 438.287269937 67.5899721468 c 2,26,-1
 290.16162741 199.702031698 l 2,27,28
 270.997932746 217.667995445 270.997932746 217.667995445 271 244 c 0,29,30
 271 253.970570876 271 253.970570876 276.351744281 267.052612453 c 128,-1,31
 281.703488563 280.134654029 281.703488563 280.134654029 291.710115848 287.778971476 c 2,32,-1
 454.609197893 428.691674349 l 2,33,34
 472.494604956 443 472.494604956 443 493.765772411 443 c 128,-1,35
 515.036939867 443 515.036939867 443 532.443625664 426.193544747 c 128,-1,36
 550 409.24256263 550 409.24256263 550 385 c 0,37,38
 550 371.281448393 550 371.281448393 546.252695756 360.664086368 c 128,-1,39
 542.505391512 350.046724343 542.505391512 350.046724343 530.38553579 340.304391121 c 2,40,-1
 417.18592759 242.878498818 l 1,41,-1
 516.838656406 154.298295426 l 2,21,22
EndSplineSet
Validated: 524321
EndChar

StartChar: guillemotright
Encoding: 187 187 95
Width: 579
Flags: W
LayerCount: 2
Fore
SplineSet
61.5563743361 63.8064552526 m 128,-1,1
 44 80.7574373702 44 80.7574373702 43.9988244651 105.544884525 c 128,-1,2
 43.9976489301 130.332331679 43.9976489301 130.332331679 63.1613435939 148.298295426 c 2,3,-1
 162.81407241 236.878498818 l 1,4,-1
 49.6144642103 334.304391121 l 2,5,6
 37.4946084882 344.046724343 37.4946084882 344.046724343 33.7473042441 354.664086368 c 128,-1,7
 30 365.281448393 30 365.281448393 30 379 c 0,8,9
 30 403.24256263 30 403.24256263 47.5563743361 420.193544747 c 128,-1,10
 64.9630601334 437 64.9630601334 437 88 437 c 0,11,12
 99.8616087948 437 99.8616087948 437 108.084834926 433.837220719 c 128,-1,13
 116.238909414 430.701038223 116.238909414 430.701038223 125.537027384 422.565185 c 2,14,-1
 288.289884152 281.778971476 l 2,15,16
 298.296511437 274.134654029 298.296511437 274.134654029 303.648255719 261.052612453 c 128,-1,17
 309 247.970570876 309 247.970570876 309 238 c 0,18,19
 309.002067254 211.667995445 309.002067254 211.667995445 289.83837259 193.702031698 c 2,20,-1
 141.712730063 61.5899721468 l 2,21,22
 125.854377166 47 125.854377166 47 102.40871865 47 c 128,-1,0
 78.9630601334 47 78.9630601334 47 61.5563743361 63.8064552526 c 128,-1,1
291.556374336 69.8064552526 m 128,-1,24
 274 86.7574373702 274 86.7574373702 273.998824465 111.544884525 c 128,-1,25
 273.99764893 136.332331679 273.99764893 136.332331679 293.161343594 154.298295426 c 2,26,-1
 392.81407241 242.878498818 l 1,27,-1
 279.61446421 340.304391121 l 2,28,29
 267.494608488 350.046724343 267.494608488 350.046724343 263.747304244 360.664086368 c 128,-1,30
 260 371.281448393 260 371.281448393 260 385 c 0,31,32
 260 409.24256263 260 409.24256263 277.556374336 426.193544747 c 128,-1,33
 294.963060133 443 294.963060133 443 318 443 c 0,34,35
 329.861608795 443 329.861608795 443 338.084834926 439.837220719 c 128,-1,36
 346.238909414 436.701038223 346.238909414 436.701038223 355.537027384 428.565185 c 2,37,-1
 518.289884152 287.778971476 l 2,38,39
 528.296511437 280.134654029 528.296511437 280.134654029 533.648255719 267.052612453 c 128,-1,40
 539 253.970570876 539 253.970570876 539 244 c 0,41,42
 539.002067254 217.667995445 539.002067254 217.667995445 519.83837259 199.702031698 c 2,43,-1
 371.712730063 67.5899721468 l 2,44,45
 355.854377166 53 355.854377166 53 332.40871865 53 c 128,-1,23
 308.963060133 53 308.963060133 53 291.556374336 69.8064552526 c 128,-1,24
EndSplineSet
Validated: 524321
EndChar

StartChar: copyright
Encoding: 169 169 101
Width: 610
Flags: W
LayerCount: 2
Fore
SplineSet
164 439 m 0,0,1
 164 506.178229704 164 506.178229704 204.977651912 546.616701985 c 128,-1,2
 245.8993939 587 245.8993939 587 313 587 c 0,3,4
 339.970570876 587 339.970570876 587 363.55867898 577.350319412 c 128,-1,5
 387.146787084 567.700638824 387.146787084 567.700638824 404.350659368 553.722492593 c 0,6,7
 425 536.717153249 425 536.717153249 425 512.940667931 c 128,-1,8
 425 489.164182613 425 489.164182613 409.738410981 477.082091307 c 128,-1,9
 394.476821962 465 394.476821962 465 372 465 c 0,10,11
 361.637372887 465 361.637372887 465 353.303343143 469.167014872 c 128,-1,12
 344.969313399 473.334029744 344.969313399 473.334029744 337.46081278 478.669249332 c 0,13,14
 324.028033722 486.999998746 324.028033722 486.999998746 313 487 c 0,15,16
 288.090898134 487 288.090898134 487 278.545449067 473.875007533 c 128,-1,17
 269 460.750015065 269 460.750015065 269 444.245800995 c 128,-1,18
 269 427.741586924 269 427.741586924 279.774562047 415.370793462 c 128,-1,19
 290.549124095 403 290.549124095 403 309.204880797 403 c 128,-1,20
 327.8606375 403 327.8606375 403 344.93031875 420.06968125 c 0,21,22
 353.806178627 428.945541127 353.806178627 428.945541127 363.018227688 434.472770564 c 128,-1,23
 372.230276749 440 372.230276749 440 386 440 c 0,24,25
 407.897451666 440 407.897451666 440 423.448725833 425.692827767 c 128,-1,26
 439 411.385655533 439 411.385655533 439 390.552245147 c 128,-1,27
 439 369.71883476 439 369.71883476 429.039059647 357.045942567 c 0,28,29
 409.523103835 329.002027337 409.523103835 329.002027337 379.367069991 315.001013668 c 128,-1,30
 349.211036148 301 349.211036148 301 304 301 c 0,31,32
 266.296321883 301 266.296321883 301 233.972014805 319.855845795 c 128,-1,33
 201.722168764 338.668255986 201.722168764 338.668255986 182.893087558 370.408707161 c 128,-1,34
 164 402.25705476 164 402.25705476 164 439 c 0,0,1
490 441 m 128,-1,36
 490 493.368933872 490 493.368933872 465.288042417 537.090089595 c 128,-1,37
 440.592104059 580.782903614 440.592104059 580.782903614 397.865756688 606.418712036 c 128,-1,38
 355.230276749 632 355.230276749 632 305 632 c 128,-1,39
 254.796231254 632 254.796231254 632 212.676582219 606.444257889 c 128,-1,40
 170.383386479 580.783217777 170.383386479 580.783217777 145.171346354 537.018921712 c 128,-1,41
 120 493.325263889 120 493.325263889 120 441 c 128,-1,42
 120 388.700028187 120 388.700028187 145.14759554 345.522081128 c 128,-1,43
 170.361699276 302.229940751 170.361699276 302.229940751 212.676582219 276.555742111 c 128,-1,44
 254.796231254 251 254.796231254 251 305 251 c 128,-1,45
 355.230276749 251 355.230276749 251 397.865756688 276.581287964 c 128,-1,46
 440.613718108 302.230064816 440.613718108 302.230064816 465.31122197 345.450696574 c 128,-1,35
 490 388.656058126 490 388.656058126 490 441 c 128,-1,36
30 441 m 128,-1,48
 30 516.674387974 30 516.674387974 67.3283278959 581.480512793 c 128,-1,49
 104.632766346 646.24516288 104.632766346 646.24516288 167.876107983 684.087490253 c 128,-1,50
 231.236740711 722 231.236740711 722 305.5 722 c 128,-1,51
 379.763259289 722 379.763259289 722 443.123892017 684.087490253 c 128,-1,52
 506.394994826 646.228551687 506.394994826 646.228551687 543.201582194 581.428221815 c 128,-1,53
 580 516.642274972 580 516.642274972 580 441 c 128,-1,54
 580 365.339317318 580 365.339317318 543.184470646 301.041773094 c 128,-1,55
 506.37907094 236.761920086 506.37907094 236.761920086 443.123892017 198.912509747 c 128,-1,56
 379.763259289 161 379.763259289 161 305.5 161 c 128,-1,57
 231.236740711 161 231.236740711 161 167.876107983 198.912509747 c 128,-1,58
 104.648779525 236.745255464 104.648779525 236.745255464 67.3457478384 300.98936559 c 128,-1,47
 30 365.307042423 30 365.307042423 30 441 c 128,-1,48
EndSplineSet
Validated: 524289
EndChar

StartChar: ordfeminine
Encoding: 170 170 102
Width: 349
Flags: W
LayerCount: 2
Fore
SplineSet
208.881835938 534.249023438 m 1,0,1
 203.171875 535 203.171875 535 196 535 c 0,2,3
 167.838867188 535 167.838867188 535 153.21484375 512.904296875 c 0,4,5
 137 488.405273438 137 488.405273438 137 459.94140625 c 0,6,7
 137 438.649414062 137 438.649414062 148.193359375 428.760742188 c 128,-1,8
 159.2421875 419 159.2421875 419 172 419 c 0,9,10
 192.853515625 419 192.853515625 419 207.063476562 429.567382812 c 1,11,-1
 208.881835938 534.249023438 l 1,0,1
233.120117188 314.571289062 m 0,12,13
 224.1796875 320.29296875 224.1796875 320.29296875 218.87890625 329.7734375 c 1,14,15
 193.763671875 309 193.763671875 309 157.323242188 309 c 128,-1,16
 120.8828125 309 120.8828125 309 91.029296875 328.470703125 c 128,-1,17
 61.1748046875 347.94140625 61.1748046875 347.94140625 43.587890625 381.649414062 c 128,-1,18
 26 415.356445312 26 415.356445312 26 458.946289062 c 128,-1,19
 26 502.53515625 26 502.53515625 45.388671875 546.065429688 c 128,-1,20
 64.7783203125 589.596679688 64.7783203125 589.596679688 102.655273438 617.798828125 c 128,-1,21
 140.533203125 646 140.533203125 646 192 646 c 0,22,23
 225.7421875 646 225.7421875 646 260.869140625 634.114257812 c 128,-1,24
 295.829101562 622.28515625 295.829101562 622.28515625 314.06640625 609.111328125 c 2,25,-1
 317.98046875 606.284179688 l 1,26,-1
 319 356.953125 l 2,27,28
 319 336.14453125 319 336.14453125 303.203125 320.6484375 c 128,-1,29
 287.25 305 287.25 305 265 305 c 0,30,31
 248.075195312 305 248.075195312 305 233.120117188 314.571289062 c 0,12,13
EndSplineSet
Validated: 524289
EndChar

StartChar: logicalnot
Encoding: 172 172 103
Width: 466
Flags: W
LayerCount: 2
Fore
SplineSet
76 237 m 2,0,1
 52.9707574526 237 52.9707574526 237 36.5659733456 252.79719951 c 128,-1,2
 20 268.749618288 20 268.749618288 20 291.391424432 c 128,-1,3
 20 314.033230576 20 314.033230576 36.3019940184 330.93900215 c 128,-1,4
 52.7536705163 348 52.7536705163 348 76 348 c 2,5,-1
 374 348 l 2,6,7
 395.823648473 348 395.823648473 348 413.411692438 332.23140886 c 128,-1,8
 430.999736402 316.462817719 430.999736402 316.462817719 430.999736402 291.926699592 c 2,9,-1
 430 153 l 2,10,11
 430 129.749618288 430 129.749618288 413.434026654 113.79719951 c 128,-1,12
 397.029242547 98 397.029242547 98 374.498005986 98 c 128,-1,13
 351.966769424 98 351.966769424 98 335.06099785 114.301994018 c 128,-1,14
 317.998846754 130.753682793 317.998846754 130.753682793 317.998846754 153.000012276 c 2,15,-1
 318.893040468 237 l 1,16,-1
 76 237 l 2,0,1
EndSplineSet
Validated: 524289
EndChar

StartChar: uni00AD
Encoding: 173 173 104
Width: 409
Flags: W
LayerCount: 2
Fore
SplineSet
35 244 m 128,-1,1
 35 267.24256263 35 267.24256263 52.5563743361 284.193544747 c 128,-1,2
 69.9630601334 301 69.9630601334 301 92 301 c 2,3,-1
 317 301 l 2,4,5
 341.1393625 301 341.1393625 301 357.56968125 284.56968125 c 128,-1,6
 374 268.1393625 374 268.1393625 374 244.5 c 128,-1,7
 374 220.8606375 374 220.8606375 357.06968125 203.93031875 c 128,-1,8
 340.1393625 187 340.1393625 187 317 187 c 2,9,-1
 92 187 l 2,10,11
 69.9630601334 187 69.9630601334 187 52.5563743361 203.806455253 c 128,-1,0
 35 220.75743737 35 220.75743737 35 244 c 128,-1,1
EndSplineSet
Validated: 524289
EndChar

StartChar: registered
Encoding: 174 174 105
Width: 610
Flags: W
LayerCount: 2
Fore
SplineSet
338 484 m 0,0,1
 338 488.648930804 338 488.648930804 330.986698103 493.324465402 c 128,-1,2
 323.973396206 498 323.973396206 498 314.549774696 498 c 128,-1,3
 305.126153186 498 305.126153186 498 299.819472478 497.7472072 c 1,4,-1
 294.492146084 459.124090841 l 1,5,6
 338 460.838839954 338 460.838839954 338 484 c 0,0,1
171.135135135 366.199415632 m 0,7,8
 171.135135135 371.360355078 171.135135135 371.360355078 172.156320306 376.772142602 c 2,9,-1
 199.130951796 536.621810695 l 2,10,11
 202.493909619 557.894402278 202.493909619 557.894402278 209.337893196 567.475979286 c 128,-1,12
 216.181876774 577.057556294 216.181876774 577.057556294 236.605303446 581.028778147 c 128,-1,13
 257.028730118 585 257.028730118 585 301 585 c 0,14,15
 365.101016773 585 365.101016773 585 402.050508386 559.631692325 c 128,-1,16
 439 534.26338465 439 534.26338465 439 487.850846754 c 128,-1,17
 439 441.438308859 439 441.438308859 386.730357771 413.31184226 c 1,18,-1
 389.725103288 411.197887445 l 2,19,20
 414 394.205459746 414 394.205459746 414 366 c 0,21,22
 414 343.8606375 414 343.8606375 398.56968125 328.43031875 c 128,-1,23
 383.1393625 313 383.1393625 313 361.738176818 312.998566885 c 128,-1,24
 340.336991137 312.99713377 340.336991137 312.99713377 324.543773166 326.360625899 c 2,25,-1
 280.765351887 365.530792306 l 1,26,-1
 279.863703421 360.34663938 l 2,27,28
 276.275233357 338.815818996 276.275233357 338.815818996 262.056710499 326.451886076 c 128,-1,29
 247.737041512 314 247.737041512 314 225.24899474 314 c 128,-1,30
 202.760947968 314 202.760947968 314 185.310616787 332.052066738 c 0,31,32
 171.135135135 346.716358103 171.135135135 346.716358103 171.135135135 366.199415632 c 0,7,8
490 441 m 128,-1,34
 490 493.368933872 490 493.368933872 465.288042417 537.090089595 c 128,-1,35
 440.592104059 580.782903614 440.592104059 580.782903614 397.865756688 606.418712036 c 128,-1,36
 355.230276749 632 355.230276749 632 305 632 c 128,-1,37
 254.796231254 632 254.796231254 632 212.676582219 606.444257889 c 128,-1,38
 170.383386479 580.783217777 170.383386479 580.783217777 145.171346354 537.018921712 c 128,-1,39
 120 493.325263889 120 493.325263889 120 441 c 128,-1,40
 120 388.700028187 120 388.700028187 145.14759554 345.522081128 c 128,-1,41
 170.361699276 302.229940751 170.361699276 302.229940751 212.676582219 276.555742111 c 128,-1,42
 254.796231254 251 254.796231254 251 305 251 c 128,-1,43
 355.230276749 251 355.230276749 251 397.865756688 276.581287964 c 128,-1,44
 440.613718108 302.230064816 440.613718108 302.230064816 465.31122197 345.450696574 c 128,-1,33
 490 388.656058126 490 388.656058126 490 441 c 128,-1,34
30 441 m 128,-1,46
 30 516.674387974 30 516.674387974 67.3283278959 581.480512793 c 128,-1,47
 104.632766346 646.24516288 104.632766346 646.24516288 167.876107983 684.087490253 c 128,-1,48
 231.236740711 722 231.236740711 722 305.5 722 c 128,-1,49
 379.763259289 722 379.763259289 722 443.123892017 684.087490253 c 128,-1,50
 506.394994826 646.228551687 506.394994826 646.228551687 543.201582194 581.428221815 c 128,-1,51
 580 516.642274972 580 516.642274972 580 441 c 128,-1,52
 580 365.339317318 580 365.339317318 543.184470646 301.041773094 c 128,-1,53
 506.37907094 236.761920086 506.37907094 236.761920086 443.123892017 198.912509747 c 128,-1,54
 379.763259289 161 379.763259289 161 305.5 161 c 128,-1,55
 231.236740711 161 231.236740711 161 167.876107983 198.912509747 c 128,-1,56
 104.648779525 236.745255464 104.648779525 236.745255464 67.3457478384 300.98936559 c 128,-1,45
 30 365.307042423 30 365.307042423 30 441 c 128,-1,46
EndSplineSet
Validated: 526369
EndChar

StartChar: macron
Encoding: 175 175 106
Width: 280
Flags: W
LayerCount: 2
Fore
SplineSet
6.07134259635 574.292032946 m 128,-1,1
 -10 589.745246981 -10 589.745246981 -10 613.887244764 c 128,-1,2
 -10 638.029242547 -10 638.029242547 5.79719951044 654.434026654 c 128,-1,3
 21.7496182877 671 21.7496182877 671 45 671 c 2,4,-1
 235 671 l 2,5,6
 258.250381712 671 258.250381712 671 274.20280049 654.434026654 c 128,-1,7
 290 638.029242547 290 638.029242547 290 615 c 128,-1,8
 290 591.970757453 290 591.970757453 274.20280049 575.565973346 c 128,-1,9
 258.250381712 559 258.250381712 559 235 559 c 2,10,-1
 45 559 l 2,11,0
 21.9750568607 559 21.9750568607 559 6.07134259635 574.292032946 c 128,-1,1
EndSplineSet
Validated: 524289
EndChar

StartChar: degree
Encoding: 176 176 107
Width: 269
Flags: W
LayerCount: 2
Fore
SplineSet
166 549 m 128,-1,1
 166 563.753670516 166 563.753670516 155.06099785 574.301994018 c 128,-1,2
 143.966769424 585 143.966769424 585 129 585 c 128,-1,3
 114.033230576 585 114.033230576 585 102.93900215 574.301994018 c 128,-1,4
 92 563.753670516 92 563.753670516 92 549 c 128,-1,5
 92 534.246329484 92 534.246329484 102.93900215 523.698005982 c 128,-1,6
 114.033230576 513 114.033230576 513 129 513 c 128,-1,7
 143.966769424 513 143.966769424 513 155.06099785 523.698005982 c 128,-1,0
 166 534.246329484 166 534.246329484 166 549 c 128,-1,1
-14 549 m 128,-1,9
 -14 587.692957577 -14 587.692957577 5.34574783844 621.01063441 c 128,-1,10
 24.6650948312 654.28284312 24.6650948312 654.28284312 57.4281924831 673.618441734 c 128,-1,11
 90.2691662119 693 90.2691662119 693 129 693 c 128,-1,12
 167.730833788 693 167.730833788 693 200.571807517 673.618441734 c 128,-1,13
 233.334905169 654.28284312 233.334905169 654.28284312 252.654252162 621.01063441 c 128,-1,14
 272 587.692957577 272 587.692957577 272 549 c 128,-1,15
 272 510.269166212 272 510.269166212 252.618441734 477.428192483 c 128,-1,16
 233.302165117 444.697834883 233.302165117 444.697834883 200.571807517 425.381558266 c 128,-1,17
 167.730833788 406 167.730833788 406 129 406 c 128,-1,18
 90.2691662119 406 90.2691662119 406 57.4281924831 425.381558266 c 128,-1,19
 24.6978348828 444.697834883 24.6978348828 444.697834883 5.38155826618 477.428192483 c 128,-1,8
 -14 510.269166212 -14 510.269166212 -14 549 c 128,-1,9
EndSplineSet
Validated: 524289
EndChar

StartChar: plusminus
Encoding: 177 177 108
Width: 467
Flags: W
LayerCount: 2
Fore
SplineSet
114 -17 m 2,0,1
 91.0841075879 -17 91.0841075879 -17 74.542053794 -1.68328352411 c 128,-1,2
 58 13.6334329518 58 13.6334329518 58 38.9398812178 c 128,-1,3
 58 64.2463294837 58 64.2463294837 75.0609978496 80.6980059816 c 128,-1,4
 91.9667694243 97 91.9667694243 97 114 97 c 2,5,-1
 331 97 l 2,6,7
 354.246329484 97 354.246329484 97 370.698005982 79.9390021504 c 128,-1,8
 387 63.0332305757 387 63.0332305757 387 38.8914244317 c 128,-1,9
 387 14.7496182877 387 14.7496182877 370.434026654 -1.20280048956 c 128,-1,10
 354.029242547 -17 354.029242547 -17 331 -17 c 2,11,-1
 114 -17 l 2,0,1
166 164 m 2,12,-1
 166 229 l 1,13,-1
 99 229 l 2,14,15
 75.8606375 229 75.8606375 229 59.43031875 245.43031875 c 128,-1,16
 43 261.8606375 43 261.8606375 43 284.948788683 c 128,-1,17
 43 308.036939867 43 308.036939867 59.8064552526 325.443625664 c 128,-1,18
 76.7574373702 343 76.7574373702 343 99 343 c 2,19,-1
 166 343 l 1,20,-1
 166 399 l 2,21,22
 166 420.924097563 166 420.924097563 181.820954703 437.962048781 c 128,-1,23
 197.641909406 455 197.641909406 455 221.944119445 455 c 128,-1,24
 246.246329484 455 246.246329484 455 262.698005982 437.93900215 c 128,-1,25
 279 421.033230576 279 421.033230576 279 399 c 2,26,-1
 279 343 l 1,27,-1
 346 343 l 2,28,29
 368.036939867 343 368.036939867 343 385.443625664 326.193544747 c 128,-1,30
 403 309.24256263 403 309.24256263 403 286.551600065 c 128,-1,31
 403 263.8606375 403 263.8606375 385.56968125 246.43031875 c 128,-1,32
 368.1393625 229 368.1393625 229 346 229 c 2,33,-1
 279 229 l 1,34,-1
 279 164 l 2,35,36
 279 141.8606375 279 141.8606375 262.06968125 124.93031875 c 128,-1,37
 245.1393625 108 245.1393625 108 222.5 108 c 128,-1,38
 199.8606375 108 199.8606375 108 182.93031875 124.93031875 c 128,-1,39
 166 141.8606375 166 141.8606375 166 164 c 2,12,-1
EndSplineSet
Validated: 524289
EndChar

StartChar: uni00B2
Encoding: 178 178 109
Width: 295
Flags: W
LayerCount: 2
Fore
SplineSet
181 677 m 0,0,1
 181 683.001544901 181 683.001544901 174.334363268 688.000772451 c 128,-1,2
 167.668726535 693 167.668726535 693 155 693 c 0,3,4
 134.206826657 693 134.206826657 693 113.208235311 672.068651517 c 0,5,6
 100.330764814 658.136624369 100.330764814 658.136624369 91.0502440329 652.568312184 c 128,-1,7
 81.7697232514 647 81.7697232514 647 67 647 c 0,8,9
 42.8606375 647 42.8606375 647 28.43031875 661.43031875 c 128,-1,10
 14 675.8606375 14 675.8606375 14 698.826512069 c 128,-1,11
 14 721.792386639 14 721.792386639 26.52140007 735.63660289 c 0,12,13
 47.5211411978 759.757689503 47.5211411978 759.757689503 80.350393296 779.878844751 c 128,-1,14
 113.179645394 800 113.179645394 800 154 800 c 0,15,16
 208.625519953 800 208.625519953 800 248.312759977 766.836689843 c 128,-1,17
 288 733.673379687 288 733.673379687 288 677 c 0,18,19
 288 627.207464494 288 627.207464494 262.708140129 598.686856554 c 128,-1,20
 237.416280258 570.166248614 237.416280258 570.166248614 192.078948773 544.384094964 c 0,21,22
 150.623758022 518.902130928 150.623758022 518.902130928 136.235814598 495 c 1,23,-1
 239 495 l 2,24,25
 258.81189749 495 258.81189749 495 275.905948745 479.737454237 c 128,-1,26
 293 464.474908473 293 464.474908473 293 441.614289495 c 128,-1,27
 293 418.753670516 293 418.753670516 275.93900215 402.301994018 c 128,-1,28
 259.033230576 386 259.033230576 386 239 386 c 2,29,-1
 16 386 l 1,30,-1
 16 440 l 2,31,32
 16 489.930263031 16 489.930263031 29.7886920496 524.401993155 c 128,-1,33
 43.5773840992 558.873723279 43.5773840992 558.873723279 74.3188659917 586.488952775 c 0,34,35
 106.435405324 615.339403362 106.435405324 615.339403362 160.013487424 646.668213461 c 0,36,37
 181 658.77581687 181 658.77581687 181 677 c 0,0,1
EndSplineSet
Validated: 524289
EndChar

StartChar: uni00B3
Encoding: 179 179 110
Width: 288
Flags: W
LayerCount: 2
Fore
SplineSet
2 485 m 0,0,1
 2 507.907037244 2 507.907037244 16.8121366567 523.953518622 c 128,-1,2
 31.6242733135 540 31.6242733135 540 54 540 c 0,3,4
 84.5921994678 540 84.5921994678 540 102.507462038 510.257047184 c 0,5,6
 108.049546452 501.606213408 108.049546452 501.606213408 118.247828259 496.303106704 c 128,-1,7
 128.446110065 491 128.446110065 491 140.709753136 491 c 128,-1,8
 152.973396206 491 152.973396206 491 162.986698103 497.675534598 c 128,-1,9
 173 504.351069196 173 504.351069196 173 518.77337658 c 128,-1,10
 173 533.195683965 173 533.195683965 163.546936153 540.758135043 c 128,-1,11
 154.093872305 548.320586121 154.093872305 548.320586121 127.122307088 551.037195188 c 0,12,13
 105.804204095 552.627744431 105.804204095 552.627744431 93.2549012376 563.095698967 c 0,14,15
 77 576.654665366 77 576.654665366 77 603 c 128,-1,16
 77 629.345334634 77 629.345334634 93.2549012376 642.904301033 c 0,17,18
 105.823719592 653.388534879 105.823719592 653.388534879 126.617572254 655.062908095 c 128,-1,19
 147.411424917 656.737281311 147.411424917 656.737281311 156.705712458 663.42916829 c 128,-1,20
 166 670.121055269 166 670.121055269 166 678.857483548 c 128,-1,21
 166 687.593911828 166 687.593911828 159.41285427 691.296955914 c 128,-1,22
 152.82570854 695 152.82570854 695 139 695 c 0,23,24
 118.392771288 695 118.392771288 695 105.073453171 685.056490461 c 0,25,26
 88.3882117822 672.000002873 88.3882117822 672.000002873 66.6244246411 672.000001436 c 128,-1,27
 44.8606375 672 44.8606375 672 30.43031875 686.43031875 c 128,-1,28
 16 700.8606375 16 700.8606375 16 725 c 0,29,30
 16 745.1393625 16 745.1393625 33.6878595595 762.82722206 c 128,-1,31
 51.375719119 780.515081619 51.375719119 780.515081619 79.2613923725 791.77660351 c 128,-1,32
 107.052659872 803 107.052659872 803 139 803 c 0,33,34
 192.402641187 803 192.402641187 803 232.701320593 771.959125322 c 128,-1,35
 273 740.918250644 273 740.918250644 273 689 c 0,36,37
 273 659.637372887 273 659.637372887 260.950103332 635.53757955 c 0,38,39
 252.873671481 619.384715849 252.873671481 619.384715849 242.13761034 608.442346655 c 1,40,41
 257.287023769 597.555748611 257.287023769 597.555748611 267.615632213 580.076565091 c 0,42,43
 282 555.733788836 282 555.733788836 282 525 c 0,44,45
 282 484.16496031 282 484.16496031 262.018023428 451.761755058 c 128,-1,46
 242.12758995 419.506998067 242.12758995 419.506998067 209.808642057 401.731576726 c 128,-1,47
 177.569411646 384 177.569411646 384 140 384 c 0,48,49
 91.9110044313 384 91.9110044313 384 59.7772718101 405.958050624 c 128,-1,50
 27.6435391889 427.916101249 27.6435391889 427.916101249 9.47406904506 456.773495007 c 0,51,52
 2 469.230276749 2 469.230276749 2 485 c 0,0,1
EndSplineSet
Validated: 524321
EndChar

StartChar: acute
Encoding: 180 180 111
Width: 205
Flags: W
LayerCount: 2
Fore
SplineSet
151 756 m 0,0,1
 176.1393625 756 176.1393625 756 195.56968125 736.56968125 c 128,-1,2
 215 717.1393625 215 717.1393625 215 691.524816907 c 128,-1,3
 215 665.910271314 215 665.910271314 196.137409397 646.99813577 c 2,4,-1
 89.3753550207 536.244976558 l 2,5,6
 73.4058729625 518 73.4058729625 518 49.237075626 518 c 128,-1,7
 25.0682782895 518 25.0682782895 518 7.53413914474 534.324888169 c 128,-1,8
 -10 550.649776338 -10 550.649776338 -10 575 c 0,9,10
 -10.0035864982 592.334136664 -10.0035864982 592.334136664 3.99165912589 610.994464163 c 2,11,-1
 99.2571115311 730.32581217 l 2,12,13
 120.26326521 756 120.26326521 756 151 756 c 0,0,1
EndSplineSet
Validated: 524321
EndChar

StartChar: mu
Encoding: 181 181 112
Width: 526
Flags: W
LayerCount: 2
Fore
SplineSet
466 448 m 2,0,-1
 466 42 l 2,1,2
 466 18.7609479678 466 18.7609479678 447.947933262 1.31061678738 c 128,-1,3
 430.040398654 -16 430.040398654 -16 405.058150546 -16 c 128,-1,4
 380.075902437 -16 380.075902437 -16 363.198849917 -0.328451231552 c 0,5,6
 351.018753712 10.9816381018 351.018753712 10.9816381018 347.408296659 25.9726190201 c 1,7,8
 327.992980801 8.72588738483 327.992980801 8.72588738483 303.139737786 -2.60426751932 c 0,9,10
 267.174905247 -19 267.174905247 -19 230 -19 c 0,11,12
 205.359399826 -19 205.359399826 -19 181.325872821 -10.758457041 c 1,13,14
 191.657799482 -80.4768982785 191.657799482 -80.4768982785 192.843670116 -86.2128054109 c 0,15,16
 199 -116 199 -116 199 -125 c 0,17,18
 199 -146.915892412 199 -146.915892412 183.683283524 -163.457946206 c 128,-1,19
 168.366567048 -180 168.366567048 -180 143.797912224 -180 c 128,-1,20
 119.2292574 -180 119.2292574 -180 103.89849229 -166.508926703 c 128,-1,21
 88.7593314144 -153.186465133 88.7593314144 -153.186465133 85.1539229465 -132.755817148 c 0,22,23
 74.0680232852 -70.2716554207 74.0680232852 -70.2716554207 65.5402348513 40.0879596065 c 128,-1,24
 57.0124464174 150.447574634 57.0124464174 150.447574634 54.0039164435 245.717690473 c 0,25,26
 53.7777777778 253.858682439 53.7777777778 253.858682439 53.7777777778 274.907069689 c 128,-1,27
 53.7777777778 295.955456939 53.7777777778 295.955456939 56.9075476557 350.949984794 c 128,-1,28
 60.0373175335 405.944512648 60.0373175335 405.944512648 65.0776059984 444.250704981 c 0,29,30
 68.4748606096 471.42874187 68.4748606096 471.42874187 83.5541467807 487.714370935 c 128,-1,31
 98.6334329518 504 98.6334329518 504 125.009544242 504 c 128,-1,32
 151.385655533 504 151.385655533 504 165.692827767 488.448725833 c 128,-1,33
 180 472.897451666 180 472.897451666 180 447 c 0,34,35
 180 437.343169652 180 437.343169652 176.915624777 413.696292939 c 2,36,-1
 176.899143288 413.575672772 l 2,37,38
 175.937469947 406.843959386 175.937469947 406.843959386 171.961252156 361.614482005 c 128,-1,39
 168 316.555238734 168 316.555238734 168 252.258057594 c 0,40,41
 168 127.342902808 168 127.342902808 194.819957798 102.310942197 c 0,42,43
 206.938824438 91 206.938824438 91 230 91 c 0,44,45
 260.58085374 91 260.58085374 91 295.441963404 108.901650909 c 0,46,47
 335.136046933 129.285099207 335.136046933 129.285099207 347.013738046 148.289404988 c 0,48,49
 347.996867876 151.991170342 347.996867876 151.991170342 347.996867876 163.000054967 c 2,50,-1
 353.000078463 448.093799879 l 2,51,52
 353.036851807 470.071447265 353.036851807 470.071447265 369.301994018 486.93900215 c 128,-1,53
 385.753670516 504 385.753670516 504 408.838884039 504 c 128,-1,54
 431.924097563 504 431.924097563 504 448.962048781 488.179045297 c 128,-1,55
 466 472.358090594 466 472.358090594 466 448 c 2,0,-1
EndSplineSet
Validated: 524289
EndChar

StartChar: paragraph
Encoding: 182 182 113
Width: 546
Flags: W
LayerCount: 2
Fore
SplineSet
330 -43 m 0,0,1
 330 -34.1228142322 330 -34.1228142322 347.143286454 63.6947614146 c 0,2,3
 392.993617636 331.819524201 392.993617636 331.819524201 392.999999112 592.927305339 c 2,4,-1
 391.99896104 662.999970326 l 2,5,6
 391.99896104 686.39000171 391.99896104 686.39000171 406.033301823 704.695000855 c 128,-1,7
 420.067642606 723 420.067642606 723 444.351701601 723 c 128,-1,8
 468.635760597 723 468.635760597 723 482.138979116 707.041650841 c 0,9,10
 496.167875965 690.462045474 496.167875965 690.462045474 497.583937982 670.380245034 c 128,-1,11
 499 650.298444593 499 650.298444593 499 593 c 0,12,13
 499 253.03868981 499 253.03868981 434.772946018 -43.1268458423 c 0,14,15
 430.236605837 -63.1900403519 430.236605837 -63.1900403519 415.10150771 -76.5089267029 c 128,-1,16
 399.7707426 -90 399.7707426 -90 377.81569005 -90 c 128,-1,17
 355.8606375 -90 355.8606375 -90 342.93031875 -77.06968125 c 128,-1,18
 330 -64.1393625 330 -64.1393625 330 -43 c 0,0,1
369.06968125 749.06968125 m 128,-1,20
 384 734.1393625 384 734.1393625 384 710.080625026 c 128,-1,21
 384 686.021887552 384 686.021887552 373.536146829 670.018347408 c 128,-1,22
 362.976330141 653.868039532 362.976330141 653.868039532 348.797548635 651.161418665 c 2,23,-1
 346 650.652773459 l 1,24,-1
 346 583 l 2,25,26
 346 270.992650642 346 270.992650642 282.79615763 -42.01685443 c 0,27,28
 278.648749591 -62.2354686184 278.648749591 -62.2354686184 267.087652318 -73.9772080365 c 0,29,30
 252.295980231 -89 252.295980231 -89 228.646106366 -89 c 128,-1,31
 204.996232502 -89 204.996232502 -89 191.097867313 -75.7333786833 c 128,-1,32
 177 -62.2763235209 177 -62.2763235209 177 -40 c 0,33,34
 177 -31.4682344232 177 -31.4682344232 189.06263845 32.5741867377 c 0,35,36
 210.963003832 148.846628224 210.963003832 148.846628224 226.034460339 301.535591439 c 1,37,-1
 216.51156384 302.011744096 l 2,38,39
 129.944755711 306.183638464 129.944755711 306.183638464 73.9723778556 356.875603314 c 128,-1,40
 18 407.567568164 18 407.567568164 18 495 c 0,41,42
 18 575.723463699 18 575.723463699 64.863118021 629.876400079 c 128,-1,43
 111.726236042 684.029336458 111.726236042 684.029336458 172.553252475 714.958327865 c 0,44,45
 212.358877793 734.350811994 212.358877793 734.350811994 261.944588768 749.175405997 c 128,-1,46
 311.530299743 764 311.530299743 764 332.834831122 764 c 128,-1,19
 354.1393625 764 354.1393625 764 369.06968125 749.06968125 c 128,-1,20
EndSplineSet
Validated: 524289
EndChar

StartChar: periodcentered
Encoding: 183 183 114
Width: 198
Flags: W
LayerCount: 2
Fore
SplineSet
15 248.67524448 m 128,-1,1
 15 282.767593109 15 282.767593109 40.0303416418 309.883796555 c 128,-1,2
 65.0606832837 337 65.0606832837 337 98.6833116469 337 c 128,-1,3
 132.30594001 337 132.30594001 337 153.652970005 312.708552075 c 128,-1,4
 175 288.41710415 175 288.41710415 175 253.83263518 c 128,-1,5
 175 219.248166211 175 219.248166211 150.477818192 192.624083105 c 128,-1,6
 125.955636385 166 125.955636385 166 91.8248481873 166 c 128,-1,7
 57.6940599898 166 57.6940599898 166 36.3470299949 190.291447925 c 128,-1,0
 15 214.58289585 15 214.58289585 15 248.67524448 c 128,-1,1
EndSplineSet
Validated: 524289
EndChar

StartChar: cedilla
Encoding: 184 184 115
Width: 184
Flags: W
LayerCount: 2
Fore
SplineSet
194 -111 m 0,0,1
 194 -159.46258139 194 -159.46258139 161.911824237 -188.231290695 c 128,-1,2
 129.823648473 -217 129.823648473 -217 81 -217 c 0,3,4
 46.1822180395 -217 46.1822180395 -217 19.2891283606 -200.534843054 c 0,5,6
 -10 -183 -10 -183 -10 -152 c 0,7,8
 -10 -135.182119759 -10 -135.182119759 1.26568515532 -122.591059879 c 128,-1,9
 12.5313703106 -110 12.5313703106 -110 30 -110 c 0,10,11
 42.5222625286 -110 42.5222625286 -110 50.7741208309 -114.443308317 c 128,-1,12
 59.0259791333 -118.886616633 59.0259791333 -118.886616633 67.5826708166 -127.443308317 c 128,-1,13
 76.1393625 -136 76.1393625 -136 86.3519859651 -136 c 128,-1,14
 96.5646094301 -136 96.5646094301 -136 103.282304715 -128.575178896 c 128,-1,15
 110 -121.150357791 110 -121.150357791 110 -110.644860146 c 128,-1,16
 110 -100.1393625 110 -100.1393625 102.43031875 -92.56968125 c 128,-1,17
 94.8606375 -85 94.8606375 -85 84.8290950269 -85 c 128,-1,18
 74.7975525539 -85 74.7975525539 -85 61.2975525539 -90 c 128,-1,19
 47.7975525539 -95 47.7975525539 -95 37.3290950269 -95 c 128,-1,20
 26.8606375 -95 26.8606375 -95 18.43031875 -86.56968125 c 128,-1,21
 10 -78 10 -78 10 -65 c 0,22,23
 10 -52.3716199428 10 -52.3716199428 32.5105810376 15.1606121933 c 0,24,25
 38.0402683087 31.1796308087 38.0402683087 31.1796308087 45.4504529043 38.5898154043 c 128,-1,26
 52.8606375 46 52.8606375 46 66.1285460899 46 c 128,-1,27
 79.3964546798 46 79.3964546798 46 87.6982273399 36.9435207344 c 128,-1,28
 96 27.8870414689 96 27.8870414689 96 12 c 2,29,-1
 96 11.7688709092 l 1,30,-1
 95.2687704723 -20.2897706461 l 1,31,32
 98.3304312713 -20 98.3304312713 -20 101 -20 c 0,33,34
 138.020294406 -20 138.020294406 -20 165.922845746 -46.7864492864 c 128,-1,35
 194 -73.7405173702 194 -73.7405173702 194 -111 c 0,0,1
EndSplineSet
Validated: 524289
EndChar

StartChar: uni00B9
Encoding: 185 185 116
Width: 225
Flags: W
LayerCount: 2
Fore
SplineSet
63 387 m 2,0,1
 37.614344467 387 37.614344467 387 23.3071722335 402.551274167 c 128,-1,2
 9 418.102548334 9 418.102548334 9 441.178650676 c 128,-1,3
 9 464.254753019 9 464.254753019 25.0713425963 479.707967054 c 128,-1,4
 40.9750568607 495 40.9750568607 495 63 495 c 2,5,-1
 66.1928732542 495 l 1,6,-1
 68.7591598517 626.736045334 l 1,7,8
 63.736819194 626 63.736819194 626 60 626 c 0,9,10
 41.1881025101 626 41.1881025101 626 24.094051255 641.262545763 c 128,-1,11
 7 656.525091527 7 656.525091527 7 679.270144528 c 128,-1,12
 7 702.015197529 7 702.015197529 20.7883418818 715.927069949 c 2,13,-1
 84.557129747 784.677794366 l 2,14,15
 100.524949848 803 100.524949848 803 123.655256416 803 c 128,-1,16
 146.785562985 803 146.785562985 803 162.428495778 789.16202099 c 128,-1,17
 178.071428571 775.324041981 178.071428571 775.324041981 178.071428571 751.089285714 c 2,18,-1
 173.191954152 495 l 1,19,-1
 175 495 l 2,20,21
 195.635760597 495 195.635760597 495 209.317880298 478.830222171 c 128,-1,22
 223 462.660444341 223 462.660444341 223 439.642358827 c 128,-1,23
 223 416.624273313 223 416.624273313 206.953518622 401.812136657 c 128,-1,24
 190.907037244 387 190.907037244 387 170 387 c 2,25,-1
 63 387 l 2,0,1
EndSplineSet
Validated: 524321
EndChar

StartChar: ordmasculine
Encoding: 186 186 117
Width: 323
Flags: W
LayerCount: 2
Fore
SplineSet
184.076171875 435.461914062 m 128,-1,1
 202 454.923828125 202 454.923828125 202 483.6328125 c 0,2,3
 202 504.05859375 202 504.05859375 189.392578125 519.529296875 c 128,-1,4
 176.784179688 535 176.784179688 535 161 535 c 0,5,6
 141.133789062 535 141.133789062 535 124.56640625 515.21875 c 128,-1,7
 108 495.436523438 108 495.436523438 108 466.510742188 c 0,8,9
 108 444.380859375 108 444.380859375 119.602539062 430.190429688 c 128,-1,10
 131.205078125 416 131.205078125 416 147 416 c 0,11,0
 166.15234375 416 166.15234375 416 184.076171875 435.461914062 c 128,-1,1
75.845703125 615.356445312 m 128,-1,13
 113.681640625 642 113.681640625 642 164 642 c 0,14,15
 203.8671875 642 203.8671875 642 238.189453125 621.764648438 c 128,-1,16
 272.510742188 601.528320312 272.510742188 601.528320312 293.271484375 565.875976562 c 128,-1,17
 314 530.276367188 314 530.276367188 314 484.461914062 c 0,18,19
 314 447.596679688 314 447.596679688 295.087890625 406.463867188 c 128,-1,20
 276.174804688 365.330078125 276.174804688 365.330078125 238.321289062 337.165039062 c 128,-1,21
 200.466796875 309 200.466796875 309 147 309 c 0,22,23
 107.110351562 309 107.110351562 309 72.17578125 329.787109375 c 128,-1,24
 37.4287109375 350.462890625 37.4287109375 350.462890625 17.1767578125 386.157226562 c 128,-1,25
 -3 421.720703125 -3 421.720703125 -3 464.05078125 c 128,-1,26
 -3 506.379882812 -3 506.379882812 17.5048828125 547.546875 c 128,-1,12
 38.009765625 588.713867188 38.009765625 588.713867188 75.845703125 615.356445312 c 128,-1,13
EndSplineSet
Validated: 524289
EndChar

StartChar: asciicircum
Encoding: 94 94 118
Width: 526
Flags: W
LayerCount: 2
Fore
SplineSet
63 400 m 0,0,1
 63 420.555651267 63 420.555651267 74.0416049411 440.042912154 c 2,2,-1
 186.428629238 628.692560082 l 2,3,4
 198.191725115 647.807590881 198.191725115 647.807590881 217.850945113 659.90379544 c 128,-1,5
 237.510165112 672 237.510165112 672 261.52803714 672 c 0,6,7
 312.043626082 672 312.043626082 672 336.792045471 622.503161222 c 2,8,-1
 429.850309995 438.38726135 l 2,9,10
 440 418.087881339 440 418.087881339 440 400 c 0,11,12
 440 367.261011549 440 367.261011549 417.049845864 345.130505774 c 128,-1,13
 394.099691727 323 394.099691727 323 362 323 c 0,14,15
 340.973444757 323 340.973444757 323 324.933082489 331.225826804 c 0,16,17
 302.867362874 342.541580452 302.867362874 342.541580452 293.084964753 366.997575755 c 2,18,-1
 256.034649597 460.818535103 l 1,19,-1
 209.062398374 365.045605881 l 2,20,21
 188.880507552 323 188.880507552 323 140 323 c 0,22,23
 107.5819125 323 107.5819125 323 85.29095625 345.29095625 c 128,-1,24
 63 367.5819125 63 367.5819125 63 400 c 0,0,1
EndSplineSet
Validated: 524289
EndChar

StartChar: underscore
Encoding: 95 95 119
Width: 516
Flags: W
LayerCount: 2
Fore
SplineSet
-54 -9 m 128,-1,1
 -54 23.4180875 -54 23.4180875 -31.20904375 46.20904375 c 128,-1,2
 -8.4180875 69 -8.4180875 69 24 69 c 2,3,-1
 469 69 l 2,4,5
 501.4180875 69 501.4180875 69 524.20904375 46.20904375 c 128,-1,6
 547 23.4180875 547 23.4180875 547 -9 c 128,-1,7
 547 -41.4180875 547 -41.4180875 524.20904375 -64.20904375 c 128,-1,8
 501.4180875 -87 501.4180875 -87 469 -87 c 2,9,-1
 24 -87 l 2,10,11
 -8.4180875 -87 -8.4180875 -87 -31.20904375 -64.20904375 c 128,-1,0
 -54 -41.4180875 -54 -41.4180875 -54 -9 c 128,-1,1
EndSplineSet
Validated: 524289
EndChar

StartChar: grave
Encoding: 96 96 120
Width: 205
Flags: W
LayerCount: 2
Fore
SplineSet
53.9996860739 775.999999997 m 0,0,1
 94.2124689612 775.999999997 94.2124689612 775.999999997 121.230374068 742.978800505 c 2,2,-1
 217.014263128 622.974802891 l 2,3,4
 235 598.993820395 235 598.993820395 235 575 c 0,5,6
 235 541.949329015 235 541.949329015 211.397582566 519.974664508 c 128,-1,7
 187.795165132 498 187.795165132 498 155.306516106 498 c 128,-1,8
 122.81786708 498 122.81786708 498 100.915973227 522.691319859 c 2,9,-1
 -5.42405495568 633.006676198 l 2,10,11
 -30 657.743410289 -30 657.743410289 -30 691.538805954 c 128,-1,12
 -30 725.4180875 -30 725.4180875 -4.70904375 750.70904375 c 128,-1,13
 20.5819124968 775.999999997 20.5819124968 775.999999997 53.9996860739 775.999999997 c 0,0,1
EndSplineSet
Validated: 524289
EndChar

StartChar: quotedbl
Encoding: 34 34 121
Width: 325
Flags: W
LayerCount: 2
Fore
SplineSet
173 496 m 2,0,-1
 173 618 l 2,1,2
 173 644.20904375 173 644.20904375 191.395478125 662.604521875 c 128,-1,3
 209.79095625 681 209.79095625 681 236 681 c 128,-1,4
 262.20904375 681 262.20904375 681 281.104521875 662.104521875 c 128,-1,5
 300 643.20904375 300 643.20904375 300 618 c 2,6,-1
 300 496 l 2,7,8
 300 469.636156055 300 469.636156055 281.0277049 451.318078028 c 128,-1,9
 262.0554098 433 262.0554098 433 236 433 c 128,-1,10
 209.79095625 433 209.79095625 433 191.395478125 451.395478125 c 128,-1,11
 173 469.79095625 173 469.79095625 173 496 c 2,0,-1
25 496 m 2,12,-1
 25 618 l 2,13,14
 25 644.20904375 25 644.20904375 43.395478125 662.604521875 c 128,-1,15
 61.79095625 681 61.79095625 681 88 681 c 128,-1,16
 114.20904375 681 114.20904375 681 132.604521875 662.604521875 c 128,-1,17
 151 644.20904375 151 644.20904375 151 618 c 2,18,-1
 151 496 l 2,19,20
 151 469.79095625 151 469.79095625 132.604521875 451.395478125 c 128,-1,21
 114.20904375 433 114.20904375 433 88 433 c 128,-1,22
 61.79095625 433 61.79095625 433 43.395478125 451.395478125 c 128,-1,23
 25 469.79095625 25 469.79095625 25 496 c 2,12,-1
EndSplineSet
Validated: 524289
EndChar

StartChar: exclamdown
Encoding: 161 161 122
Width: 181
Flags: W
LayerCount: 2
Fore
SplineSet
10 474 m 0,0,1
 10 503 10 503 29 519.5 c 128,-1,2
 48 536 48 536 75 530 c 0,3,4
 121 520 121 520 140.5 496.5 c 128,-1,5
 160 473 160 473 144.5 449.5 c 128,-1,6
 129 426 129 426 84 418 c 0,7,8
 48 411 48 411 29 425.5 c 128,-1,9
 10 440 10 440 10 474 c 0,0,1
88 311 m 0,10,11
 128 303 128 303 150 226.5 c 128,-1,12
 172 150 172 150 171.5 60.5 c 128,-1,13
 171 -29 171 -29 147.5 -106 c 128,-1,14
 124 -183 124 -183 84 -190 c 0,15,16
 74 -192 74 -192 66.5 -192.5 c 128,-1,17
 59 -193 59 -193 52 -191 c 128,-1,18
 45 -189 45 -189 40 -185 c 128,-1,19
 35 -181 35 -181 30.5 -173.5 c 128,-1,20
 26 -166 26 -166 23 -156 c 128,-1,21
 20 -146 20 -146 17.5 -130.5 c 128,-1,22
 15 -115 15 -115 13.5 -97.5 c 128,-1,23
 12 -80 12 -80 11.5 -55 c 128,-1,24
 11 -30 11 -30 10.5 -2.5 c 128,-1,25
 10 25 10 25 10 61 c 128,-1,26
 10 97 10 97 10.5 124 c 128,-1,27
 11 151 11 151 12 176.5 c 128,-1,28
 13 202 13 202 14 219.5 c 128,-1,29
 15 237 15 237 18 252.5 c 128,-1,30
 21 268 21 268 24 277.5 c 128,-1,31
 27 287 27 287 31.5 295 c 128,-1,32
 36 303 36 303 41.5 306.5 c 128,-1,33
 47 310 47 310 54 312 c 128,-1,34
 61 314 61 314 69.5 313.5 c 128,-1,35
 78 313 78 313 88 311 c 0,10,11
EndSplineSet
Validated: 33
EndChar
